{
.appVersion = "1230";
DisplayStrings = (
hpG
);
classes = (
{
code = "B D E F H' I K L M N P R b h i j k l m n p r bar dotlessi Egrave Eacute Ecircumflex Edieresis Igrave Iacute Icircumflex Idieresis Ntilde igrave iacute icircumflex idieresis ntilde bracketleft";
disabled = 1;
name = .LeftVertical;
},
{
code = "one H' I M N bracketright d i j l q bar dotlessi Igrave Iacute Icircumflex Idieresis Ntilde igrave iacute icircumflex idieresis ugrave uacute ucircumflex udieresis one.prop zero nine D O Q o p Ograve Oacute Ocircumflex Otilde Odieresis ograve oacute ocircumflex otilde odieresis zero.prop nine.prop";
disabled = 1;
name = .RightVertical;
},
{
code = "zero six C G O' Q c e o q Ograve Oacute Ocircumflex Otilde Odieresis egrave eacute ecircumflex edieresis ograve oacute ocircumflex otilde odieresis zero.prop six.prop";
disabled = 1;
name = .LeftRounded;
},
{
code = "zero nine D O' Q o p Ograve Oacute Ocircumflex Otilde Odieresis ograve oacute ocircumflex otilde odieresis zero.prop nine.prop";
disabled = 1;
name = .RightRounded;
},
{
code = "h m n' ntilde";
disabled = 1;
name = .VerticalOutstroke;
},
{
code = "U u' Ugrave Uacute Ucircumflex Udieresis ugrave uacute ucircumflex udieresis";
disabled = 1;
name = .VerticalInstroke;
},
{
code = "A' Agrave Aacute Acircumflex Atilde Adieresis";
disabled = 1;
name = .Adiacritics;
},
{
code = "E' Egrave Eacute Ecircumflex Edieresis";
disabled = 1;
name = .Ediacritics;
},
{
code = "I' Igrave Iacute Icircumflex Idieresis";
disabled = 1;
name = .Idiacritics;
},
{
code = "N', Ntilde";
disabled = 1;
name = .Ndiacritics;
},
{
code = "O' Ograve Oacute Ocircumflex Otilde Odieresis";
disabled = 1;
name = .Odiacritics;
},
{
code = "U' Ugrave Uacute Ucircumflex Udieresis";
disabled = 1;
name = .Udiacritics;
},
{
code = "a' agrave aacute acircumflex atilde adieresis";
disabled = 1;
name = .adiacritics;
},
{
code = "e' egrave eacute ecircumflex edieresis";
disabled = 1;
name = .ediacritics;
},
{

glyphs = (
{
glyphname = comma;
lastChange = "2019-05-13 18:39:24 +0000";
layers = (
{
background = {
paths = (
{
closed = 1;
nodes = (
"84 24 OFFCURVE",
"120 -4 OFFCURVE",
"166 -8 CURVE",
"154 -66 OFFCURVE",
"110 -104 OFFCURVE",
"50 -136 CURVE",
"138 -182 LINE",
"230 -134 OFFCURVE",
"276 -46 OFFCURVE",
"276 28 CURVE SMOOTH",
"276 102 OFFCURVE",
"234 158 OFFCURVE",
"172 158 CURVE SMOOTH",
"118 158 OFFCURVE",
"84 118 OFFCURVE",
"84 72 CURVE SMOOTH"
);
}
);
};
layerId = UUID0;
paths = (
{
closed = 1;
nodes = (
"250 -160 OFFCURVE",
"314 -54 OFFCURVE",
"322 38 CURVE SMOOTH",
"332 126 OFFCURVE",
"288 194 OFFCURVE",
"214 194 CURVE SMOOTH",
"152 194 OFFCURVE",
"106 148 OFFCURVE",
"100 92 CURVE SMOOTH",
"96 32 OFFCURVE",
"134 -4 OFFCURVE",
"188 -10 CURVE",
"166 -76 OFFCURVE",
"110 -124 OFFCURVE",
"38 -160 CURVE",
"138 -218 LINE"
);
}
);
width = 378;
},
{
background = {
paths = (
{
closed = 1;
nodes = (
"84 24 OFFCURVE",
"120 -4 OFFCURVE",
"166 -8 CURVE",
"154 -66 OFFCURVE",
"110 -104 OFFCURVE",
"50 -136 CURVE",
"138 -182 LINE",
"230 -134 OFFCURVE",
"276 -46 OFFCURVE",
"276 28 CURVE SMOOTH",
"276 102 OFFCURVE",
"234 158 OFFCURVE",
"172 158 CURVE SMOOTH",
"118 158 OFFCURVE",
"84 118 OFFCURVE",
"84 72 CURVE SMOOTH"
);
}
);
};
layerId = UUID1;
paths = (
{
closed = 1;
nodes = (
"308 -202 OFFCURVE",
"398 -66 OFFCURVE",
"410 58 CURVE SMOOTH",
"422 176 OFFCURVE",
"366 272 OFFCURVE",
"260 272 CURVE SMOOTH",
"174 272 OFFCURVE",
"106 208 OFFCURVE",
"98 128 CURVE SMOOTH",
"92 52 OFFCURVE",
"142 4 OFFCURVE",
"206 -10 CURVE",
"180 -84 OFFCURVE",
"108 -140 OFFCURVE",
"26 -184 CURVE",
"174 -272 LINE"
);
}
);
width = 456;
}
);
unicode = 002C;
},
{
glyphname = period;
lastChange = "2019-05-13 18:39:24 +0000";
layers = (
{
background = {
paths = (
{
closed = 1;
nodes = (
"50 24 OFFCURVE",
"88 -14 OFFCURVE",
"140 -14 CURVE SMOOTH",
"192 -14 OFFCURVE",
"232 24 OFFCURVE",
"232 74 CURVE SMOOTH",
"232 126 OFFCURVE",
"192 166 OFFCURVE",
"140 166 CURVE SMOOTH",
"88 166 OFFCURVE",
"50 126 OFFCURVE",
"50 74 CURVE SMOOTH"
);
}
);
};
layerId = UUID0;
paths = (
{
closed = 1;
nodes = (
"220 -18 OFFCURVE",
"268 32 OFFCURVE",
"274 94 CURVE SMOOTH",
"280 158 OFFCURVE",
"240 208 OFFCURVE",
"176 208 CURVE SMOOTH",
"116 208 OFFCURVE",
"68 158 OFFCURVE",
"62 94 CURVE SMOOTH",
"56 32 OFFCURVE",
"98 -18 OFFCURVE",
"156 -18 CURVE SMOOTH"
);
}
);
width = 322;
},
{
background = {
paths = (
{
closed = 1;
nodes = (
"50 24 OFFCURVE",
"88 -14 OFFCURVE",
"140 -14 CURVE SMOOTH",
"192 -14 OFFCURVE",
"232 24 OFFCURVE",
"232 74 CURVE SMOOTH",
"232 126 OFFCURVE",
"192 166 OFFCURVE",
"140 166 CURVE SMOOTH",
"88 166 OFFCURVE",
"50 126 OFFCURVE",
"50 74 CURVE SMOOTH"
);
}
);
};
layerId = UUID1;
paths = (
{
closed = 1;
nodes = (
"276 -18 OFFCURVE",
"346 48 OFFCURVE",
"354 140 CURVE SMOOTH",
"362 228 OFFCURVE",
"304 298 OFFCURVE",
"218 298 CURVE SMOOTH",
"132 298 OFFCURVE",
"62 228 OFFCURVE",
"56 140 CURVE SMOOTH",
"46 48 OFFCURVE",
"102 -18 OFFCURVE",
"188 -18 CURVE SMOOTH"
);
}
);
width = 386;
}
);
unicode = 002E;
},
{
glyphname = semicolon;
lastChange = "2019-05-13 18:39:24 +0000";
layers = (
{
background = {
paths = (
{
closed = 1;
nodes = (
"128 24 OFFCURVE",
"164 -4 OFFCURVE",
"212 -8 CURVE",
"198 -66 OFFCURVE",
"154 -104 OFFCURVE",
"94 -136 CURVE",
"182 -182 LINE",
"274 -134 OFFCURVE",
"320 -46 OFFCURVE",
"320 28 CURVE SMOOTH",
"320 102 OFFCURVE",
"278 158 OFFCURVE",
"216 158 CURVE SMOOTH",
"162 158 OFFCURVE",
"128 118 OFFCURVE",
"128 72 CURVE SMOOTH"
);
},
{
closed = 1;
nodes = (
"132 648 OFFCURVE",
"170 612 OFFCURVE",
"220 612 CURVE SMOOTH",
"274 612 OFFCURVE",
"314 648 OFFCURVE",
"314 700 CURVE SMOOTH",
"314 752 OFFCURVE",
"274 792 OFFCURVE",
"220 792 CURVE SMOOTH",
"170 792 OFFCURVE",
"132 752 OFFCURVE",
"132 700 CURVE SMOOTH"
);
}
);
};
layerId = UUID0;
paths = (
{
closed = 1;
nodes = (
"298 -160 OFFCURVE",
"362 -54 OFFCURVE",
"370 38 CURVE SMOOTH",
"380 126 OFFCURVE",
"336 194 OFFCURVE",
"262 194 CURVE SMOOTH",
"200 194 OFFCURVE",
"154 148 OFFCURVE",
"148 92 CURVE SMOOTH",
"144 32 OFFCURVE",
"182 -4 OFFCURVE",
"236 -10 CURVE",
"214 -76 OFFCURVE",
"158 -124 OFFCURVE",
"86 -160 CURVE",
"186 -218 LINE"
);
},
{
closed = 1;
nodes = (
"376 658 OFFCURVE",
"424 708 OFFCURVE",
"430 770 CURVE SMOOTH",
"436 834 OFFCURVE",
"396 884 OFFCURVE",
"332 884 CURVE SMOOTH",
"272 884 OFFCURVE",
"224 834 OFFCURVE",
"218 770 CURVE SMOOTH",
"212 708 OFFCURVE",
"254 658 OFFCURVE",
"312 658 CURVE SMOOTH"
);
}
);
width = 472;
},
{
background = {
paths = (
{
closed = 1;
nodes = (
"128 24 OFFCURVE",
"164 -4 OFFCURVE",
"212 -8 CURVE",
"198 -66 OFFCURVE",
"154 -104 OFFCURVE",
"94 -136 CURVE",
"182 -182 LINE",
"274 -134 OFFCURVE",
"320 -46 OFFCURVE",
"320 28 CURVE SMOOTH",
"320 102 OFFCURVE",
"278 158 OFFCURVE",
"216 158 CURVE SMOOTH",
"162 158 OFFCURVE",
"128 118 OFFCURVE",
"128 72 CURVE SMOOTH"
);
},
{
closed = 1;
nodes = (
"132 648 OFFCURVE",
"170 612 OFFCURVE",
"220 612 CURVE SMOOTH",
"274 612 OFFCURVE",
"314 648 OFFCURVE",
"314 700 CURVE SMOOTH",
"314 752 OFFCURVE",
"274 792 OFFCURVE",
"220 792 CURVE SMOOTH",
"170 792 OFFCURVE",
"132 752 OFFCURVE",
"132 700 CURVE SMOOTH"
);
}
);
};
layerId = UUID1;
paths = (
{
closed = 1;
nodes = (
"362 -202 OFFCURVE",
"452 -66 OFFCURVE",
"464 58 CURVE SMOOTH",
"476 176 OFFCURVE",
"420 272 OFFCURVE",
"314 272 CURVE SMOOTH",
"228 272 OFFCURVE",
"160 208 OFFCURVE",
"152 128 CURVE SMOOTH",
"146 52 OFFCURVE",
"196 4 OFFCURVE",
"260 -10 CURVE",
"234 -84 OFFCURVE",
"162 -140 OFFCURVE",
"80 -184 CURVE",
"228 -272 LINE"
);
},
{
closed = 1;
nodes = (
"446 610 OFFCURVE",
"516 676 OFFCURVE",
"524 768 CURVE SMOOTH",
"532 856 OFFCURVE",
"474 926 OFFCURVE",
"388 926 CURVE SMOOTH",
"302 926 OFFCURVE",
"232 856 OFFCURVE",
"226 768 CURVE SMOOTH",
"216 676 OFFCURVE",
"272 610 OFFCURVE",
"358 610 CURVE SMOOTH"
);
}
);
width = 554;
}
);
unicode = 003B;
},
{
glyphname = colon;
lastChange = "2019-05-13 18:39:24 +0000";
layers = (
{
background = {
paths = (
{
closed = 1;
nodes = (
"94 648 OFFCURVE",
"130 612 OFFCURVE",
"182 612 CURVE SMOOTH",
"234 612 OFFCURVE",
"274 648 OFFCURVE",
"274 700 CURVE SMOOTH",
"274 752 OFFCURVE",
"234 792 OFFCURVE",
"182 792 CURVE SMOOTH",
"130 792 OFFCURVE",
"94 752 OFFCURVE",
"94 700 CURVE SMOOTH"
);
},
{
closed = 1;
nodes = (
"94 24 OFFCURVE",
"130 -14 OFFCURVE",
"182 -14 CURVE SMOOTH",
"234 -14 OFFCURVE",
"274 24 OFFCURVE",
"274 74 CURVE SMOOTH",
"274 126 OFFCURVE",
"234 166 OFFCURVE",
"182 166 CURVE SMOOTH",
"130 166 OFFCURVE",
"94 126 OFFCURVE",
"94 74 CURVE SMOOTH"
);
}
);
};
layerId = UUID0;
paths = (
{
closed = 1;
nodes = (
"330 658 OFFCURVE",
"378 708 OFFCURVE",
"384 770 CURVE SMOOTH",
"390 834 OFFCURVE",
"350 884 OFFCURVE",
"286 884 CURVE SMOOTH",
"226 884 OFFCURVE",
"178 834 OFFCURVE",
"172 770 CURVE SMOOTH",
"166 708 OFFCURVE",
"208 658 OFFCURVE",
"266 658 CURVE SMOOTH"
);
},
{
closed = 1;
nodes = (
"272 46 OFFCURVE",
"320 96 OFFCURVE",
"326 158 CURVE SMOOTH",
"332 222 OFFCURVE",
"292 272 OFFCURVE",
"228 272 CURVE SMOOTH",
"168 272 OFFCURVE",
"120 222 OFFCURVE",
"114 158 CURVE SMOOTH",
"108 96 OFFCURVE",
"150 46 OFFCURVE",
"208 46 CURVE SMOOTH"
);
}
);
width = 416;
},
{
background = {
paths = (
{
closed = 1;
nodes = (
"94 648 OFFCURVE",
"130 612 OFFCURVE",
"182 612 CURVE SMOOTH",
"234 612 OFFCURVE",
"274 648 OFFCURVE",
"274 700 CURVE SMOOTH",
"274 752 OFFCURVE",
"234 792 OFFCURVE",
"182 792 CURVE SMOOTH",
"130 792 OFFCURVE",
"94 752 OFFCURVE",
"94 700 CURVE SMOOTH"
);
},
{
closed = 1;
nodes = (
"94 24 OFFCURVE",
"130 -14 OFFCURVE",
"182 -14 CURVE SMOOTH",
"234 -14 OFFCURVE",
"274 24 OFFCURVE",
"274 74 CURVE SMOOTH",
"274 126 OFFCURVE",
"234 166 OFFCURVE",
"182 166 CURVE SMOOTH",
"130 166 OFFCURVE",
"94 126 OFFCURVE",
"94 74 CURVE SMOOTH"
);
}
);
};
guideLines = (
{
position = "{119, 8}";
},
{
position = "{164, 457}";
}
);
layerId = UUID1;
paths = (
{
closed = 1;
nodes = (
"386 598 OFFCURVE",
"456 664 OFFCURVE",
"464 756 CURVE SMOOTH",
"472 844 OFFCURVE",
"414 914 OFFCURVE",
"328 914 CURVE SMOOTH",
"242 914 OFFCURVE",
"172 844 OFFCURVE",
"166 756 CURVE SMOOTH",
"160 664 OFFCURVE",
"212 598 OFFCURVE",
"298 598 CURVE SMOOTH"
);
},
{
closed = 1;
nodes = (
"326 16 OFFCURVE",
"396 82 OFFCURVE",
"404 174 CURVE SMOOTH",
"412 262 OFFCURVE",
"354 332 OFFCURVE",
"268 332 CURVE SMOOTH",
"182 332 OFFCURVE",
"112 262 OFFCURVE",
"106 174 CURVE SMOOTH",
"100 82 OFFCURVE",
"152 16 OFFCURVE",
"238 16 CURVE SMOOTH"
);
}
);
width = 486;
}
);
unicode = 003A;
},
{
glyphname = hyphen;
lastChange = "2019-05-13 18:39:24 +0000";
layers = (
{
background = {
paths = (
{
closed = 1;
nodes = (
"64 448 LINE",
"508 448 LINE",
"508 556 LINE",
"64 556 LINE"
);
}
);
};
layerId = UUID0;
paths = (
{
closed = 1;
nodes = (
"606 514 LINE",
"620 650 LINE",
"130 650 LINE",
"116 514 LINE"
);
}
);
width = 628;
},
{
background = {
paths = (
{
closed = 1;
nodes = (
"64 448 LINE",
"508 448 LINE",
"508 556 LINE",
"64 556 LINE"
);
}
);
};
layerId = UUID1;
paths = (
{
closed = 1;
nodes = (
"636 500 LINE",
"656 706 LINE",
"150 706 LINE",
"130 500 LINE"
);
}
);
width = 672;
}
);
unicode = 002D;
},
{
glyphname = endash;
lastChange = "2019-05-13 18:39:24 +0000";
layers = (
{
background = {
paths = (
{
closed = 1;
nodes = (
"90 448 LINE",
"674 448 LINE",
"674 556 LINE",
"90 556 LINE"
);
}
);
};
layerId = UUID0;
paths = (
{
closed = 1;
nodes = (
"802 514 LINE",
"816 650 LINE",
"160 650 LINE",
"148 514 LINE"
);
}
);
width = 854;
},
{
background = {
paths = (
{
closed = 1;
nodes = (
"90 448 LINE",
"674 448 LINE",
"674 556 LINE",
"90 556 LINE"
);
}
);
};
layerId = UUID1;
paths = (
{
closed = 1;
nodes = (
"892 500 LINE",
"912 706 LINE",
"166 706 LINE",
"146 500 LINE"
);
}
);
width = 944;
}
);
unicode = 2013;
},
{
glyphname = emdash;
lastChange = "2019-05-13 18:39:24 +0000";
layers = (
{
background = {
paths = (
{
closed = 1;
nodes = (
"90 448 LINE",
"1092 448 LINE",
"1092 556 LINE",
"90 556 LINE"
);
}
);
};
layerId = UUID0;
paths = (
{
closed = 1;
nodes = (
"1256 514 LINE",
"1268 650 LINE",
"160 650 LINE",
"148 514 LINE"
);
}
);
width = 1306;
},
{
background = {
paths = (
{
closed = 1;
nodes = (
"90 448 LINE",
"1092 448 LINE",
"1092 556 LINE",
"90 556 LINE"
);
}
);
};
layerId = UUID1;
paths = (
{
closed = 1;
nodes = (
"1332 500 LINE",
"1352 706 LINE",
"166 706 LINE",
"146 500 LINE"
);
}
);
width = 1382;
}
);
unicode = 2014;
},
{
glyphname = exclam;
lastChange = "2019-05-13 18:39:24 +0000";
layers = (
{
background = {
paths = (
{
closed = 1;
nodes = (
"180 294 LINE",
"278 294 LINE",
"292 1080 LINE",
"166 1080 LINE"
);
},
{
closed = 1;
nodes = (
"140 24 OFFCURVE",
"178 -14 OFFCURVE",
"228 -14 CURVE SMOOTH",
"280 -14 OFFCURVE",
"320 24 OFFCURVE",
"320 74 CURVE SMOOTH",
"320 126 OFFCURVE",
"280 166 OFFCURVE",
"228 166 CURVE SMOOTH",
"178 166 OFFCURVE",
"140 126 OFFCURVE",
"140 74 CURVE SMOOTH"
);
}
);
};
layerId = UUID0;
paths = (
{
closed = 1;
nodes = (
"344 352 LINE",
"444 1254 LINE",
"296 1254 LINE",
"228 352 LINE"
);
},
{
closed = 1;
nodes = (
"312 -18 OFFCURVE",
"364 32 OFFCURVE",
"368 94 CURVE SMOOTH",
"376 158 OFFCURVE",
"332 208 OFFCURVE",
"270 208 CURVE SMOOTH",
"210 208 OFFCURVE",
"162 158 OFFCURVE",
"154 94 CURVE SMOOTH",
"150 32 OFFCURVE",
"190 -18 OFFCURVE",
"250 -18 CURVE SMOOTH"
);
}
);
width = 500;
},
{
background = {
paths = (
{
closed = 1;
nodes = (
"180 294 LINE",
"278 294 LINE",
"292 1080 LINE",
"166 1080 LINE"
);
},
{
closed = 1;
nodes = (
"140 24 OFFCURVE",
"178 -14 OFFCURVE",
"228 -14 CURVE SMOOTH",
"280 -14 OFFCURVE",
"320 24 OFFCURVE",
"320 74 CURVE SMOOTH",
"320 126 OFFCURVE",
"280 166 OFFCURVE",
"228 166 CURVE SMOOTH",
"178 166 OFFCURVE",
"140 126 OFFCURVE",
"140 74 CURVE SMOOTH"
);
}
);
};
layerId = UUID1;
paths = (
{
closed = 1;
nodes = (
"402 438 LINE",
"510 1328 LINE",
"278 1328 LINE",
"220 438 LINE"
);
},
{
closed = 1;
nodes = (
"354 -18 OFFCURVE",
"424 48 OFFCURVE",
"434 140 CURVE SMOOTH",
"440 228 OFFCURVE",
"384 298 OFFCURVE",
"296 298 CURVE SMOOTH",
"210 298 OFFCURVE",
"142 228 OFFCURVE",
"134 140 CURVE SMOOTH",
"126 48 OFFCURVE",
"182 -18 OFFCURVE",
"268 -18 CURVE SMOOTH"
);
}
);
width = 528;
}
);
unicode = 0021;
},
{
glyphname = a;
lastChange = "2019-05-13 18:39:24 +0000";
layers = (
{
anchors = (
{
name = above;
position = "{524, 1014}";
}
);
layerId = UUID0;
paths = (
{
closed = 1;
nodes = (
"564 -22 OFFCURVE",
"670 40 OFFCURVE",
"734 160 CURVE",
"734 106 OFFCURVE",
"732 54 OFFCURVE",
"732 0 CURVE",
"854 0 LINE",
"912 616 LINE SMOOTH",
"936 874 OFFCURVE",
"808 980 OFFCURVE",
"608 980 CURVE SMOOTH",
"404 980 OFFCURVE",
"246 900 OFFCURVE",
"226 692 CURVE",
"384 692 LINE",
"394 810 OFFCURVE",
"486 862 OFFCURVE",
"598 862 CURVE SMOOTH",
"732 862 OFFCURVE",
"788 790 OFFCURVE",
"772 620 CURVE SMOOTH",
"760 498 LINE",
"682 532 OFFCURVE",
"598 550 OFFCURVE",
"510 550 CURVE SMOOTH",
"324 550 OFFCURVE",
"170 458 OFFCURVE",
"152 268 CURVE",
"136 120 OFFCURVE",
"236 -22 OFFCURVE",
"428 -22 CURVE SMOOTH"
);
},
{
closed = 1;
nodes = (
"336 100 OFFCURVE",
"294 174 OFFCURVE",
"302 268 CURVE SMOOTH",
"314 394 OFFCURVE",
"408 438 OFFCURVE",
"524 438 CURVE SMOOTH",
"594 438 OFFCURVE",
"676 422 OFFCURVE",
"750 398 CURVE",
"750 216 OFFCURVE",
"596 100 OFFCURVE",
"470 100 CURVE SMOOTH"
);
}
);
width = 1008;
},
{
anchors = (
{
name = above;
position = "{524, 1014}";
}
);
layerId = UUID1;
paths = (
{
closed = 1;
nodes = (
"570 -28 OFFCURVE",
"660 36 OFFCURVE",
"720 132 CURVE",
"722 88 OFFCURVE",
"722 44 OFFCURVE",
"724 0 CURVE",
"908 0 LINE",
"966 618 LINE SMOOTH",
"990 880 OFFCURVE",
"854 998 OFFCURVE",
"626 998 CURVE SMOOTH",
"376 998 OFFCURVE",
"218 904 OFFCURVE",
"196 684 CURVE",
"428 684 LINE",
"438 774 OFFCURVE",
"508 826 OFFCURVE",
"610 826 CURVE SMOOTH",
"728 826 OFFCURVE",
"768 762 OFFCURVE",
"754 626 CURVE SMOOTH",
"744 530 LINE",
"670 552 OFFCURVE",
"594 568 OFFCURVE",
"508 568 CURVE SMOOTH",
"288 568 OFFCURVE",
"140 468 OFFCURVE",
"124 284 CURVE",
"108 118 OFFCURVE",
"210 -28 OFFCURVE",
"444 -28 CURVE SMOOTH"
);
},
{
closed = 1;
nodes = (
"392 152 OFFCURVE",
"344 212 OFFCURVE",
"350 284 CURVE SMOOTH",
"358 376 OFFCURVE",
"438 412 OFFCURVE",
"536 412 CURVE SMOOTH",
"596 412 OFFCURVE",
"672 398 OFFCURVE",
"730 380 CURVE",
"718 250 OFFCURVE",
"616 152 OFFCURVE",
"504 152 CURVE SMOOTH"
);
}
);
width = 1052;
}
);
unicode = 0061;
},
{
glyphname = b;
lastChange = "2019-05-13 18:39:24 +0000";
layers = (
{
background = {
paths = (
{
closed = 1;
nodes = (
"562 980 OFFCURVE",
"464 920 OFFCURVE",
"398 812 CURVE",
"452 1362 LINE",
"310 1362 LINE",
"182 0 LINE",
"280 0 LINE",
"328 168 LINE",
"368 44 OFFCURVE",
"460 -22 OFFCURVE",
"574 -22 CURVE SMOOTH",
"782 -22 OFFCURVE",
"978 174 OFFCURVE",
"1006 482 CURVE SMOOTH",
"1034 788 OFFCURVE",
"880 980 OFFCURVE",
"678 980 CURVE SMOOTH"
);
},
{
closed = 1;
nodes = (
"782 840 OFFCURVE",
"882 706 OFFCURVE",
"860 482 CURVE SMOOTH",
"838 254 OFFCURVE",
"710 118 OFFCURVE",
"572 118 CURVE SMOOTH",
"452 118 OFFCURVE",
"346 222 OFFCURVE",
"360 408 CURVE SMOOTH",
"372 550 LINE",
"394 738 OFFCURVE",
"514 840 OFFCURVE",
"638 840 CURVE SMOOTH"
);
}
);
};
layerId = UUID0;
paths = (
{
closed = 1;
nodes = (
"870 -22 OFFCURVE",
"1010 316 OFFCURVE",
"1010 552 CURVE SMOOTH",
"1010 816 OFFCURVE",
"864 980 OFFCURVE",
"678 980 CURVE SMOOTH",
"562 980 OFFCURVE",
"464 920 OFFCURVE",
"398 812 CURVE",
"452 1362 LINE",
"310 1362 LINE",
"182 0 LINE",
"280 0 LINE",
"328 168 LINE",
"368 44 OFFCURVE",
"460 -22 OFFCURVE",
"574 -22 CURVE SMOOTH"
);
},
{
closed = 1;
nodes = (
"424 118 OFFCURVE",
"344 248 OFFCURVE",
"362 432 CURVE SMOOTH",
"372 536 LINE SMOOTH",
"388 732 OFFCURVE",
"514 840 OFFCURVE",
"638 840 CURVE SMOOTH",
"768 840 OFFCURVE",
"864 730 OFFCURVE",
"864 542 CURVE SMOOTH",
"864 366 OFFCURVE",
"774 118 OFFCURVE",
"572 118 CURVE SMOOTH"
);
}
);
width = 1052;
},
{
background = {
paths = (
{
closed = 1;
nodes = (
"614 998 OFFCURVE",
"524 946 OFFCURVE",
"460 850 CURVE",
"510 1372 LINE",
"296 1372 LINE",
"168 0 LINE",
"306 0 LINE",
"372 168 LINE",
"412 38 OFFCURVE",
"502 -28 OFFCURVE",
"610 -28 CURVE SMOOTH",
"832 -28 OFFCURVE",
"1028 178 OFFCURVE",
"1058 490 CURVE SMOOTH",
"1086 798 OFFCURVE",
"936 998 OFFCURVE",
"724 998 CURVE SMOOTH"
);
},
{
closed = 1;
nodes = (
"780 786 OFFCURVE",
"864 670 OFFCURVE",
"844 490 CURVE SMOOTH",
"828 306 OFFCURVE",
"724 186 OFFCURVE",
"600 186 CURVE SMOOTH",
"500 186 OFFCURVE",
"404 284 OFFCURVE",
"420 430 CURVE SMOOTH",
"432 570 LINE",
"454 706 OFFCURVE",
"556 786 OFFCURVE",
"656 786 CURVE SMOOTH"
);
}
);
};
layerId = UUID1;
paths = (
{
closed = 1;
nodes = (
"916 -28 OFFCURVE",
"1062 318 OFFCURVE",
"1062 562 CURVE SMOOTH",
"1062 830 OFFCURVE",
"920 998 OFFCURVE",
"724 998 CURVE SMOOTH",
"614 998 OFFCURVE",
"524 946 OFFCURVE",
"460 850 CURVE",
"510 1372 LINE",
"296 1372 LINE",
"168 0 LINE",
"306 0 LINE",
"372 168 LINE",
"412 38 OFFCURVE",
"502 -28 OFFCURVE",
"610 -28 CURVE SMOOTH"
);
},
{
closed = 1;
nodes = (
"492 186 OFFCURVE",
"408 286 OFFCURVE",
"420 430 CURVE SMOOTH",
"432 570 LINE SMOOTH",
"444 708 OFFCURVE",
"556 786 OFFCURVE",
"656 786 CURVE SMOOTH",
"768 786 OFFCURVE",
"846 690 OFFCURVE",
"846 538 CURVE SMOOTH",
"846 380 OFFCURVE",
"766 186 OFFCURVE",
"600 186 CURVE SMOOTH"
);
}
);
width = 1106;
}
);
unicode = 0062;
},
{
glyphname = c;
lastChange = "2019-05-13 18:39:24 +0000";
layers = (
{
background = {
paths = (
{
closed = 1;
nodes = (
"638 806 OFFCURVE",
"756 664 OFFCURVE",
"756 478 CURVE",
"618 466 LINE",
"618 610 OFFCURVE",
"544 692 OFFCURVE",
"438 692 CURVE SMOOTH",
"322 692 OFFCURVE",
"216 592 OFFCURVE",
"216 394 CURVE SMOOTH",
"216 196 OFFCURVE",
"322 96 OFFCURVE",
"438 96 CURVE SMOOTH",
"546 96 OFFCURVE",
"618 170 OFFCURVE",
"618 318 CURVE",
"756 318 LINE",
"756 124 OFFCURVE",
"648 -18 OFFCURVE",
"438 -18 CURVE SMOOTH",
"248 -18 OFFCURVE",
"82 140 OFFCURVE",
"82 394 CURVE SMOOTH",
"82 656 OFFCURVE",
"248 806 OFFCURVE",
"438 806 CURVE SMOOTH"
);
}
);
};
layerId = UUID0;
paths = (
{
closed = 1;
nodes = (
"690 -22 OFFCURVE",
"840 122 OFFCURVE",
"858 322 CURVE",
"712 322 LINE",
"702 192 OFFCURVE",
"624 118 OFFCURVE",
"492 118 CURVE SMOOTH",
"350 118 OFFCURVE",
"260 260 OFFCURVE",
"280 480 CURVE SMOOTH",
"302 718 OFFCURVE",
"432 840 OFFCURVE",
"560 840 CURVE SMOOTH",
"660 840 OFFCURVE",
"726 772 OFFCURVE",
"746 662 CURVE",
"890 676 LINE",
"872 836 OFFCURVE",
"770 980 OFFCURVE",
"574 980 CURVE SMOOTH",
"366 980 OFFCURVE",
"164 798 OFFCURVE",
"134 480 CURVE SMOOTH",
"106 172 OFFCURVE",
"270 -22 OFFCURVE",
"478 -22 CURVE SMOOTH"
);
}
);
width = 926;
},
{
background = {
paths = (
{
closed = 1;
nodes = (
"638 806 OFFCURVE",
"756 664 OFFCURVE",
"756 478 CURVE",
"618 466 LINE",
"618 610 OFFCURVE",
"544 692 OFFCURVE",
"438 692 CURVE SMOOTH",
"322 692 OFFCURVE",
"216 592 OFFCURVE",
"216 394 CURVE SMOOTH",
"216 196 OFFCURVE",
"322 96 OFFCURVE",
"438 96 CURVE SMOOTH",
"546 96 OFFCURVE",
"618 170 OFFCURVE",
"618 318 CURVE",
"756 318 LINE",
"756 124 OFFCURVE",
"648 -18 OFFCURVE",
"438 -18 CURVE SMOOTH",
"248 -18 OFFCURVE",
"82 140 OFFCURVE",
"82 394 CURVE SMOOTH",
"82 656 OFFCURVE",
"248 806 OFFCURVE",
"438 806 CURVE SMOOTH"
);
}
);
};
layerId = UUID1;
paths = (
{
closed = 1;
nodes = (
"732 -28 OFFCURVE",
"878 140 OFFCURVE",
"898 346 CURVE",
"684 346 LINE",
"674 248 OFFCURVE",
"620 186 OFFCURVE",
"512 186 CURVE SMOOTH",
"404 186 OFFCURVE",
"326 286 OFFCURVE",
"344 486 CURVE SMOOTH",
"364 696 OFFCURVE",
"470 786 OFFCURVE",
"570 786 CURVE SMOOTH",
"654 786 OFFCURVE",
"698 722 OFFCURVE",
"710 638 CURVE",
"926 644 LINE",
"924 816 OFFCURVE",
"818 998 OFFCURVE",
"592 998 CURVE SMOOTH",
"372 998 OFFCURVE",
"160 816 OFFCURVE",
"130 486 CURVE SMOOTH",
"100 174 OFFCURVE",
"276 -28 OFFCURVE",
"494 -28 CURVE SMOOTH"
);
}
);
width = 954;
}
);
unicode = 0063;
},
{
glyphname = d;
lastChange = "2019-05-13 18:39:24 +0000";
layers = (
{
background = {
paths = (
{
closed = 1;
nodes = (
"688 980 OFFCURVE",
"774 922 OFFCURVE",
"820 816 CURVE",
"872 1362 LINE",
"1014 1362 LINE",
"886 0 LINE",
"770 0 LINE",
"766 160 LINE",
"700 40 OFFCURVE",
"598 -22 OFFCURVE",
"488 -22 CURVE SMOOTH",
"278 -22 OFFCURVE",
"124 174 OFFCURVE",
"152 482 CURVE",
"182 788 OFFCURVE",
"370 980 OFFCURVE",
"574 980 CURVE SMOOTH"
);
},
{
closed = 1;
nodes = (
"446 840 OFFCURVE",
"320 706 OFFCURVE",
"298 482 CURVE",
"278 254 OFFCURVE",
"378 118 OFFCURVE",
"518 118 CURVE SMOOTH",
"632 118 OFFCURVE",
"756 216 OFFCURVE",
"780 390 CURVE SMOOTH",
"780 396 LINE",
"798 586 LINE",
"800 750 OFFCURVE",
"702 840 OFFCURVE",
"586 840 CURVE SMOOTH"
);
}
);
};
layerId = UUID0;
paths = (
{
closed = 1;
nodes = (
"598 -22 OFFCURVE",
"700 40 OFFCURVE",
"766 160 CURVE",
"770 0 LINE",
"886 0 LINE",
"1014 1362 LINE",
"872 1362 LINE",
"820 816 LINE",
"774 922 OFFCURVE",
"688 980 OFFCURVE",
"574 980 CURVE SMOOTH",
"294 980 OFFCURVE",
"148 662 OFFCURVE",
"148 412 CURVE SMOOTH",
"148 144 OFFCURVE",
"294 -22 OFFCURVE",
"488 -22 CURVE SMOOTH"
);
},
{
closed = 1;
nodes = (
"390 118 OFFCURVE",
"296 232 OFFCURVE",
"296 426 CURVE SMOOTH",
"296 586 OFFCURVE",
"376 840 OFFCURVE",
"586 840 CURVE SMOOTH",
"694 840 OFFCURVE",
"798 762 OFFCURVE",
"800 620 CURVE SMOOTH",
"800 608 OFFCURVE",
"800 598 OFFCURVE",
"798 586 CURVE SMOOTH",
"780 390 LINE SMOOTH",
"764 216 OFFCURVE",
"632 118 OFFCURVE",
"518 118 CURVE SMOOTH"
);
}
);
width = 1070;
},
{
background = {
paths = (
{
closed = 1;
nodes = (
"678 998 OFFCURVE",
"758 948 OFFCURVE",
"804 852 CURVE",
"854 1372 LINE",
"1068 1372 LINE",
"938 0 LINE",
"764 0 LINE",
"752 154 LINE",
"686 32 OFFCURVE",
"588 -28 OFFCURVE",
"486 -28 CURVE SMOOTH",
"266 -28 OFFCURVE",
"108 178 OFFCURVE",
"136 490 CURVE",
"166 798 OFFCURVE",
"356 998 OFFCURVE",
"568 998 CURVE SMOOTH"
);
},
{
closed = 1;
nodes = (
"470 786 OFFCURVE",
"368 668 OFFCURVE",
"350 490 CURVE",
"334 306 OFFCURVE",
"414 186 OFFCURVE",
"538 186 CURVE SMOOTH",
"634 186 OFFCURVE",
"742 278 OFFCURVE",
"762 418 CURVE SMOOTH",
"764 430 LINE",
"774 546 LINE",
"788 698 OFFCURVE",
"704 786 OFFCURVE",
"598 786 CURVE SMOOTH"
);
}
);
};
layerId = UUID1;
paths = (
{
closed = 1;
nodes = (
"588 -28 OFFCURVE",
"686 32 OFFCURVE",
"752 154 CURVE",
"764 0 LINE",
"938 0 LINE",
"1068 1372 LINE",
"854 1372 LINE",
"804 852 LINE",
"758 948 OFFCURVE",
"678 998 OFFCURVE",
"568 998 CURVE SMOOTH",
"306 998 OFFCURVE",
"132 718 OFFCURVE",
"132 420 CURVE SMOOTH",
"132 148 OFFCURVE",
"282 -28 OFFCURVE",
"486 -28 CURVE SMOOTH"
);
},
{
closed = 1;
nodes = (
"424 186 OFFCURVE",
"348 286 OFFCURVE",
"348 444 CURVE SMOOTH",
"348 594 OFFCURVE",
"424 786 OFFCURVE",
"598 786 CURVE SMOOTH",
"696 786 OFFCURVE",
"776 710 OFFCURVE",
"776 578 CURVE SMOOTH",
"776 568 OFFCURVE",
"776 558 OFFCURVE",
"774 546 CURVE SMOOTH",
"762 426 LINE SMOOTH",
"748 278 OFFCURVE",
"634 186 OFFCURVE",
"538 186 CURVE SMOOTH"
);
}
);
width = 1106;
}
);
unicode = 0064;
},
{
glyphname = e;
lastChange = "2019-05-13 18:39:24 +0000";
layers = (
{
anchors = (
{
name = above;
position = "{464, 1014}";
}
);
background = {
paths = (
{
closed = 1;
nodes = (
"626 806 OFFCURVE",
"724 694 OFFCURVE",
"756 560 CURVE",
"624 536 LINE",
"598 632 OFFCURVE",
"532 692 OFFCURVE",
"440 692 CURVE SMOOTH",
"322 692 OFFCURVE",
"216 592 OFFCURVE",
"216 394 CURVE SMOOTH",
"216 214 OFFCURVE",
"310 96 OFFCURVE",
"440 96 CURVE SMOOTH",
"562 96 OFFCURVE",
"624 160 OFFCURVE",
"624 270 CURVE",
"758 270 LINE",
"758 106 OFFCURVE",
"634 -18 OFFCURVE",
"440 -18 CURVE SMOOTH",
"250 -18 OFFCURVE",
"82 140 OFFCURVE",
"82 394 CURVE SMOOTH",
"82 656 OFFCURVE",
"250 806 OFFCURVE",
"440 806 CURVE SMOOTH"
);
}
);
};
layerId = UUID0;
paths = (
{
closed = 1;
nodes = (
"662 -22 OFFCURVE",
"808 90 OFFCURVE",
"854 280 CURVE",
"708 280 LINE",
"680 164 OFFCURVE",
"600 106 OFFCURVE",
"488 106 CURVE SMOOTH",
"324 106 OFFCURVE",
"258 250 OFFCURVE",
"272 444 CURVE",
"862 444 LINE",
"872 490 OFFCURVE",
"878 538 OFFCURVE",
"880 582 CURVE SMOOTH",
"888 804 OFFCURVE",
"792 980 OFFCURVE",
"570 980 CURVE SMOOTH",
"346 980 OFFCURVE",
"164 790 OFFCURVE",
"134 476 CURVE SMOOTH",
"104 166 OFFCURVE",
"252 -22 OFFCURVE",
"476 -22 CURVE SMOOTH"
);
},
{
closed = 1;
nodes = (
"314 722 OFFCURVE",
"410 854 OFFCURVE",
"560 854 CURVE SMOOTH",
"722 854 OFFCURVE",
"760 714 OFFCURVE",
"746 564 CURVE",
"286 564 LINE"
);
}
);
width = 926;
},
{
anchors = (
{
name = above;
position = "{464, 1014}";
}
);
background = {
paths = (
{
closed = 1;
nodes = (
"626 806 OFFCURVE",
"724 694 OFFCURVE",
"756 560 CURVE",
"624 536 LINE",
"598 632 OFFCURVE",
"532 692 OFFCURVE",
"440 692 CURVE SMOOTH",
"322 692 OFFCURVE",
"216 592 OFFCURVE",
"216 394 CURVE SMOOTH",
"216 214 OFFCURVE",
"310 96 OFFCURVE",
"440 96 CURVE SMOOTH",
"562 96 OFFCURVE",
"624 160 OFFCURVE",
"624 270 CURVE",
"758 270 LINE",
"758 106 OFFCURVE",
"634 -18 OFFCURVE",
"440 -18 CURVE SMOOTH",
"250 -18 OFFCURVE",
"82 140 OFFCURVE",
"82 394 CURVE SMOOTH",
"82 656 OFFCURVE",
"250 806 OFFCURVE",
"440 806 CURVE SMOOTH"
);
}
);
};
layerId = UUID1;
paths = (
{
closed = 1;
nodes = (
"692 -28 OFFCURVE",
"848 102 OFFCURVE",
"892 290 CURVE",
"678 290 LINE",
"654 204 OFFCURVE",
"590 162 OFFCURVE",
"510 162 CURVE SMOOTH",
"378 162 OFFCURVE",
"322 272 OFFCURVE",
"334 428 CURVE",
"900 428 LINE",
"908 464 OFFCURVE",
"914 498 OFFCURVE",
"918 534 CURVE SMOOTH",
"940 776 OFFCURVE",
"842 998 OFFCURVE",
"588 998 CURVE SMOOTH",
"362 998 OFFCURVE",
"160 806 OFFCURVE",
"130 486 CURVE SMOOTH",
"100 176 OFFCURVE",
"266 -28 OFFCURVE",
"492 -28 CURVE SMOOTH"
);
},
{
closed = 1;
nodes = (
"374 712 OFFCURVE",
"454 810 OFFCURVE",
"572 810 CURVE SMOOTH",
"704 810 OFFCURVE",
"734 696 OFFCURVE",
"724 578 CURVE",
"350 578 LINE"
);
}
);
width = 954;
}
);
unicode = 0065;
},
{
glyphname = f;
lastChange = "2019-05-13 18:39:24 +0000";
layers = (
{
layerId = UUID0;
paths = (
{
closed = 1;
nodes = (
"308 848 LINE",
"230 0 LINE",
"370 0 LINE",
"450 848 LINE",
"628 848 LINE",
"638 956 LINE",
"460 956 LINE",
"474 1100 LINE SMOOTH",
"486 1224 OFFCURVE",
"552 1254 OFFCURVE",
"610 1254 CURVE SMOOTH",
"642 1254 OFFCURVE",
"680 1244 OFFCURVE",
"714 1228 CURVE",
"752 1352 LINE",
"702 1370 OFFCURVE",
"652 1378 OFFCURVE",
"602 1378 CURVE SMOOTH",
"466 1378 OFFCURVE",
"350 1292 OFFCURVE",
"332 1102 CURVE SMOOTH",
"318 956 LINE",
"178 956 LINE",
"168 848 LINE"
);
}
);
width = 618;
},
{
layerId = UUID1;
paths = (
{
closed = 1;
nodes = (
"278 814 LINE",
"202 0 LINE",
"416 0 LINE",
"490 814 LINE",
"652 814 LINE",
"668 972 LINE",
"506 972 LINE",
"516 1084 LINE SMOOTH",
"526 1174 OFFCURVE",
"578 1202 OFFCURVE",
"628 1202 CURVE SMOOTH",
"658 1202 OFFCURVE",
"690 1194 OFFCURVE",
"720 1182 CURVE",
"778 1364 LINE",
"720 1378 OFFCURVE",
"656 1388 OFFCURVE",
"598 1388 CURVE SMOOTH",
"456 1388 OFFCURVE",
"324 1298 OFFCURVE",
"304 1086 CURVE SMOOTH",
"292 972 LINE",
"164 972 LINE",
"148 814 LINE"
);
}
);
width = 658;
}
);
unicode = 0066;
},
{
glyphname = g;
lastChange = "2019-05-13 18:39:24 +0000";
layers = (
{
background = {
paths = (
{
closed = 1;
nodes = (
"388 330 LINE",
"330 330 OFFCURVE",
"260 292 OFFCURVE",
"260 216 CURVE SMOOTH",
"260 158 OFFCURVE",
"302 110 OFFCURVE",
"438 110 CURVE SMOOTH",
"808 110 LINE SMOOTH",
"986 110 OFFCURVE",
"1098 24 OFFCURVE",
"1098 -112 CURVE SMOOTH",
"1098 -304 OFFCURVE",
"888 -492 OFFCURVE",
"540 -492 CURVE SMOOTH",
"246 -492 OFFCURVE",
"56 -362 OFFCURVE",
"56 -194 CURVE SMOOTH",
"56 -36 OFFCURVE",
"204 54 OFFCURVE",
"362 54 CURVE",
"362 54 OFFCURVE",
"436 -10 OFFCURVE",
"436 -10 CURVE",
"304 -10 OFFCURVE",
"212 -70 OFFCURVE",
"212 -176 CURVE SMOOTH",
"212 -280 OFFCURVE",
"326 -366 OFFCURVE",
"540 -366 CURVE SMOOTH",
"780 -366 OFFCURVE",
"942 -250 OFFCURVE",
"942 -122 CURVE SMOOTH",
"942 -62 OFFCURVE",
"898 -10 OFFCURVE",
"808 -10 CURVE SMOOTH",
"436 -10 LINE SMOOTH",
"228 -10 OFFCURVE",
"122 94 OFFCURVE",
"122 206 CURVE SMOOTH",
"122 324 OFFCURVE",
"234 390 OFFCURVE",
"342 390 CURVE"
);
},
{
closed = 1;
nodes = (
"782 980 OFFCURVE",
"954 842 OFFCURVE",
"954 632 CURVE SMOOTH",
"954 422 OFFCURVE",
"782 280 OFFCURVE",
"566 280 CURVE SMOOTH",
"348 280 OFFCURVE",
"178 422 OFFCURVE",
"178 632 CURVE SMOOTH",
"178 842 OFFCURVE",
"348 980 OFFCURVE",
"566 980 CURVE SMOOTH"
);
},
{
closed = 1;
nodes = (
"422 866 OFFCURVE",
"334 770 OFFCURVE",
"334 632 CURVE SMOOTH",
"334 494 OFFCURVE",
"424 394 OFFCURVE",
"568 394 CURVE SMOOTH",
"712 394 OFFCURVE",
"800 496 OFFCURVE",
"800 632 CURVE SMOOTH",
"800 770 OFFCURVE",
"712 866 OFFCURVE",
"568 866 CURVE SMOOTH"
);
},
{
closed = 1;
nodes = (
"808 860 LINE",
"808 1028 OFFCURVE",
"912 1142 OFFCURVE",
"1082 1142 CURVE",
"1068 986 LINE",
"950 986 OFFCURVE",
"884 938 OFFCURVE",
"884 828 CURVE"
);
}
);
};
layerId = UUID0;
paths = (
{
closed = 1;
nodes = (
"752 -492 OFFCURVE",
"960 -304 OFFCURVE",
"978 -112 CURVE SMOOTH",
"990 24 OFFCURVE",
"896 104 OFFCURVE",
"736 104 CURVE SMOOTH",
"402 104 LINE SMOOTH",
"280 104 OFFCURVE",
"246 148 OFFCURVE",
"254 210 CURVE",
"258 276 OFFCURVE",
"308 316 OFFCURVE",
"358 326 CURVE",
"406 296 OFFCURVE",
"466 280 OFFCURVE",
"534 280 CURVE SMOOTH",
"728 280 OFFCURVE",
"898 422 OFFCURVE",
"918 632 CURVE SMOOTH",
"926 714 OFFCURVE",
"908 784 OFFCURVE",
"874 840 CURVE",
"888 942 OFFCURVE",
"950 986 OFFCURVE",
"1052 986 CURVE",
"1082 1142 LINE",
"942 1142 OFFCURVE",
"844 1048 OFFCURVE",
"814 908 CURVE",
"760 954 OFFCURVE",
"686 980 OFFCURVE",
"602 980 CURVE SMOOTH",
"404 980 OFFCURVE",
"240 842 OFFCURVE",
"220 632 CURVE SMOOTH",
"210 528 OFFCURVE",
"238 442 OFFCURVE",
"292 380 CURVE",
"206 358 OFFCURVE",
"136 294 OFFCURVE",
"128 200 CURVE",
"120 130 OFFCURVE",
"154 68 OFFCURVE",
"220 30 CURVE",
"116 2 OFFCURVE",
"40 -72 OFFCURVE",
"32 -186 CURVE SMOOTH",
"16 -356 OFFCURVE",
"174 -492 OFFCURVE",
"440 -492 CURVE SMOOTH"
);
},
{
closed = 1;
nodes = (
"258 -366 OFFCURVE",
"164 -282 OFFCURVE",
"172 -180 CURVE SMOOTH",
"184 -80 OFFCURVE",
"254 -14 OFFCURVE",
"376 -10 CURVE SMOOTH",
"390 -10 LINE",
"726 -10 LINE SMOOTH",
"806 -10 OFFCURVE",
"840 -62 OFFCURVE",
"836 -122 CURVE SMOOTH",
"822 -250 OFFCURVE",
"666 -366 OFFCURVE",
"450 -366 CURVE SMOOTH"
);
},
{
closed = 1;
nodes = (
"418 394 OFFCURVE",
"346 494 OFFCURVE",
"360 632 CURVE SMOOTH",
"372 770 OFFCURVE",
"460 866 OFFCURVE",
"592 866 CURVE SMOOTH",
"722 866 OFFCURVE",
"792 770 OFFCURVE",
"780 632 CURVE SMOOTH",
"766 496 OFFCURVE",
"676 394 OFFCURVE",
"548 394 CURVE SMOOTH"
);
}
);
width = 1016;
},
{
background = {
paths = (
{
closed = 1;
nodes = (
"388 330 LINE",
"330 330 OFFCURVE",
"260 292 OFFCURVE",
"260 216 CURVE SMOOTH",
"260 158 OFFCURVE",
"302 110 OFFCURVE",
"438 110 CURVE SMOOTH",
"808 110 LINE SMOOTH",
"986 110 OFFCURVE",
"1098 24 OFFCURVE",
"1098 -112 CURVE SMOOTH",
"1098 -304 OFFCURVE",
"888 -492 OFFCURVE",
"540 -492 CURVE SMOOTH",
"246 -492 OFFCURVE",
"56 -362 OFFCURVE",
"56 -194 CURVE SMOOTH",
"56 -36 OFFCURVE",
"204 54 OFFCURVE",
"362 54 CURVE",
"362 54 OFFCURVE",
"436 -10 OFFCURVE",
"436 -10 CURVE",
"304 -10 OFFCURVE",
"212 -70 OFFCURVE",
"212 -176 CURVE SMOOTH",
"212 -280 OFFCURVE",
"326 -366 OFFCURVE",
"540 -366 CURVE SMOOTH",
"780 -366 OFFCURVE",
"942 -250 OFFCURVE",
"942 -122 CURVE SMOOTH",
"942 -62 OFFCURVE",
"898 -10 OFFCURVE",
"808 -10 CURVE SMOOTH",
"436 -10 LINE SMOOTH",
"228 -10 OFFCURVE",
"122 94 OFFCURVE",
"122 206 CURVE SMOOTH",
"122 324 OFFCURVE",
"234 390 OFFCURVE",
"342 390 CURVE"
);
},
{
closed = 1;
nodes = (
"782 980 OFFCURVE",
"954 842 OFFCURVE",
"954 632 CURVE SMOOTH",
"954 422 OFFCURVE",
"782 280 OFFCURVE",
"566 280 CURVE SMOOTH",
"348 280 OFFCURVE",
"178 422 OFFCURVE",
"178 632 CURVE SMOOTH",
"178 842 OFFCURVE",
"348 980 OFFCURVE",
"566 980 CURVE SMOOTH"
);
},
{
closed = 1;
nodes = (
"422 866 OFFCURVE",
"334 770 OFFCURVE",
"334 632 CURVE SMOOTH",
"334 494 OFFCURVE",
"424 394 OFFCURVE",
"568 394 CURVE SMOOTH",
"712 394 OFFCURVE",
"800 496 OFFCURVE",
"800 632 CURVE SMOOTH",
"800 770 OFFCURVE",
"712 866 OFFCURVE",
"568 866 CURVE SMOOTH"
);
},
{
closed = 1;
nodes = (
"808 860 LINE",
"808 1028 OFFCURVE",
"912 1142 OFFCURVE",
"1082 1142 CURVE",
"1068 986 LINE",
"950 986 OFFCURVE",
"884 938 OFFCURVE",
"884 828 CURVE"
);
}
);
};
layerId = UUID1;
paths = (
{
closed = 1;
nodes = (
"766 -502 OFFCURVE",
"982 -298 OFFCURVE",
"1002 -88 CURVE SMOOTH",
"1016 70 OFFCURVE",
"910 144 OFFCURVE",
"726 144 CURVE SMOOTH",
"432 144 LINE SMOOTH",
"332 144 OFFCURVE",
"298 180 OFFCURVE",
"304 234 CURVE",
"308 286 OFFCURVE",
"346 318 OFFCURVE",
"386 330 CURVE",
"432 310 OFFCURVE",
"484 300 OFFCURVE",
"542 300 CURVE SMOOTH",
"746 300 OFFCURVE",
"932 438 OFFCURVE",
"952 648 CURVE SMOOTH",
"960 728 OFFCURVE",
"940 798 OFFCURVE",
"904 854 CURVE",
"914 932 OFFCURVE",
"974 968 OFFCURVE",
"1074 968 CURVE",
"1106 1194 LINE",
"970 1194 OFFCURVE",
"846 1094 OFFCURVE",
"816 940 CURVE",
"758 976 OFFCURVE",
"686 998 OFFCURVE",
"608 998 CURVE SMOOTH",
"402 998 OFFCURVE",
"218 862 OFFCURVE",
"198 648 CURVE SMOOTH",
"188 544 OFFCURVE",
"220 460 OFFCURVE",
"280 398 CURVE",
"192 372 OFFCURVE",
"128 306 OFFCURVE",
"120 214 CURVE",
"114 142 OFFCURVE",
"148 80 OFFCURVE",
"210 36 CURVE",
"102 18 OFFCURVE",
"22 -56 OFFCURVE",
"8 -174 CURVE SMOOTH",
"-6 -348 OFFCURVE",
"154 -502 OFFCURVE",
"456 -502 CURVE SMOOTH"
);
},
{
closed = 1;
nodes = (
"306 -314 OFFCURVE",
"210 -254 OFFCURVE",
"220 -162 CURVE SMOOTH",
"228 -76 OFFCURVE",
"294 -26 OFFCURVE",
"402 -22 CURVE SMOOTH",
"416 -22 LINE",
"710 -22 LINE SMOOTH",
"766 -22 OFFCURVE",
"796 -56 OFFCURVE",
"790 -104 CURVE SMOOTH",
"780 -212 OFFCURVE",
"656 -314 OFFCURVE",
"474 -314 CURVE SMOOTH"
);
},
{
closed = 1;
nodes = (
"450 466 OFFCURVE",
"398 544 OFFCURVE",
"408 648 CURVE SMOOTH",
"418 760 OFFCURVE",
"484 834 OFFCURVE",
"592 834 CURVE SMOOTH",
"704 834 OFFCURVE",
"750 760 OFFCURVE",
"742 648 CURVE SMOOTH",
"730 544 OFFCURVE",
"670 466 OFFCURVE",
"560 466 CURVE SMOOTH"
);
}
);
width = 1048;
}
);
unicode = 0067;
},
{
glyphname = h;
lastChange = "2019-05-13 18:39:24 +0000";
layers = (
{
layerId = UUID0;
paths = (
{
closed = 1;
nodes = (
"324 0 LINE",
"366 452 LINE",
"366 452 OFFCURVE",
"366 452 OFFCURVE",
"366 452 CURVE",
"388 694 OFFCURVE",
"498 840 OFFCURVE",
"654 840 CURVE SMOOTH",
"788 840 OFFCURVE",
"864 744 OFFCURVE",
"846 562 CURVE SMOOTH",
"794 0 LINE",
"934 0 LINE",
"986 562 LINE SMOOTH",
"1012 820 OFFCURVE",
"906 980 OFFCURVE",
"702 980 CURVE SMOOTH",
"568 980 OFFCURVE",
"464 908 OFFCURVE",
"396 780 CURVE",
"452 1362 LINE",
"310 1362 LINE",
"182 0 LINE"
);
}
);
width = 1088;
},
{
layerId = UUID1;
paths = (
{
closed = 1;
nodes = (
"380 0 LINE",
"426 482 LINE",
"426 484 OFFCURVE",
"426 484 OFFCURVE",
"426 486 CURVE",
"456 686 OFFCURVE",
"554 786 OFFCURVE",
"672 786 CURVE SMOOTH",
"772 786 OFFCURVE",
"834 712 OFFCURVE",
"818 568 CURVE SMOOTH",
"766 0 LINE",
"980 0 LINE",
"1032 568 LINE SMOOTH",
"1056 826 OFFCURVE",
"962 998 OFFCURVE",
"746 998 CURVE SMOOTH",
"628 998 OFFCURVE",
"528 938 OFFCURVE",
"456 816 CURVE",
"510 1372 LINE",
"296 1372 LINE",
"168 0 LINE"
);
}
);
width = 1122;
}
);
unicode = 0068;
},
{
glyphname = i;
lastChange = "2019-05-13 18:39:24 +0000";
layers = (
{
layerId = UUID0;
paths = (
{
closed = 1;
nodes = (
"332 0 LINE",
"422 958 LINE",
"280 958 LINE",
"190 0 LINE"
);
},
{
closed = 1;
nodes = (
"430 1182 OFFCURVE",
"472 1222 OFFCURVE",
"476 1280 CURVE SMOOTH",
"482 1340 OFFCURVE",
"448 1380 OFFCURVE",
"392 1380 CURVE SMOOTH",
"332 1380 OFFCURVE",
"296 1340 OFFCURVE",
"290 1280 CURVE SMOOTH",
"284 1222 OFFCURVE",
"314 1182 OFFCURVE",
"374 1182 CURVE SMOOTH"
);
}
);
width = 538;
},
{
layerId = UUID1;
paths = (
{
closed = 1;
nodes = (
"398 0 LINE",
"490 974 LINE",
"278 974 LINE",
"186 0 LINE"
);
},
{
closed = 1;
nodes = (
"480 1148 OFFCURVE",
"536 1200 OFFCURVE",
"544 1286 CURVE SMOOTH",
"550 1370 OFFCURVE",
"506 1424 OFFCURVE",
"424 1424 CURVE SMOOTH",
"342 1424 OFFCURVE",
"288 1370 OFFCURVE",
"280 1286 CURVE SMOOTH",
"274 1200 OFFCURVE",
"316 1148 OFFCURVE",
"400 1148 CURVE SMOOTH"
);
}
);
width = 590;
}
);
unicode = 0069;
},
{
glyphname = j;
lastChange = "2019-05-13 18:39:24 +0000";
layers = (
{
background = {
paths = (
{
closed = 1;
nodes = (
"184 1006 OFFCURVE",
"216 972 OFFCURVE",
"270 972 CURVE SMOOTH",
"322 972 OFFCURVE",
"356 1006 OFFCURVE",
"356 1054 CURVE SMOOTH",
"356 1102 OFFCURVE",
"322 1136 OFFCURVE",
"270 1136 CURVE SMOOTH",
"216 1136 OFFCURVE",
"184 1102 OFFCURVE",
"184 1054 CURVE SMOOTH"
);
}
);
};
layerId = UUID0;
paths = (
{
closed = 1;
nodes = (
"202 -492 OFFCURVE",
"322 -390 OFFCURVE",
"346 -134 CURVE SMOOTH",
"450 960 LINE",
"308 960 LINE",
"204 -134 LINE",
"188 -286 OFFCURVE",
"128 -354 OFFCURVE",
"26 -354 CURVE SMOOTH",
"-46 -354 OFFCURVE",
"-108 -326 OFFCURVE",
"-172 -280 CURVE",
"-192 -418 LINE",
"-116 -466 OFFCURVE",
"-42 -492 OFFCURVE",
"40 -492 CURVE SMOOTH"
);
},
{
closed = 1;
nodes = (
"458 1182 OFFCURVE",
"498 1222 OFFCURVE",
"504 1280 CURVE SMOOTH",
"510 1340 OFFCURVE",
"476 1380 OFFCURVE",
"418 1380 CURVE SMOOTH",
"360 1380 OFFCURVE",
"322 1340 OFFCURVE",
"316 1280 CURVE SMOOTH",
"312 1222 OFFCURVE",
"342 1182 OFFCURVE",
"400 1182 CURVE SMOOTH"
);
}
);
width = 566;
},
{
background = {
paths = (
{
closed = 1;
nodes = (
"184 1006 OFFCURVE",
"216 972 OFFCURVE",
"270 972 CURVE SMOOTH",
"322 972 OFFCURVE",
"356 1006 OFFCURVE",
"356 1054 CURVE SMOOTH",
"356 1102 OFFCURVE",
"322 1136 OFFCURVE",
"270 1136 CURVE SMOOTH",
"216 1136 OFFCURVE",
"184 1102 OFFCURVE",
"184 1054 CURVE SMOOTH"
);
}
);
};
layerId = UUID1;
paths = (
{
closed = 1;
nodes = (
"252 -502 OFFCURVE",
"372 -394 OFFCURVE",
"398 -116 CURVE SMOOTH",
"502 976 LINE",
"290 976 LINE",
"188 -112 LINE",
"174 -246 OFFCURVE",
"122 -296 OFFCURVE",
"34 -296 CURVE SMOOTH",
"-28 -296 OFFCURVE",
"-98 -270 OFFCURVE",
"-154 -236 CURVE",
"-178 -440 LINE",
"-100 -478 OFFCURVE",
"-26 -502 OFFCURVE",
"66 -502 CURVE SMOOTH"
);
},
{
closed = 1;
nodes = (
"494 1148 OFFCURVE",
"548 1200 OFFCURVE",
"554 1286 CURVE SMOOTH",
"562 1370 OFFCURVE",
"518 1424 OFFCURVE",
"436 1424 CURVE SMOOTH",
"354 1424 OFFCURVE",
"298 1370 OFFCURVE",
"292 1286 CURVE SMOOTH",
"284 1200 OFFCURVE",
"330 1148 OFFCURVE",
"410 1148 CURVE SMOOTH"
);
}
);
width = 602;
}
);
unicode = 006A;
},
{
glyphname = k;
lastChange = "2019-05-13 18:39:24 +0000";
layers = (
{
background = {
paths = (
{
closed = 1;
nodes = (
"166 1122 LINE",
"166 0 LINE",
"296 0 LINE",
"296 1122 LINE"
);
},
{
closed = 1;
nodes = (
"290 386 LINE",
"496 372 OFFCURVE",
"584 284 OFFCURVE",
"626 116 CURVE SMOOTH",
"662 0 LINE",
"796 0 LINE",
"760 116 LINE SMOOTH",
"706 344 OFFCURVE",
"594 424 OFFCURVE",
"394 442 CURVE",
"568 474 OFFCURVE",
"710 580 OFFCURVE",
"792 788 CURVE",
"648 788 LINE",
"564 598 OFFCURVE",
"438 512 OFFCURVE",
"290 480 CURVE"
);
},
{
closed = 1;
nodes = (
"520 528 OFFCURVE",
"534 514 OFFCURVE",
"550 514 CURVE SMOOTH",
"566 514 OFFCURVE",
"580 528 OFFCURVE",
"580 544 CURVE SMOOTH",
"580 560 OFFCURVE",
"566 574 OFFCURVE",
"550 574 CURVE SMOOTH",
"534 574 OFFCURVE",
"520 560 OFFCURVE",
"520 544 CURVE SMOOTH"
);
},
{
closed = 1;
nodes = (
"230 298 OFFCURVE",
"244 284 OFFCURVE",
"260 284 CURVE SMOOTH",
"276 284 OFFCURVE",
"290 298 OFFCURVE",
"290 314 CURVE SMOOTH",
"290 330 OFFCURVE",
"276 344 OFFCURVE",
"260 344 CURVE SMOOTH",
"244 344 OFFCURVE",
"230 330 OFFCURVE",
"230 314 CURVE SMOOTH"
);
}
);
};
layerId = UUID0;
paths = (
{
closed = 1;
nodes = (
"958 0 LINE",
"598 598 LINE",
"1028 956 LINE",
"830 956 LINE",
"378 572 LINE",
"452 1362 LINE",
"310 1362 LINE",
"182 0 LINE",
"324 0 LINE",
"362 402 LINE",
"486 506 LINE",
"782 0 LINE"
);
}
);
width = 1016;
},
{
background = {
paths = (
{
closed = 1;
nodes = (
"166 1122 LINE",
"166 0 LINE",
"296 0 LINE",
"296 1122 LINE"
);
},
{
closed = 1;
nodes = (
"290 386 LINE",
"496 372 OFFCURVE",
"584 284 OFFCURVE",
"626 116 CURVE SMOOTH",
"662 0 LINE",
"796 0 LINE",
"760 116 LINE SMOOTH",
"706 344 OFFCURVE",
"594 424 OFFCURVE",
"394 442 CURVE",
"568 474 OFFCURVE",
"710 580 OFFCURVE",
"792 788 CURVE",
"648 788 LINE",
"564 598 OFFCURVE",
"438 512 OFFCURVE",
"290 480 CURVE"
);
},
{
closed = 1;
nodes = (
"520 528 OFFCURVE",
"534 514 OFFCURVE",
"550 514 CURVE SMOOTH",
"566 514 OFFCURVE",
"580 528 OFFCURVE",
"580 544 CURVE SMOOTH",
"580 560 OFFCURVE",
"566 574 OFFCURVE",
"550 574 CURVE SMOOTH",
"534 574 OFFCURVE",
"520 560 OFFCURVE",
"520 544 CURVE SMOOTH"
);
},
{
closed = 1;
nodes = (
"230 298 OFFCURVE",
"244 284 OFFCURVE",
"260 284 CURVE SMOOTH",
"276 284 OFFCURVE",
"290 298 OFFCURVE",
"290 314 CURVE SMOOTH",
"290 330 OFFCURVE",
"276 344 OFFCURVE",
"260 344 CURVE SMOOTH",
"244 344 OFFCURVE",
"230 330 OFFCURVE",
"230 314 CURVE SMOOTH"
);
}
);
};
layerId = UUID1;
paths = (
{
closed = 1;
nodes = (
"1034 0 LINE",
"684 612 LINE",
"1106 972 LINE",
"818 972 LINE",
"440 632 LINE",
"510 1372 LINE",
"296 1372 LINE",
"168 0 LINE",
"380 0 LINE",
"416 386 LINE",
"520 474 LINE",
"776 0 LINE"
);
}
);
width = 1034;
}
);
unicode = 006B;
},
{
glyphname = l;
lastChange = "2019-05-13 18:39:24 +0000";
layers = (
{
background = {
paths = (
{
closed = 1;
nodes = (
"172 0 LINE",
"290 0 LINE",
"290 1178 LINE",
"172 1178 LINE"
);
}
);
};
layerId = UUID0;
paths = (
{
closed = 1;
nodes = (
"324 0 LINE",
"452 1362 LINE",
"310 1362 LINE",
"182 0 LINE"
);
}
);
width = 504;
},
{
background = {
paths = (
{
closed = 1;
nodes = (
"172 0 LINE",
"290 0 LINE",
"290 1178 LINE",
"172 1178 LINE"
);
}
);
};
layerId = UUID1;
paths = (
{
closed = 1;
nodes = (
"380 0 LINE",
"510 1372 LINE",
"296 1372 LINE",
"168 0 LINE"
);
}
);
width = 548;
}
);
unicode = 006C;
},
{
glyphname = m;
lastChange = "2019-05-13 18:39:24 +0000";
layers = (
{
layerId = UUID0;
paths = (
{
closed = 1;
nodes = (
"322 0 LINE",
"364 452 LINE SMOOTH",
"386 694 OFFCURVE",
"496 840 OFFCURVE",
"652 840 CURVE SMOOTH",
"786 840 OFFCURVE",
"862 744 OFFCURVE",
"844 562 CURVE SMOOTH",
"792 0 LINE",
"932 0 LINE",
"974 464 LINE",
"1000 698 OFFCURVE",
"1092 840 OFFCURVE",
"1250 840 CURVE SMOOTH",
"1384 840 OFFCURVE",
"1460 744 OFFCURVE",
"1442 562 CURVE SMOOTH",
"1390 0 LINE",
"1530 0 LINE",
"1582 562 LINE",
"1608 820 OFFCURVE",
"1502 980 OFFCURVE",
"1298 980 CURVE SMOOTH",
"1154 980 OFFCURVE",
"1044 904 OFFCURVE",
"976 750 CURVE",
"944 894 OFFCURVE",
"848 980 OFFCURVE",
"700 980 CURVE SMOOTH",
"564 980 OFFCURVE",
"458 906 OFFCURVE",
"390 770 CURVE",
"390 832 OFFCURVE",
"392 894 OFFCURVE",
"392 956 CURVE",
"270 956 LINE",
"180 0 LINE"
);
}
);
width = 1682;
},
{
layerId = UUID1;
paths = (
{
closed = 1;
nodes = (
"380 0 LINE",
"420 434 LINE SMOOTH",
"442 668 OFFCURVE",
"544 786 OFFCURVE",
"672 786 CURVE SMOOTH",
"772 786 OFFCURVE",
"834 712 OFFCURVE",
"818 568 CURVE SMOOTH",
"766 0 LINE",
"980 0 LINE",
"1020 440 LINE",
"1040 672 OFFCURVE",
"1130 786 OFFCURVE",
"1258 786 CURVE SMOOTH",
"1358 786 OFFCURVE",
"1418 712 OFFCURVE",
"1406 568 CURVE SMOOTH",
"1354 0 LINE",
"1568 0 LINE",
"1620 568 LINE",
"1644 826 OFFCURVE",
"1552 998 OFFCURVE",
"1336 998 CURVE SMOOTH",
"1204 998 OFFCURVE",
"1092 936 OFFCURVE",
"1018 788 CURVE",
"982 918 OFFCURVE",
"892 998 OFFCURVE",
"746 998 CURVE SMOOTH",
"624 998 OFFCURVE",
"522 934 OFFCURVE",
"450 806 CURVE",
"448 862 OFFCURVE",
"446 916 OFFCURVE",
"444 972 CURVE",
"260 972 LINE",
"168 0 LINE"
);
}
);
width = 1708;
}
);
unicode = 006D;
},
{
glyphname = n;
lastChange = "2019-05-13 18:39:24 +0000";
layers = (
{
anchors = (
{
name = above;
position = "{548, 1014}";
}
);
layerId = UUID0;
paths = (
{
closed = 1;
nodes = (
"322 0 LINE",
"364 452 LINE SMOOTH",
"386 694 OFFCURVE",
"496 840 OFFCURVE",
"652 840 CURVE SMOOTH",
"786 840 OFFCURVE",
"862 744 OFFCURVE",
"844 562 CURVE SMOOTH",
"792 0 LINE",
"932 0 LINE",
"984 562 LINE",
"1010 820 OFFCURVE",
"904 980 OFFCURVE",
"700 980 CURVE SMOOTH",
"564 980 OFFCURVE",
"458 906 OFFCURVE",
"390 770 CURVE",
"392 956 LINE",
"270 956 LINE",
"180 0 LINE"
);
}
);
width = 1086;
},
{
anchors = (
{
name = above;
position = "{548, 1014}";
}
);
layerId = UUID1;
paths = (
{
closed = 1;
nodes = (
"380 0 LINE",
"420 434 LINE SMOOTH",
"442 668 OFFCURVE",
"544 786 OFFCURVE",
"672 786 CURVE SMOOTH",
"772 786 OFFCURVE",
"834 712 OFFCURVE",
"818 568 CURVE SMOOTH",
"766 0 LINE",
"980 0 LINE",
"1032 568 LINE",
"1056 826 OFFCURVE",
"962 998 OFFCURVE",
"746 998 CURVE SMOOTH",
"624 998 OFFCURVE",
"522 934 OFFCURVE",
"450 806 CURVE",
"444 972 LINE",
"260 972 LINE",
"168 0 LINE"
);
}
);
width = 1122;
}
);
unicode = 006E;
},
{
glyphname = o;
lastChange = "2019-05-13 18:39:24 +0000";
layers = (
{
anchors = (
{
name = above;
position = "{492, 1014}";
}
);
layerId = UUID0;
paths = (
{
closed = 1;
nodes = (
"720 -22 OFFCURVE",
"906 150 OFFCURVE",
"938 478 CURVE SMOOTH",
"968 808 OFFCURVE",
"816 980 OFFCURVE",
"584 980 CURVE SMOOTH",
"350 980 OFFCURVE",
"166 808 OFFCURVE",
"134 478 CURVE SMOOTH",
"102 150 OFFCURVE",
"256 -22 OFFCURVE",
"488 -22 CURVE SMOOTH"
);
},
{
closed = 1;
nodes = (
"330 114 OFFCURVE",
"260 252 OFFCURVE",
"280 478 CURVE SMOOTH",
"302 706 OFFCURVE",
"406 844 OFFCURVE",
"574 844 CURVE SMOOTH",
"740 844 OFFCURVE",
"816 706 OFFCURVE",
"794 478 CURVE SMOOTH",
"772 252 OFFCURVE",
"662 114 OFFCURVE",
"496 114 CURVE SMOOTH"
);
}
);
width = 982;
},
{
anchors = (
{
name = above;
position = "{492, 1014}";
}
);
layerId = UUID1;
paths = (
{
closed = 1;
nodes = (
"744 -28 OFFCURVE",
"946 142 OFFCURVE",
"980 484 CURVE SMOOTH",
"1012 832 OFFCURVE",
"840 998 OFFCURVE",
"604 998 CURVE SMOOTH",
"366 998 OFFCURVE",
"162 832 OFFCURVE",
"130 484 CURVE SMOOTH",
"98 142 OFFCURVE",
"268 -28 OFFCURVE",
"508 -28 CURVE SMOOTH"
);
},
{
closed = 1;
nodes = (
"394 178 OFFCURVE",
"324 282 OFFCURVE",
"344 484 CURVE SMOOTH",
"364 690 OFFCURVE",
"464 794 OFFCURVE",
"592 794 CURVE SMOOTH",
"718 794 OFFCURVE",
"786 690 OFFCURVE",
"766 484 CURVE SMOOTH",
"746 282 OFFCURVE",
"646 178 OFFCURVE",
"520 178 CURVE SMOOTH"
);
}
);
width = 1018;
}
);
unicode = 006F;
},
{
glyphname = p;
lastChange = "2019-05-13 18:39:24 +0000";
layers = (
{
layerId = UUID0;
paths = (
{
closed = 1;
nodes = (
"278 -470 LINE",
"334 116 LINE",
"378 26 OFFCURVE",
"460 -22 OFFCURVE",
"568 -22 CURVE SMOOTH",
"774 -22 OFFCURVE",
"976 166 OFFCURVE",
"1006 480 CURVE SMOOTH",
"1034 792 OFFCURVE",
"870 980 OFFCURVE",
"670 980 CURVE SMOOTH",
"558 980 OFFCURVE",
"458 922 OFFCURVE",
"390 810 CURVE",
"390 858 OFFCURVE",
"388 908 OFFCURVE",
"388 956 CURVE",
"272 956 LINE",
"136 -470 LINE"
);
},
{
closed = 1;
nodes = (
"446 118 OFFCURVE",
"344 214 OFFCURVE",
"358 388 CURVE SMOOTH",
"374 556 LINE SMOOTH",
"394 742 OFFCURVE",
"512 840 OFFCURVE",
"638 840 CURVE SMOOTH",
"780 840 OFFCURVE",
"882 706 OFFCURVE",
"860 480 CURVE SMOOTH",
"836 242 OFFCURVE",
"698 118 OFFCURVE",
"566 118 CURVE SMOOTH"
);
}
);
width = 1070;
},
{
layerId = UUID1;
paths = (
{
closed = 1;
nodes = (
"334 -474 LINE",
"386 78 LINE",
"430 6 OFFCURVE",
"502 -28 OFFCURVE",
"602 -28 CURVE SMOOTH",
"816 -28 OFFCURVE",
"1028 162 OFFCURVE",
"1058 486 CURVE SMOOTH",
"1088 808 OFFCURVE",
"914 998 OFFCURVE",
"708 998 CURVE SMOOTH",
"604 998 OFFCURVE",
"508 948 OFFCURVE",
"442 840 CURVE",
"440 884 OFFCURVE",
"436 928 OFFCURVE",
"434 972 CURVE",
"260 972 LINE",
"122 -474 LINE"
);
},
{
closed = 1;
nodes = (
"472 186 OFFCURVE",
"404 264 OFFCURVE",
"416 392 CURVE SMOOTH",
"432 556 LINE SMOOTH",
"446 702 OFFCURVE",
"542 786 OFFCURVE",
"652 786 CURVE SMOOTH",
"780 786 OFFCURVE",
"862 672 OFFCURVE",
"844 486 CURVE SMOOTH",
"824 284 OFFCURVE",
"696 186 OFFCURVE",
"590 186 CURVE SMOOTH"
);
}
);
width = 1098;
}
);
unicode = 0070;
},
{
glyphname = q;
lastChange = "2019-05-13 18:39:24 +0000";
layers = (
{
background = {
paths = (
{
closed = 1;
nodes = (
"478 -18 OFFCURVE",
"518 136 OFFCURVE",
"518 394 CURVE SMOOTH",
"518 652 OFFCURVE",
"478 806 OFFCURVE",
"426 806 CURVE SMOOTH",
"366 806 OFFCURVE",
"330 686 OFFCURVE",
"330 458 CURVE",
"326 458 LINE",
"326 612 OFFCURVE",
"390 692 OFFCURVE",
"444 692 CURVE SMOOTH",
"502 692 OFFCURVE",
"562 582 OFFCURVE",
"562 394 CURVE SMOOTH",
"562 200 OFFCURVE",
"514 96 OFFCURVE",
"446 96 CURVE SMOOTH",
"386 96 OFFCURVE",
"326 176 OFFCURVE",
"326 320 CURVE",
"330 320 LINE",
"330 102 OFFCURVE",
"382 -18 OFFCURVE",
"430 -18 CURVE SMOOTH"
);
}
);
};
layerId = UUID0;
paths = (
{
closed = 1;
nodes = (
"964 -370 LINE",
"866 -332 OFFCURVE",
"840 -298 OFFCURVE",
"854 -162 CURVE SMOOTH",
"960 956 LINE",
"862 956 LINE",
"816 798 LINE",
"774 918 OFFCURVE",
"682 980 OFFCURVE",
"566 980 CURVE SMOOTH",
"368 980 OFFCURVE",
"166 792 OFFCURVE",
"136 480 CURVE SMOOTH",
"106 166 OFFCURVE",
"272 -22 OFFCURVE",
"476 -22 CURVE SMOOTH",
"594 -22 OFFCURVE",
"686 44 OFFCURVE",
"742 154 CURVE",
"714 -152 LINE",
"694 -346 OFFCURVE",
"744 -442 OFFCURVE",
"908 -492 CURVE"
);
},
{
closed = 1;
nodes = (
"376 118 OFFCURVE",
"260 242 OFFCURVE",
"282 480 CURVE SMOOTH",
"304 706 OFFCURVE",
"432 840 OFFCURVE",
"572 840 CURVE SMOOTH",
"686 840 OFFCURVE",
"786 752 OFFCURVE",
"784 586 CURVE",
"764 388 LINE SMOOTH",
"748 212 OFFCURVE",
"624 118 OFFCURVE",
"506 118 CURVE SMOOTH"
);
}
);
width = 1052;
},
{
background = {
paths = (
{
closed = 1;
nodes = (
"478 -18 OFFCURVE",
"518 136 OFFCURVE",
"518 394 CURVE SMOOTH",
"518 652 OFFCURVE",
"478 806 OFFCURVE",
"426 806 CURVE SMOOTH",
"366 806 OFFCURVE",
"330 686 OFFCURVE",
"330 458 CURVE",
"326 458 LINE",
"326 612 OFFCURVE",
"390 692 OFFCURVE",
"444 692 CURVE SMOOTH",
"502 692 OFFCURVE",
"562 582 OFFCURVE",
"562 394 CURVE SMOOTH",
"562 200 OFFCURVE",
"514 96 OFFCURVE",
"446 96 CURVE SMOOTH",
"386 96 OFFCURVE",
"326 176 OFFCURVE",
"326 320 CURVE",
"330 320 LINE",
"330 102 OFFCURVE",
"382 -18 OFFCURVE",
"430 -18 CURVE SMOOTH"
);
}
);
};
layerId = UUID1;
paths = (
{
closed = 1;
nodes = (
"1016 -330 LINE",
"928 -298 OFFCURVE",
"904 -268 OFFCURVE",
"916 -150 CURVE SMOOTH",
"1022 972 LINE",
"884 972 LINE",
"822 822 LINE",
"776 942 OFFCURVE",
"684 998 OFFCURVE",
"576 998 CURVE SMOOTH",
"370 998 OFFCURVE",
"160 808 OFFCURVE",
"130 486 CURVE SMOOTH",
"98 162 OFFCURVE",
"276 -28 OFFCURVE",
"490 -28 CURVE SMOOTH",
"602 -28 OFFCURVE",
"678 30 OFFCURVE",
"728 128 CURVE",
"704 -132 LINE",
"684 -338 OFFCURVE",
"748 -448 OFFCURVE",
"940 -502 CURVE"
);
},
{
closed = 1;
nodes = (
"432 186 OFFCURVE",
"324 284 OFFCURVE",
"344 486 CURVE SMOOTH",
"362 672 OFFCURVE",
"466 786 OFFCURVE",
"594 786 CURVE SMOOTH",
"702 786 OFFCURVE",
"782 702 OFFCURVE",
"768 556 CURVE",
"752 392 LINE SMOOTH",
"740 262 OFFCURVE",
"638 186 OFFCURVE",
"540 186 CURVE SMOOTH"
);
}
);
width = 1098;
}
);
unicode = 0071;
},
{
glyphname = r;
lastChange = "2019-05-13 18:39:24 +0000";
layers = (
{
layerId = UUID0;
paths = (
{
closed = 1;
nodes = (
"322 0 LINE",
"360 432 LINE SMOOTH",
"382 670 OFFCURVE",
"456 822 OFFCURVE",
"610 822 CURVE SMOOTH",
"642 822 OFFCURVE",
"682 814 OFFCURVE",
"718 802 CURVE",
"740 956 LINE",
"710 968 OFFCURVE",
"680 974 OFFCURVE",
"642 974 CURVE SMOOTH",
"536 974 OFFCURVE",
"452 908 OFFCURVE",
"394 776 CURVE",
"412 958 LINE",
"270 958 LINE",
"180 0 LINE"
);
}
);
width = 686;
},
{
layerId = UUID1;
paths = (
{
closed = 1;
nodes = (
"380 0 LINE",
"420 426 LINE SMOOTH",
"440 640 OFFCURVE",
"524 752 OFFCURVE",
"662 752 CURVE SMOOTH",
"692 752 OFFCURVE",
"728 748 OFFCURVE",
"760 740 CURVE",
"786 976 LINE",
"762 984 OFFCURVE",
"738 990 OFFCURVE",
"710 990 CURVE SMOOTH",
"610 990 OFFCURVE",
"518 922 OFFCURVE",
"454 782 CURVE",
"472 974 LINE",
"260 974 LINE",
"168 0 LINE"
);
}
);
width = 748;
}
);
unicode = 0072;
},
{
glyphname = s;
lastChange = "2019-05-13 18:39:24 +0000";
layers = (
{
layerId = UUID0;
paths = (
{
closed = 1;
nodes = (
"698 -22 OFFCURVE",
"846 112 OFFCURVE",
"860 256 CURVE SMOOTH",
"872 380 OFFCURVE",
"798 456 OFFCURVE",
"656 506 CURVE",
"490 570 LINE",
"388 604 OFFCURVE",
"348 648 OFFCURVE",
"352 718 CURVE",
"360 784 OFFCURVE",
"432 856 OFFCURVE",
"548 856 CURVE SMOOTH",
"670 856 OFFCURVE",
"732 812 OFFCURVE",
"736 726 CURVE",
"874 726 LINE",
"882 872 OFFCURVE",
"772 980 OFFCURVE",
"562 980 CURVE SMOOTH",
"362 980 OFFCURVE",
"220 878 OFFCURVE",
"204 722 CURVE SMOOTH",
"192 600 OFFCURVE",
"260 510 OFFCURVE",
"404 462 CURVE",
"566 400 LINE",
"670 368 OFFCURVE",
"712 330 OFFCURVE",
"706 256 CURVE",
"696 168 OFFCURVE",
"600 102 OFFCURVE",
"488 102 CURVE SMOOTH",
"348 102 OFFCURVE",
"264 164 OFFCURVE",
"270 282 CURVE",
"134 282 LINE",
"124 104 OFFCURVE",
"240 -22 OFFCURVE",
"488 -22 CURVE SMOOTH"
);
}
);
width = 946;
},
{
layerId = UUID1;
paths = (
{
closed = 1;
nodes = (
"708 -28 OFFCURVE",
"872 118 OFFCURVE",
"886 272 CURVE SMOOTH",
"896 396 OFFCURVE",
"826 472 OFFCURVE",
"696 522 CURVE",
"496 608 LINE",
"426 632 OFFCURVE",
"396 664 OFFCURVE",
"402 712 CURVE",
"406 766 OFFCURVE",
"466 814 OFFCURVE",
"554 814 CURVE SMOOTH",
"652 814 OFFCURVE",
"698 774 OFFCURVE",
"698 710 CURVE",
"898 710 LINE",
"910 876 OFFCURVE",
"796 998 OFFCURVE",
"572 998 CURVE SMOOTH",
"348 998 OFFCURVE",
"192 888 OFFCURVE",
"178 724 CURVE SMOOTH",
"166 600 OFFCURVE",
"232 510 OFFCURVE",
"364 456 CURVE",
"548 380 LINE",
"622 354 OFFCURVE",
"656 326 OFFCURVE",
"650 272 CURVE",
"642 208 OFFCURVE",
"574 158 OFFCURVE",
"482 158 CURVE SMOOTH",
"370 158 OFFCURVE",
"306 200 OFFCURVE",
"314 296 CURVE",
"116 296 LINE",
"98 92 OFFCURVE",
"238 -28 OFFCURVE",
"490 -28 CURVE SMOOTH"
);
}
);
width = 948;
}
);
unicode = 0073;
},
{
glyphname = t;
lastChange = "2019-05-13 18:39:24 +0000";
layers = (
{
background = {
paths = (
{
closed = 1;
nodes = (
"310 210 LINE",
"310 108 OFFCURVE",
"370 84 OFFCURVE",
"422 84 CURVE SMOOTH",
"454 84 OFFCURVE",
"486 92 OFFCURVE",
"520 106 CURVE",
"544 4 LINE",
"498 -12 OFFCURVE",
"450 -18 OFFCURVE",
"404 -18 CURVE SMOOTH",
"280 -18 OFFCURVE",
"182 52 OFFCURVE",
"182 208 CURVE"
);
}
);
};
layerId = UUID0;
paths = (
{
closed = 1;
nodes = (
"508 -22 OFFCURVE",
"568 -4 OFFCURVE",
"634 28 CURVE",
"624 140 LINE",
"566 116 OFFCURVE",
"520 104 OFFCURVE",
"472 104 CURVE SMOOTH",
"392 104 OFFCURVE",
"352 152 OFFCURVE",
"364 250 CURVE",
"418 836 LINE",
"688 836 LINE",
"700 956 LINE",
"430 956 LINE",
"456 1222 LINE",
"314 1222 LINE",
"288 956 LINE",
"152 956 LINE",
"138 836 LINE",
"278 836 LINE",
"224 248 LINE SMOOTH",
"206 64 OFFCURVE",
"302 -22 OFFCURVE",
"444 -22 CURVE SMOOTH"
);
}
);
width = 676;
},
{
background = {
paths = (
{
closed = 1;
nodes = (
"310 210 LINE",
"310 108 OFFCURVE",
"370 84 OFFCURVE",
"422 84 CURVE SMOOTH",
"454 84 OFFCURVE",
"486 92 OFFCURVE",
"520 106 CURVE",
"544 4 LINE",
"498 -12 OFFCURVE",
"450 -18 OFFCURVE",
"404 -18 CURVE SMOOTH",
"280 -18 OFFCURVE",
"182 52 OFFCURVE",
"182 208 CURVE"
);
}
);
};
layerId = UUID1;
paths = (
{
closed = 1;
nodes = (
"530 -28 OFFCURVE",
"592 -6 OFFCURVE",
"662 24 CURVE",
"646 190 LINE",
"590 168 OFFCURVE",
"550 158 OFFCURVE",
"510 158 CURVE SMOOTH",
"442 158 OFFCURVE",
"410 198 OFFCURVE",
"418 278 CURVE",
"468 814 LINE",
"706 814 LINE",
"722 972 LINE",
"484 972 LINE",
"508 1228 LINE",
"296 1228 LINE",
"272 972 LINE",
"150 972 LINE",
"134 814 LINE",
"256 814 LINE",
"206 270 LINE SMOOTH",
"186 66 OFFCURVE",
"304 -28 OFFCURVE",
"458 -28 CURVE SMOOTH"
);
}
);
width = 710;
}
);
unicode = 0074;
},
{
glyphname = u;
lastChange = "2019-05-13 18:39:24 +0000";
layers = (
{
anchors = (
{
name = above;
position = "{542, 1014}";
}
);
background = {
paths = (
{
closed = 1;
nodes = (
"710 828 LINE",
"710 0 LINE",
"828 0 LINE",
"828 828 LINE"
);
},
{
closed = 1;
nodes = (
"150 828 LINE",
"150 298 LINE SMOOTH",
"150 94 OFFCURVE",
"266 -14 OFFCURVE",
"444 -14 CURVE SMOOTH",
"636 -14 OFFCURVE",
"756 160 OFFCURVE",
"756 422 CURVE",
"710 422 LINE",
"710 234 OFFCURVE",
"612 94 OFFCURVE",
"454 94 CURVE SMOOTH",
"336 94 OFFCURVE",
"268 162 OFFCURVE",
"268 306 CURVE SMOOTH",
"268 828 LINE"
);
}
);
};
layerId = UUID0;
paths = (
{
closed = 1;
nodes = (
"606 -18 OFFCURVE",
"714 56 OFFCURVE",
"784 190 CURVE",
"766 0 LINE",
"908 0 LINE",
"998 958 LINE",
"856 958 LINE",
"812 492 LINE SMOOTH",
"792 276 OFFCURVE",
"672 120 OFFCURVE",
"512 120 CURVE SMOOTH",
"380 120 OFFCURVE",
"316 202 OFFCURVE",
"332 362 CURVE SMOOTH",
"388 958 LINE",
"246 958 LINE",
"188 350 LINE",
"166 100 OFFCURVE",
"284 -18 OFFCURVE",
"478 -18 CURVE SMOOTH"
);
}
);
width = 1090;
},
{
anchors = (
{
name = above;
position = "{542, 1014}";
}
);
background = {
paths = (
{
closed = 1;
nodes = (
"710 828 LINE",
"710 0 LINE",
"828 0 LINE",
"828 828 LINE"
);
},
{
closed = 1;
nodes = (
"150 828 LINE",
"150 298 LINE SMOOTH",
"150 94 OFFCURVE",
"266 -14 OFFCURVE",
"444 -14 CURVE SMOOTH",
"636 -14 OFFCURVE",
"756 160 OFFCURVE",
"756 422 CURVE",
"710 422 LINE",
"710 234 OFFCURVE",
"612 94 OFFCURVE",
"454 94 CURVE SMOOTH",
"336 94 OFFCURVE",
"268 162 OFFCURVE",
"268 306 CURVE SMOOTH",
"268 828 LINE"
);
}
);
};
layerId = UUID1;
paths = (
{
closed = 1;
nodes = (
"596 -18 OFFCURVE",
"696 44 OFFCURVE",
"764 174 CURVE",
"748 0 LINE",
"962 0 LINE",
"1052 974 LINE",
"840 974 LINE",
"796 510 LINE SMOOTH",
"776 298 OFFCURVE",
"662 188 OFFCURVE",
"536 188 CURVE SMOOTH",
"438 188 OFFCURVE",
"386 252 OFFCURVE",
"396 378 CURVE SMOOTH",
"454 974 LINE",
"242 974 LINE",
"182 354 LINE",
"156 86 OFFCURVE",
"294 -18 OFFCURVE",
"480 -18 CURVE SMOOTH"
);
}
);
width = 1128;
}
);
unicode = 0075;
},
{
glyphname = v;
lastChange = "2019-05-13 18:39:24 +0000";
layers = (
{
background = {
paths = (
{
closed = 1;
nodes = (
"382 0 LINE",
"504 788 LINE",
"564 788 LINE",
"410 112 LINE"
);
}
);
};
layerId = UUID0;
paths = (
{
closed = 1;
nodes = (
"374 0 LINE",
"530 0 LINE",
"962 956 LINE",
"802 956 LINE",
"468 166 LINE",
"282 956 LINE",
"122 956 LINE"
);
}
);
width = 906;
},
{
background = {
paths = (
{
closed = 1;
nodes = (
"382 0 LINE",
"504 788 LINE",
"564 788 LINE",
"410 112 LINE"
);
}
);
};
layerId = UUID1;
paths = (
{
closed = 1;
nodes = (
"348 0 LINE",
"586 0 LINE",
"1004 972 LINE",
"760 972 LINE",
"488 236 LINE",
"358 972 LINE",
"114 972 LINE"
);
}
);
width = 934;
}
);
unicode = 0076;
},
{
glyphname = w;
lastChange = "2019-05-13 18:39:24 +0000";
layers = (
{
background = {
paths = (
{
closed = 1;
nodes = (
"802 300 LINE",
"652 748 LINE",
"544 748 LINE",
"392 302 LINE",
"326 298 LINE",
"166 788 LINE",
"30 788 LINE",
"290 0 LINE",
"420 0 LINE",
"608 554 LINE",
"586 554 LINE",
"776 0 LINE",
"906 0 LINE",
"1164 788 LINE",
"1030 788 LINE",
"870 296 LINE"
);
}
);
};
layerId = UUID0;
paths = (
{
closed = 1;
nodes = (
"318 0 LINE",
"456 0 LINE",
"712 670 LINE",
"848 0 LINE",
"986 0 LINE",
"1358 956 LINE",
"1216 956 LINE",
"934 186 LINE",
"798 910 LINE",
"678 910 LINE",
"408 196 LINE",
"270 956 LINE",
"122 956 LINE"
);
}
);
width = 1304;
},
{
background = {
paths = (
{
closed = 1;
nodes = (
"802 300 LINE",
"652 748 LINE",
"544 748 LINE",
"392 302 LINE",
"326 298 LINE",
"166 788 LINE",
"30 788 LINE",
"290 0 LINE",
"420 0 LINE",
"608 554 LINE",
"586 554 LINE",
"776 0 LINE",
"906 0 LINE",
"1164 788 LINE",
"1030 788 LINE",
"870 296 LINE"
);
}
);
};
layerId = UUID1;
paths = (
{
closed = 1;
nodes = (
"312 0 LINE",
"522 0 LINE",
"734 582 LINE",
"842 0 LINE",
"1052 0 LINE",
"1430 972 LINE",
"1218 972 LINE",
"974 272 LINE",
"868 918 LINE",
"674 918 LINE",
"446 278 LINE",
"336 972 LINE",
"114 972 LINE"
);
}
);
width = 1364;
}
);
unicode = 0077;
},
{
glyphname = x;
lastChange = "2019-05-13 18:39:24 +0000";
layers = (
{
background = {
paths = (
{
closed = 1;
nodes = (
"784 0 LINE",
"640 0 LINE",
"410 322 LINE",
"190 0 LINE",
"46 0 LINE",
"342 414 LINE",
"46 828 LINE",
"190 828 LINE",
"420 506 LINE",
"642 828 LINE",
"786 828 LINE",
"486 414 LINE"
);
}
);
};
layerId = UUID0;
paths = (
{
closed = 1;
nodes = (
"220 0 LINE",
"488 362 LINE",
"700 0 LINE",
"872 0 LINE",
"590 478 LINE",
"964 958 LINE",
"792 958 LINE",
"522 598 LINE",
"310 958 LINE",
"136 958 LINE",
"418 478 LINE",
"46 0 LINE"
);
}
);
width = 922;
},
{
background = {
paths = (
{
closed = 1;
nodes = (
"784 0 LINE",
"640 0 LINE",
"410 322 LINE",
"190 0 LINE",
"46 0 LINE",
"342 414 LINE",
"46 828 LINE",
"190 828 LINE",
"420 506 LINE",
"642 828 LINE",
"786 828 LINE",
"486 414 LINE"
);
}
);
};
layerId = UUID1;
paths = (
{
closed = 1;
nodes = (
"290 0 LINE",
"520 312 LINE",
"708 0 LINE",
"966 0 LINE",
"674 484 LINE",
"1058 974 LINE",
"800 974 LINE",
"566 662 LINE",
"382 974 LINE",
"120 974 LINE",
"414 484 LINE",
"28 0 LINE"
);
}
);
width = 998;
}
);
unicode = 0078;
},
{
glyphname = y;
lastChange = "2019-05-13 18:39:24 +0000";
layers = (
{
layerId = UUID0;
paths = (
{
closed = 1;
nodes = (
"314 -492 OFFCURVE",
"412 -384 OFFCURVE",
"486 -190 CURVE SMOOTH",
"916 956 LINE",
"772 956 LINE",
"496 196 LINE",
"308 956 LINE",
"150 956 LINE",
"412 0 LINE",
"376 -98 LINE SMOOTH",
"332 -226 OFFCURVE",
"268 -354 OFFCURVE",
"160 -354 CURVE SMOOTH",
"96 -354 OFFCURVE",
"40 -332 OFFCURVE",
"-16 -278 CURVE",
"-30 -422 LINE",
"36 -468 OFFCURVE",
"100 -492 OFFCURVE",
"174 -492 CURVE SMOOTH"
);
}
);
width = 872;
},
{
layerId = UUID1;
paths = (
{
closed = 1;
nodes = (
"336 -502 OFFCURVE",
"442 -406 OFFCURVE",
"532 -176 CURVE SMOOTH",
"978 972 LINE",
"762 972 LINE",
"512 272 LINE",
"368 972 LINE",
"126 972 LINE",
"386 0 LINE",
"350 -94 LINE SMOOTH",
"304 -214 OFFCURVE",
"244 -296 OFFCURVE",
"160 -296 CURVE SMOOTH",
"98 -296 OFFCURVE",
"38 -276 OFFCURVE",
"-22 -230 CURVE",
"-42 -438 LINE",
"34 -482 OFFCURVE",
"110 -502 OFFCURVE",
"192 -502 CURVE SMOOTH"
);
}
);
width = 908;
}
);
unicode = 0079;
},
{
glyphname = z;
lastChange = "2019-05-13 18:39:24 +0000";
layers = (
{
layerId = UUID0;
paths = (
{
closed = 1;
nodes = (
"762 0 LINE",
"772 128 LINE",
"274 128 LINE",
"838 828 LINE",
"852 956 LINE",
"186 956 LINE",
"172 828 LINE",
"678 828 LINE",
"106 128 LINE",
"96 0 LINE"
);
}
);
width = 854;
},
{
layerId = UUID1;
paths = (
{
closed = 1;
nodes = (
"790 0 LINE",
"808 192 LINE",
"368 192 LINE",
"862 780 LINE",
"882 972 LINE",
"194 972 LINE",
"174 780 LINE",
"628 780 LINE",
"120 192 LINE",
"102 0 LINE"
);
}
);
width = 890;
}
);
unicode = 007A;
},
{
glyphname = A;
lastChange = "2019-05-13 18:39:24 +0000";
layers = (
{
anchors = (
{
name = above;
position = "{522, 1270}";
}
);
layerId = UUID0;
paths = (
{
closed = 1;
nodes = (
"196 0 LINE",
"324 320 LINE",
"774 320 LINE",
"840 0 LINE",
"988 0 LINE",
"728 1258 LINE",
"554 1258 LINE",
"46 0 LINE"
);
},
{
closed = 1;
nodes = (
"620 1066 LINE",
"748 444 LINE",
"372 444 LINE"
);
}
);
width = 1034;
},
{
anchors = (
{
name = above;
position = "{522, 1270}";
}
);
layerId = UUID1;
paths = (
{
closed = 1;
nodes = (
"264 0 LINE",
"374 280 LINE",
"806 280 LINE",
"862 0 LINE",
"1088 0 LINE",
"826 1298 LINE",
"560 1298 LINE",
"40 0 LINE"
);
},
{
closed = 1;
nodes = (
"662 1018 LINE",
"772 458 LINE",
"444 458 LINE"
);
}
);
width = 1126;
}
);
unicode = 0041;
},
{
glyphname = B;
lastChange = "2019-05-13 18:39:24 +0000";
layers = (
{
background = {
paths = (
{
closed = 1;
nodes = (
"178 0 LINE",
"526 0 LINE SMOOTH",
"756 0 OFFCURVE",
"854 118 OFFCURVE",
"854 260 CURVE SMOOTH",
"854 366 OFFCURVE",
"778 468 OFFCURVE",
"648 488 CURVE",
"776 518 OFFCURVE",
"830 602 OFFCURVE",
"830 726 CURVE SMOOTH",
"830 856 OFFCURVE",
"742 984 OFFCURVE",
"518 984 CURVE SMOOTH",
"178 984 LINE"
);
},
{
closed = 1;
nodes = (
"296 108 LINE",
"296 438 LINE",
"536 438 LINE",
"644 438 OFFCURVE",
"728 396 OFFCURVE",
"728 276 CURVE SMOOTH",
"728 146 OFFCURVE",
"626 108 OFFCURVE",
"524 108 CURVE SMOOTH"
);
},
{
closed = 1;
nodes = (
"296 876 LINE",
"520 876 LINE SMOOTH",
"642 876 OFFCURVE",
"716 826 OFFCURVE",
"716 716 CURVE SMOOTH",
"716 606 OFFCURVE",
"638 546 OFFCURVE",
"536 546 CURVE SMOOTH",
"296 546 LINE"
);
}
);
};
layerId = UUID0;
paths = (
{
closed = 1;
nodes = (
"606 0 LINE SMOOTH",
"902 0 OFFCURVE",
"1012 172 OFFCURVE",
"1028 344 CURVE SMOOTH",
"1040 482 OFFCURVE",
"956 608 OFFCURVE",
"820 632 CURVE",
"966 670 OFFCURVE",
"1050 786 OFFCURVE",
"1062 928 CURVE",
"1080 1106 OFFCURVE",
"974 1258 OFFCURVE",
"724 1258 CURVE SMOOTH",
"300 1258 LINE",
"182 0 LINE"
);
},
{
closed = 1;
nodes = (
"376 560 LINE",
"656 560 LINE SMOOTH",
"812 560 OFFCURVE",
"890 476 OFFCURVE",
"876 350 CURVE SMOOTH",
"864 224 OFFCURVE",
"788 138 OFFCURVE",
"616 138 CURVE SMOOTH",
"336 138 LINE"
);
},
{
closed = 1;
nodes = (
"706 1122 LINE SMOOTH",
"848 1122 OFFCURVE",
"926 1042 OFFCURVE",
"914 912 CURVE SMOOTH",
"902 776 OFFCURVE",
"804 696 OFFCURVE",
"666 696 CURVE SMOOTH",
"388 696 LINE",
"428 1122 LINE"
);
}
);
width = 1120;
},
{
background = {
paths = (
{
closed = 1;
nodes = (
"178 0 LINE",
"526 0 LINE SMOOTH",
"756 0 OFFCURVE",
"854 118 OFFCURVE",
"854 260 CURVE SMOOTH",
"854 366 OFFCURVE",
"778 468 OFFCURVE",
"648 488 CURVE",
"776 518 OFFCURVE",
"830 602 OFFCURVE",
"830 726 CURVE SMOOTH",
"830 856 OFFCURVE",
"742 984 OFFCURVE",
"518 984 CURVE SMOOTH",
"178 984 LINE"
);
},
{
closed = 1;
nodes = (
"296 108 LINE",
"296 438 LINE",
"536 438 LINE",
"644 438 OFFCURVE",
"728 396 OFFCURVE",
"728 276 CURVE SMOOTH",
"728 146 OFFCURVE",
"626 108 OFFCURVE",
"524 108 CURVE SMOOTH"
);
},
{
closed = 1;
nodes = (
"296 876 LINE",
"520 876 LINE SMOOTH",
"642 876 OFFCURVE",
"716 826 OFFCURVE",
"716 716 CURVE SMOOTH",
"716 606 OFFCURVE",
"638 546 OFFCURVE",
"536 546 CURVE SMOOTH",
"296 546 LINE"
);
}
);
};
layerId = UUID1;
paths = (
{
closed = 1;
nodes = (
"640 0 LINE SMOOTH",
"970 0 OFFCURVE",
"1078 196 OFFCURVE",
"1092 360 CURVE SMOOTH",
"1108 518 OFFCURVE",
"1020 626 OFFCURVE",
"892 656 CURVE",
"1028 698 OFFCURVE",
"1116 808 OFFCURVE",
"1130 954 CURVE",
"1148 1144 OFFCURVE",
"1032 1298 OFFCURVE",
"762 1298 CURVE SMOOTH",
"290 1298 LINE",
"168 0 LINE"
);
},
{
closed = 1;
nodes = (
"430 544 LINE",
"686 544 LINE SMOOTH",
"818 544 OFFCURVE",
"874 476 OFFCURVE",
"864 374 CURVE SMOOTH",
"854 272 OFFCURVE",
"788 206 OFFCURVE",
"654 206 CURVE SMOOTH",
"398 206 LINE"
);
},
{
closed = 1;
nodes = (
"734 1094 LINE SMOOTH",
"860 1094 OFFCURVE",
"918 1026 OFFCURVE",
"908 924 CURVE SMOOTH",
"898 816 OFFCURVE",
"826 750 OFFCURVE",
"700 750 CURVE SMOOTH",
"450 750 LINE",
"482 1094 LINE"
);
}
);
width = 1166;
}
);
unicode = 0042;
},
{
glyphname = C;
lastChange = "2019-05-13 18:39:24 +0000";
layers = (
{
background = {
paths = (
{
closed = 1;
nodes = (
"1648 992 LINE",
"1550 1030 OFFCURVE",
"1444 1052 OFFCURVE",
"1348 1052 CURVE SMOOTH",
"1060 1052 OFFCURVE",
"882 848 OFFCURVE",
"882 496 CURVE SMOOTH",
"882 214 OFFCURVE",
"1058 -18 OFFCURVE",
"1348 -18 CURVE SMOOTH",
"1456 -18 OFFCURVE",
"1554 16 OFFCURVE",
"1660 82 CURVE",
"1600 188 LINE",
"1508 132 OFFCURVE",
"1432 104 OFFCURVE",
"1348 104 CURVE SMOOTH",
"1156 104 OFFCURVE",
"1020 246 OFFCURVE",
"1020 496 CURVE SMOOTH",
"1020 788 OFFCURVE",
"1168 932 OFFCURVE",
"1352 932 CURVE SMOOTH",
"1426 932 OFFCURVE",
"1514 910 OFFCURVE",
"1594 882 CURVE"
);
}
);
};
layerId = UUID0;
paths = (
{
closed = 1;
nodes = (
"836 -22 OFFCURVE",
"1032 138 OFFCURVE",
"1056 408 CURVE",
"904 408 LINE",
"888 236 OFFCURVE",
"764 120 OFFCURVE",
"584 120 CURVE SMOOTH",
"364 120 OFFCURVE",
"276 336 OFFCURVE",
"304 636 CURVE SMOOTH",
"334 966 OFFCURVE",
"502 1138 OFFCURVE",
"680 1138 CURVE SMOOTH",
"816 1138 OFFCURVE",
"916 1038 OFFCURVE",
"948 882 CURVE",
"1106 916 LINE",
"1070 1132 OFFCURVE",
"936 1280 OFFCURVE",
"694 1280 CURVE SMOOTH",
"422 1280 OFFCURVE",
"190 1054 OFFCURVE",
"152 636 CURVE",
"114 244 OFFCURVE",
"270 -22 OFFCURVE",
"570 -22 CURVE SMOOTH"
);
}
);
width = 1104;
},
{
background = {
paths = (
{
closed = 1;
nodes = (
"1648 992 LINE",
"1550 1030 OFFCURVE",
"1444 1052 OFFCURVE",
"1348 1052 CURVE SMOOTH",
"1060 1052 OFFCURVE",
"882 848 OFFCURVE",
"882 496 CURVE SMOOTH",
"882 214 OFFCURVE",
"1058 -18 OFFCURVE",
"1348 -18 CURVE SMOOTH",
"1456 -18 OFFCURVE",
"1554 16 OFFCURVE",
"1660 82 CURVE",
"1600 188 LINE",
"1508 132 OFFCURVE",
"1432 104 OFFCURVE",
"1348 104 CURVE SMOOTH",
"1156 104 OFFCURVE",
"1020 246 OFFCURVE",
"1020 496 CURVE SMOOTH",
"1020 788 OFFCURVE",
"1168 932 OFFCURVE",
"1352 932 CURVE SMOOTH",
"1426 932 OFFCURVE",
"1514 910 OFFCURVE",
"1594 882 CURVE"
);
}
);
};
layerId = UUID1;
paths = (
{
closed = 1;
nodes = (
"878 -28 OFFCURVE",
"1072 138 OFFCURVE",
"1100 428 CURVE",
"872 428 LINE",
"858 288 OFFCURVE",
"760 188 OFFCURVE",
"608 188 CURVE SMOOTH",
"430 188 OFFCURVE",
"348 364 OFFCURVE",
"374 652 CURVE SMOOTH",
"404 958 OFFCURVE",
"542 1110 OFFCURVE",
"696 1110 CURVE SMOOTH",
"816 1110 OFFCURVE",
"890 1018 OFFCURVE",
"914 882 CURVE",
"1144 928 LINE",
"1124 1162 OFFCURVE",
"988 1324 OFFCURVE",
"716 1324 CURVE SMOOTH",
"422 1324 OFFCURVE",
"188 1092 OFFCURVE",
"146 652 CURVE",
"104 226 OFFCURVE",
"280 -28 OFFCURVE",
"588 -28 CURVE SMOOTH"
);
}
);
width = 1142;
}
);
unicode = 0043;
},
{
glyphname = D;
lastChange = "2019-05-13 18:39:24 +0000";
layers = (
{
layerId = UUID0;
paths = (
{
closed = 1;
nodes = (
"180 0 LINE",
"512 0 LINE SMOOTH",
"856 0 OFFCURVE",
"1100 248 OFFCURVE",
"1136 630 CURVE SMOOTH",
"1172 1010 OFFCURVE",
"976 1258 OFFCURVE",
"632 1258 CURVE SMOOTH",
"298 1258 LINE"
);
},
{
closed = 1;
nodes = (
"618 1118 LINE SMOOTH",
"872 1118 OFFCURVE",
"1010 912 OFFCURVE",
"984 630 CURVE SMOOTH",
"958 346 OFFCURVE",
"780 138 OFFCURVE",
"526 138 CURVE SMOOTH",
"334 138 LINE",
"426 1118 LINE"
);
}
);
width = 1190;
},
{
layerId = UUID1;
paths = (
{
closed = 1;
nodes = (
"166 0 LINE",
"546 0 LINE SMOOTH",
"902 0 OFFCURVE",
"1164 254 OFFCURVE",
"1202 648 CURVE SMOOTH",
"1238 1046 OFFCURVE",
"1024 1298 OFFCURVE",
"668 1298 CURVE SMOOTH",
"288 1298 LINE"
);
},
{
closed = 1;
nodes = (
"646 1084 LINE SMOOTH",
"872 1084 OFFCURVE",
"996 902 OFFCURVE",
"972 648 CURVE SMOOTH",
"946 398 OFFCURVE",
"792 214 OFFCURVE",
"566 214 CURVE SMOOTH",
"400 214 LINE",
"480 1084 LINE"
);
}
);
width = 1234;
}
);
unicode = 0044;
},
{
glyphname = E;
lastChange = "2019-05-13 18:39:24 +0000";
layers = (
{
anchors = (
{
name = above;
position = "{530, 1270}";
}
);
background = {
paths = (
{
closed = 1;
nodes = (
"162 0 LINE",
"754 0 LINE",
"754 108 LINE",
"278 108 LINE",
"278 444 LINE",
"724 444 LINE",
"724 550 LINE",
"278 550 LINE",
"278 876 LINE",
"754 876 LINE",
"754 984 LINE",
"162 984 LINE"
);
}
);
};
layerId = UUID0;
paths = (
{
closed = 1;
nodes = (
"876 0 LINE",
"890 138 LINE",
"334 138 LINE",
"374 566 LINE",
"896 566 LINE",
"908 700 LINE",
"386 700 LINE",
"426 1122 LINE",
"980 1122 LINE",
"996 1258 LINE",
"298 1258 LINE",
"180 0 LINE"
);
}
);
width = 1012;
},
{
anchors = (
{
name = above;
position = "{530, 1270}";
}
);
background = {
paths = (
{
closed = 1;
nodes = (
"162 0 LINE",
"754 0 LINE",
"754 108 LINE",
"278 108 LINE",
"278 444 LINE",
"724 444 LINE",
"724 550 LINE",
"278 550 LINE",
"278 876 LINE",
"754 876 LINE",
"754 984 LINE",
"162 984 LINE"
);
}
);
};
layerId = UUID1;
paths = (
{
closed = 1;
nodes = (
"918 0 LINE",
"936 206 LINE",
"396 206 LINE",
"428 548 LINE",
"934 548 LINE",
"954 752 LINE",
"448 752 LINE",
"480 1094 LINE",
"1020 1094 LINE",
"1040 1298 LINE",
"288 1298 LINE",
"166 0 LINE"
);
}
);
width = 1054;
}
);
unicode = 0045;
},
{
glyphname = F;
lastChange = "2019-05-13 18:39:24 +0000";
layers = (
{
background = {
paths = (
{
closed = 1;
nodes = (
"162 0 LINE",
"280 0 LINE",
"280 448 LINE",
"724 448 LINE",
"724 556 LINE",
"280 556 LINE",
"280 876 LINE",
"754 876 LINE",
"754 984 LINE",
"162 984 LINE"
);
}
);
};
layerId = UUID0;
paths = (
{
closed = 1;
nodes = (
"324 0 LINE",
"376 568 LINE",
"884 568 LINE",
"896 704 LINE",
"388 704 LINE",
"428 1122 LINE",
"974 1122 LINE",
"988 1258 LINE",
"300 1258 LINE",
"182 0 LINE"
);
}
);
width = 944;
},
{
background = {
paths = (
{
closed = 1;
nodes = (
"162 0 LINE",
"280 0 LINE",
"280 448 LINE",
"724 448 LINE",
"724 556 LINE",
"280 556 LINE",
"280 876 LINE",
"754 876 LINE",
"754 984 LINE",
"162 984 LINE"
);
}
);
};
layerId = UUID1;
paths = (
{
closed = 1;
nodes = (
"380 0 LINE",
"430 550 LINE",
"908 550 LINE",
"928 752 LINE",
"450 752 LINE",
"482 1094 LINE",
"1006 1094 LINE",
"1026 1298 LINE",
"290 1298 LINE",
"168 0 LINE"
);
}
);
width = 984;
}
);
unicode = 0046;
},
{
glyphname = G;
lastChange = "2019-05-13 21:06:53 +0000";
layers = (
{
layerId = UUID0;
paths = (
{
closed = 1;
nodes = (
"745 -22 OFFCURVE",
"854 79 OFFCURVE",
"914 251 CURVE",
"902 248 LINE",
"903 166 OFFCURVE",
"900 82 OFFCURVE",
"900 0 CURVE",
"1016 0 LINE",
"1072 622 LINE",
"650 622 LINE",
"640 518 LINE",
"969 504 LINE",
"914 584 LINE",
"923 540 OFFCURVE",
"923 501 OFFCURVE",
"922 490 CURVE SMOOTH",
"894 240 OFFCURVE",
"762 122 OFFCURVE",
"600 122 CURVE SMOOTH",
"386 122 OFFCURVE",
"274 326 OFFCURVE",
"300 614 CURVE SMOOTH",
"332 940 OFFCURVE",
"522 1136 OFFCURVE",
"724 1136 CURVE SMOOTH",
"826 1136 OFFCURVE",
"912 1084 OFFCURVE",
"982 974 CURVE",
"1124 1026 LINE",
"1046 1200 OFFCURVE",
"920 1278 OFFCURVE",
"744 1278 CURVE SMOOTH",
"458 1278 OFFCURVE",
"190 1048 OFFCURVE",
"150 614 CURVE SMOOTH",
"112 222 OFFCURVE",
"308 -22 OFFCURVE",
"576 -22 CURVE SMOOTH"
);
}
);
width = 1160;
},
{
layerId = UUID1;
paths = (
{
closed = 1;
nodes = (
"749 -28 OFFCURVE",
"857 73 OFFCURVE",
"917 245 CURVE",
"903 242 LINE",
"906 162 OFFCURVE",
"906 80 OFFCURVE",
"908 0 CURVE",
"1080 0 LINE",
"1142 668 LINE",
"676 668 LINE",
"662 516 LINE",
"969 509 LINE",
"925 574 LINE",
"925 533 OFFCURVE",
"925 508 OFFCURVE",
"922 486 CURVE SMOOTH",
"896 298 OFFCURVE",
"776 190 OFFCURVE",
"628 190 CURVE SMOOTH",
"450 190 OFFCURVE",
"346 370 OFFCURVE",
"372 642 CURVE SMOOTH",
"398 932 OFFCURVE",
"558 1110 OFFCURVE",
"730 1110 CURVE SMOOTH",
"832 1110 OFFCURVE",
"906 1050 OFFCURVE",
"956 940 CURVE",
"1178 996 LINE",
"1118 1222 OFFCURVE",
"980 1324 OFFCURVE",
"762 1324 CURVE SMOOTH",
"446 1324 OFFCURVE",
"186 1066 OFFCURVE",
"144 642 CURVE SMOOTH",
"106 240 OFFCURVE",
"304 -28 OFFCURVE",
"590 -28 CURVE SMOOTH"
);
}
);
width = 1218;
}
);
unicode = 0047;
},
{
glyphname = H;
lastChange = "2019-05-13 18:39:24 +0000";
layers = (
{
background = {
paths = (
{
closed = 1;
nodes = (
"162 984 LINE",
"162 0 LINE",
"280 0 LINE",
"280 448 LINE",
"750 448 LINE",
"750 0 LINE",
"868 0 LINE",
"868 984 LINE",
"750 984 LINE",
"750 556 LINE",
"280 556 LINE",
"280 984 LINE"
);
}
);
};
layerId = UUID0;
paths = (
{
closed = 1;
nodes = (
"324 0 LINE",
"376 568 LINE",
"932 568 LINE",
"880 0 LINE",
"1022 0 LINE",
"1142 1258 LINE",
"998 1258 LINE",
"944 704 LINE",
"388 704 LINE",
"442 1258 LINE",
"300 1258 LINE",
"182 0 LINE"
);
}
);
width = 1204;
},
{
background = {
paths = (
{
closed = 1;
nodes = (
"162 984 LINE",
"162 0 LINE",
"280 0 LINE",
"280 448 LINE",
"750 448 LINE",
"750 0 LINE",
"868 0 LINE",
"868 984 LINE",
"750 984 LINE",
"750 556 LINE",
"280 556 LINE",
"280 984 LINE"
);
}
);
};
layerId = UUID1;
paths = (
{
closed = 1;
nodes = (
"380 0 LINE",
"430 550 LINE",
"940 550 LINE",
"890 0 LINE",
"1102 0 LINE",
"1224 1298 LINE",
"1012 1298 LINE",
"960 756 LINE",
"450 756 LINE",
"502 1298 LINE",
"290 1298 LINE",
"168 0 LINE"
);
}
);
width = 1270;
}
);
unicode = 0048;
},
{
glyphname = I;
lastChange = "2019-05-13 18:39:24 +0000";
layers = (
{
anchors = (
{
name = above;
position = "{254, 1270}";
}
);
background = {
paths = (
{
closed = 1;
nodes = (
"162 0 LINE",
"280 0 LINE",
"280 984 LINE",
"162 984 LINE"
);
}
);
};
layerId = UUID0;
paths = (
{
closed = 1;
nodes = (
"324 0 LINE",
"442 1258 LINE",
"300 1258 LINE",
"182 0 LINE"
);
}
);
width = 504;
},
{
anchors = (
{
name = above;
position = "{254, 1270}";
}
);
background = {
paths = (
{
closed = 1;
nodes = (
"162 0 LINE",
"280 0 LINE",
"280 984 LINE",
"162 984 LINE"
);
}
);
};
layerId = UUID1;
paths = (
{
closed = 1;
nodes = (
"380 0 LINE",
"502 1298 LINE",
"290 1298 LINE",
"168 0 LINE"
);
}
);
width = 548;
}
);
unicode = 0049;
},
{
glyphname = J;
lastChange = "2019-05-13 18:39:24 +0000";
layers = (
{
background = {
paths = (
{
closed = 1;
nodes = (
"-16 118 LINE",
"46 24 OFFCURVE",
"128 -18 OFFCURVE",
"232 -18 CURVE SMOOTH",
"384 -18 OFFCURVE",
"496 70 OFFCURVE",
"496 310 CURVE SMOOTH",
"496 984 LINE",
"378 984 LINE",
"378 310 LINE SMOOTH",
"378 160 OFFCURVE",
"336 90 OFFCURVE",
"232 90 CURVE SMOOTH",
"164 90 OFFCURVE",
"102 126 OFFCURVE",
"52 188 CURVE"
);
}
);
};
layerId = UUID0;
paths = (
{
closed = 1;
nodes = (
"96 14 OFFCURVE",
"174 -22 OFFCURVE",
"274 -22 CURVE SMOOTH",
"458 -22 OFFCURVE",
"590 90 OFFCURVE",
"618 364 CURVE",
"702 1258 LINE",
"560 1258 LINE",
"476 364 LINE",
"460 214 OFFCURVE",
"404 130 OFFCURVE",
"278 130 CURVE SMOOTH",
"196 130 OFFCURVE",
"114 162 OFFCURVE",
"34 226 CURVE",
"20 62 LINE"
);
}
);
width = 728;
},
{
background = {
paths = (
{
closed = 1;
nodes = (
"-16 118 LINE",
"46 24 OFFCURVE",
"128 -18 OFFCURVE",
"232 -18 CURVE SMOOTH",
"384 -18 OFFCURVE",
"496 70 OFFCURVE",
"496 310 CURVE SMOOTH",
"496 984 LINE",
"378 984 LINE",
"378 310 LINE SMOOTH",
"378 160 OFFCURVE",
"336 90 OFFCURVE",
"232 90 CURVE SMOOTH",
"164 90 OFFCURVE",
"102 126 OFFCURVE",
"52 188 CURVE"
);
}
);
};
layerId = UUID1;
paths = (
{
closed = 1;
nodes = (
"114 6 OFFCURVE",
"206 -28 OFFCURVE",
"312 -28 CURVE SMOOTH",
"512 -28 OFFCURVE",
"666 90 OFFCURVE",
"696 404 CURVE",
"782 1298 LINE",
"566 1298 LINE",
"482 404 LINE",
"470 268 OFFCURVE",
"418 202 OFFCURVE",
"314 202 CURVE SMOOTH",
"236 202 OFFCURVE",
"144 228 OFFCURVE",
"56 290 CURVE",
"32 54 LINE"
);
}
);
width = 800;
}
);
unicode = 004A;
},
{
glyphname = K;
lastChange = "2019-05-13 18:39:24 +0000";
layers = (
{
background = {
paths = (
{
closed = 1;
nodes = (
"728 984 LINE",
"258 502 LINE",
"258 348 LINE",
"874 984 LINE"
);
},
{
closed = 1;
nodes = (
"432 562 LINE",
"344 486 LINE",
"746 0 LINE",
"900 0 LINE"
);
},
{
closed = 1;
nodes = (
"164 984 LINE",
"164 0 LINE",
"282 0 LINE",
"282 984 LINE"
);
},
{
closed = 1;
nodes = (
"474 638 OFFCURVE",
"524 588 OFFCURVE",
"588 588 CURVE SMOOTH",
"652 588 OFFCURVE",
"704 638 OFFCURVE",
"704 702 CURVE SMOOTH",
"704 766 OFFCURVE",
"652 818 OFFCURVE",
"588 818 CURVE SMOOTH",
"524 818 OFFCURVE",
"474 766 OFFCURVE",
"474 702 CURVE SMOOTH"
);
},
{
closed = 1;
nodes = (
"588 498 OFFCURVE",
"638 448 OFFCURVE",
"702 448 CURVE SMOOTH",
"766 448 OFFCURVE",
"818 498 OFFCURVE",
"818 562 CURVE SMOOTH",
"818 626 OFFCURVE",
"766 678 OFFCURVE",
"702 678 CURVE SMOOTH",
"638 678 OFFCURVE",
"588 626 OFFCURVE",
"588 562 CURVE SMOOTH"
);
}
);
};
layerId = UUID0;
paths = (
{
closed = 1;
nodes = (
"182 0 LINE",
"326 0 LINE",
"368 456 LINE",
"492 582 LINE",
"874 0 LINE",
"1058 0 LINE",
"598 694 LINE",
"1146 1258 LINE",
"950 1258 LINE",
"390 676 LINE",
"444 1258 LINE",
"300 1258 LINE"
);
}
);
width = 1096;
},
{
background = {
paths = (
{
closed = 1;
nodes = (
"728 984 LINE",
"258 502 LINE",
"258 348 LINE",
"874 984 LINE"
);
},
{
closed = 1;
nodes = (
"432 562 LINE",
"344 486 LINE",
"746 0 LINE",
"900 0 LINE"
);
},
{
closed = 1;
nodes = (
"164 984 LINE",
"164 0 LINE",
"282 0 LINE",
"282 984 LINE"
);
},
{
closed = 1;
nodes = (
"474 638 OFFCURVE",
"524 588 OFFCURVE",
"588 588 CURVE SMOOTH",
"652 588 OFFCURVE",
"704 638 OFFCURVE",
"704 702 CURVE SMOOTH",
"704 766 OFFCURVE",
"652 818 OFFCURVE",
"588 818 CURVE SMOOTH",
"524 818 OFFCURVE",
"474 766 OFFCURVE",
"474 702 CURVE SMOOTH"
);
},
{
closed = 1;
nodes = (
"588 498 OFFCURVE",
"638 448 OFFCURVE",
"702 448 CURVE SMOOTH",
"766 448 OFFCURVE",
"818 498 OFFCURVE",
"818 562 CURVE SMOOTH",
"818 626 OFFCURVE",
"766 678 OFFCURVE",
"702 678 CURVE SMOOTH",
"638 678 OFFCURVE",
"588 626 OFFCURVE",
"588 562 CURVE SMOOTH"
);
}
);
};
layerId = UUID1;
paths = (
{
closed = 1;
nodes = (
"168 0 LINE",
"382 0 LINE",
"424 442 LINE",
"528 550 LINE",
"892 0 LINE",
"1168 0 LINE",
"688 714 LINE",
"1256 1298 LINE",
"964 1298 LINE",
"454 764 LINE",
"504 1298 LINE",
"290 1298 LINE"
);
}
);
width = 1178;
}
);
unicode = 004B;
},
{
glyphname = L;
lastChange = "2019-05-13 18:39:24 +0000";
layers = (
{
background = {
paths = (
{
closed = 1;
nodes = (
"286 984 LINE",
"170 984 LINE",
"170 0 LINE",
"728 0 LINE",
"728 108 LINE",
"286 108 LINE"
);
}
);
};
layerId = UUID0;
paths = (
{
closed = 1;
nodes = (
"828 0 LINE",
"840 138 LINE",
"336 138 LINE",
"442 1258 LINE",
"300 1258 LINE",
"182 0 LINE"
);
}
);
width = 842;
},
{
background = {
paths = (
{
closed = 1;
nodes = (
"286 984 LINE",
"170 984 LINE",
"170 0 LINE",
"728 0 LINE",
"728 108 LINE",
"286 108 LINE"
);
}
);
};
layerId = UUID1;
paths = (
{
closed = 1;
nodes = (
"860 0 LINE",
"878 206 LINE",
"398 206 LINE",
"502 1298 LINE",
"290 1298 LINE",
"168 0 LINE"
);
}
);
width = 890;
}
);
unicode = 004C;
},
{
glyphname = M;
lastChange = "2019-05-13 18:39:24 +0000";
layers = (
{
layerId = UUID0;
paths = (
{
closed = 1;
nodes = (
"324 0 LINE",
"422 1050 LINE",
"732 158 LINE",
"828 158 LINE",
"1298 1032 LINE",
"1202 0 LINE",
"1344 0 LINE",
"1464 1258 LINE",
"1264 1258 LINE",
"804 406 LINE",
"504 1258 LINE",
"300 1258 LINE",
"182 0 LINE"
);
}
);
width = 1526;
},
{
layerId = UUID1;
paths = (
{
closed = 1;
nodes = (
"380 0 LINE",
"474 1016 LINE",
"734 142 LINE",
"872 142 LINE",
"1282 984 LINE",
"1192 0 LINE",
"1406 0 LINE",
"1528 1298 LINE",
"1234 1298 LINE",
"840 526 LINE",
"594 1298 LINE",
"290 1298 LINE",
"168 0 LINE"
);
}
);
width = 1574;
}
);
unicode = 004D;
},
{
glyphname = N;
lastChange = "2019-05-13 18:39:24 +0000";
layers = (
{
anchors = (
{
name = above;
position = "{614, 1270}";
}
);
layerId = UUID0;
paths = (
{
closed = 1;
nodes = (
"322 0 LINE",
"418 1026 LINE",
"892 0 LINE",
"1052 0 LINE",
"1170 1258 LINE",
"1028 1258 LINE",
"930 250 LINE",
"466 1258 LINE",
"296 1258 LINE",
"178 0 LINE"
);
}
);
width = 1232;
},
{
anchors = (
{
name = above;
position = "{614, 1270}";
}
);
layerId = UUID1;
paths = (
{
closed = 1;
nodes = (
"376 0 LINE",
"466 952 LINE",
"908 0 LINE",
"1124 0 LINE",
"1246 1298 LINE",
"1034 1298 LINE",
"946 378 LINE",
"518 1298 LINE",
"286 1298 LINE",
"164 0 LINE"
);
}
);
width = 1290;
}
);
unicode = 004E;
},
{
glyphname = O;
lastChange = "2019-05-13 18:39:24 +0000";
layers = (
{
anchors = (
{
name = above;
position = "{582, 1270}";
}
);
background = {
paths = (
{
closed = 1;
nodes = (
"780 384 OFFCURVE",
"970 432 OFFCURVE",
"970 540 CURVE SMOOTH",
"970 644 OFFCURVE",
"780 698 OFFCURVE",
"526 698 CURVE SMOOTH",
"274 698 OFFCURVE",
"84 648 OFFCURVE",
"84 540 CURVE SMOOTH",
"84 434 OFFCURVE",
"274 384 OFFCURVE",
"526 384 CURVE SMOOTH"
);
},
{
closed = 1;
nodes = (
"330 350 OFFCURVE",
"208 412 OFFCURVE",
"208 540 CURVE SMOOTH",
"208 664 OFFCURVE",
"330 734 OFFCURVE",
"526 734 CURVE SMOOTH",
"724 734 OFFCURVE",
"846 664 OFFCURVE",
"846 540 CURVE SMOOTH",
"846 412 OFFCURVE",
"724 350 OFFCURVE",
"526 350 CURVE SMOOTH"
);
}
);
};
layerId = UUID0;
paths = (
{
closed = 1;
nodes = (
"860 -22 OFFCURVE",
"1088 188 OFFCURVE",
"1132 628 CURVE",
"1172 1062 OFFCURVE",
"984 1280 OFFCURVE",
"702 1280 CURVE SMOOTH",
"420 1280 OFFCURVE",
"192 1066 OFFCURVE",
"152 628 CURVE",
"110 192 OFFCURVE",
"296 -22 OFFCURVE",
"578 -22 CURVE SMOOTH"
);
},
{
closed = 1;
nodes = (
"382 122 OFFCURVE",
"266 296 OFFCURVE",
"298 628 CURVE SMOOTH",
"330 954 OFFCURVE",
"476 1138 OFFCURVE",
"688 1138 CURVE SMOOTH",
"898 1138 OFFCURVE",
"1016 954 OFFCURVE",
"984 628 CURVE SMOOTH",
"952 296 OFFCURVE",
"802 122 OFFCURVE",
"592 122 CURVE SMOOTH"
);
}
);
width = 1162;
},
{
anchors = (
{
name = above;
position = "{582, 1270}";
}
);
background = {
paths = (
{
closed = 1;
nodes = (
"780 384 OFFCURVE",
"970 432 OFFCURVE",
"970 540 CURVE SMOOTH",
"970 644 OFFCURVE",
"780 698 OFFCURVE",
"526 698 CURVE SMOOTH",
"274 698 OFFCURVE",
"84 648 OFFCURVE",
"84 540 CURVE SMOOTH",
"84 434 OFFCURVE",
"274 384 OFFCURVE",
"526 384 CURVE SMOOTH"
);
},
{
closed = 1;
nodes = (
"330 350 OFFCURVE",
"208 412 OFFCURVE",
"208 540 CURVE SMOOTH",
"208 664 OFFCURVE",
"330 734 OFFCURVE",
"526 734 CURVE SMOOTH",
"724 734 OFFCURVE",
"846 664 OFFCURVE",
"846 540 CURVE SMOOTH",
"846 412 OFFCURVE",
"724 350 OFFCURVE",
"526 350 CURVE SMOOTH"
);
}
);
};
layerId = UUID1;
paths = (
{
closed = 1;
nodes = (
"926 -28 OFFCURVE",
"1162 196 OFFCURVE",
"1206 650 CURVE",
"1248 1096 OFFCURVE",
"1052 1324 OFFCURVE",
"738 1324 CURVE SMOOTH",
"426 1324 OFFCURVE",
"188 1106 OFFCURVE",
"146 650 CURVE",
"102 202 OFFCURVE",
"298 -28 OFFCURVE",
"610 -28 CURVE SMOOTH"
);
},
{
closed = 1;
nodes = (
"442 186 OFFCURVE",
"336 350 OFFCURVE",
"366 650 CURVE SMOOTH",
"392 942 OFFCURVE",
"530 1112 OFFCURVE",
"718 1112 CURVE SMOOTH",
"908 1112 OFFCURVE",
"1014 942 OFFCURVE",
"986 652 CURVE SMOOTH",
"958 350 OFFCURVE",
"820 186 OFFCURVE",
"630 186 CURVE SMOOTH"
);
}
);
width = 1230;
}
);
unicode = 004F;
},
{
glyphname = P;
lastChange = "2019-05-13 18:39:24 +0000";
layers = (
{
background = {
paths = (
{
closed = 1;
nodes = (
"802 846 OFFCURVE",
"702 984 OFFCURVE",
"472 984 CURVE SMOOTH",
"160 984 LINE",
"160 0 LINE",
"278 0 LINE",
"278 380 LINE",
"478 380 LINE",
"702 380 OFFCURVE",
"802 522 OFFCURVE",
"802 682 CURVE SMOOTH"
);
},
{
closed = 1;
nodes = (
"278 488 LINE",
"278 876 LINE",
"478 876 LINE",
"612 876 OFFCURVE",
"684 798 OFFCURVE",
"684 684 CURVE SMOOTH",
"684 568 OFFCURVE",
"612 488 OFFCURVE",
"478 488 CURVE SMOOTH"
);
}
);
};
layerId = UUID0;
paths = (
{
closed = 1;
nodes = (
"320 0 LINE",
"366 486 LINE",
"588 486 LINE SMOOTH",
"836 486 OFFCURVE",
"986 634 OFFCURVE",
"1008 868 CURVE SMOOTH",
"1032 1106 OFFCURVE",
"910 1258 OFFCURVE",
"662 1258 CURVE SMOOTH",
"296 1258 LINE",
"178 0 LINE"
);
},
{
closed = 1;
nodes = (
"424 1122 LINE",
"648 1122 LINE SMOOTH",
"802 1122 OFFCURVE",
"876 1022 OFFCURVE",
"862 868 CURVE SMOOTH",
"848 718 OFFCURVE",
"756 622 OFFCURVE",
"602 622 CURVE SMOOTH",
"378 622 LINE"
);
}
);
width = 998;
},
{
background = {
paths = (
{
closed = 1;
nodes = (
"802 846 OFFCURVE",
"702 984 OFFCURVE",
"472 984 CURVE SMOOTH",
"160 984 LINE",
"160 0 LINE",
"278 0 LINE",
"278 380 LINE",
"478 380 LINE",
"702 380 OFFCURVE",
"802 522 OFFCURVE",
"802 682 CURVE SMOOTH"
);
},
{
closed = 1;
nodes = (
"278 488 LINE",
"278 876 LINE",
"478 876 LINE",
"612 876 OFFCURVE",
"684 798 OFFCURVE",
"684 684 CURVE SMOOTH",
"684 568 OFFCURVE",
"612 488 OFFCURVE",
"478 488 CURVE SMOOTH"
);
}
);
};
layerId = UUID1;
paths = (
{
closed = 1;
nodes = (
"376 0 LINE",
"420 472 LINE",
"618 472 LINE SMOOTH",
"880 472 OFFCURVE",
"1052 622 OFFCURVE",
"1076 884 CURVE SMOOTH",
"1102 1150 OFFCURVE",
"960 1298 OFFCURVE",
"696 1298 CURVE SMOOTH",
"284 1298 LINE",
"162 0 LINE"
);
},
{
closed = 1;
nodes = (
"478 1094 LINE",
"676 1094 LINE SMOOTH",
"808 1094 OFFCURVE",
"868 1006 OFFCURVE",
"856 884 CURVE SMOOTH",
"846 764 OFFCURVE",
"768 678 OFFCURVE",
"638 678 CURVE SMOOTH",
"440 678 LINE"
);
}
);
width = 1046;
}
);
unicode = 0050;
},
{
glyphname = Q;
lastChange = "2019-05-13 18:39:24 +0000";
layers = (
{
background = {
paths = (
{
closed = 1;
nodes = (
"356 408 OFFCURVE",
"290 348 OFFCURVE",
"290 260 CURVE SMOOTH",
"290 222 OFFCURVE",
"302 192 OFFCURVE",
"326 162 CURVE",
"374 148 LINE",
"358 168 OFFCURVE",
"348 194 OFFCURVE",
"348 226 CURVE SMOOTH",
"348 282 OFFCURVE",
"390 322 OFFCURVE",
"442 322 CURVE SMOOTH",
"488 322 OFFCURVE",
"528 286 OFFCURVE",
"558 228 CURVE SMOOTH",
"720 -94 LINE SMOOTH",
"774 -200 OFFCURVE",
"864 -246 OFFCURVE",
"960 -228 CURVE SMOOTH",
"1002 -222 OFFCURVE",
"1038 -206 OFFCURVE",
"1074 -184 CURVE",
"1074 -20 LINE",
"1018 -58 OFFCURVE",
"970 -78 OFFCURVE",
"916 -86 CURVE SMOOTH",
"854 -94 OFFCURVE",
"814 -64 OFFCURVE",
"786 -10 CURVE SMOOTH",
"644 264 LINE SMOOTH",
"598 356 OFFCURVE",
"530 408 OFFCURVE",
"442 408 CURVE SMOOTH"
);
},
{
closed = 1;
nodes = (
"290 1048 OFFCURVE",
"82 872 OFFCURVE",
"82 516 CURVE SMOOTH",
"82 152 OFFCURVE",
"290 -14 OFFCURVE",
"546 -14 CURVE SMOOTH",
"806 -14 OFFCURVE",
"1012 156 OFFCURVE",
"1012 516 CURVE SMOOTH",
"1012 876 OFFCURVE",
"806 1048 OFFCURVE",
"546 1048 CURVE SMOOTH"
);
},
{
closed = 1;
nodes = (
"740 932 OFFCURVE",
"876 788 OFFCURVE",
"876 516 CURVE SMOOTH",
"876 246 OFFCURVE",
"740 104 OFFCURVE",
"546 104 CURVE SMOOTH",
"354 104 OFFCURVE",
"218 246 OFFCURVE",
"218 516 CURVE SMOOTH",
"218 788 OFFCURVE",
"354 932 OFFCURVE",
"546 932 CURVE SMOOTH"
);
}
);
};
layerId = UUID0;
paths = (
{
closed = 1;
nodes = (
"938 -334 OFFCURVE",
"986 -324 OFFCURVE",
"1044 -296 CURVE",
"1060 -124 LINE",
"994 -156 OFFCURVE",
"944 -174 OFFCURVE",
"880 -174 CURVE",
"838 -172 OFFCURVE",
"800 -152 OFFCURVE",
"764 -92 CURVE",
"716 -4 LINE",
"932 56 OFFCURVE",
"1096 262 OFFCURVE",
"1132 628 CURVE",
"1172 1062 OFFCURVE",
"984 1280 OFFCURVE",
"702 1280 CURVE SMOOTH",
"420 1280 OFFCURVE",
"192 1066 OFFCURVE",
"152 628 CURVE",
"110 196 OFFCURVE",
"292 -18 OFFCURVE",
"570 -22 CURVE",
"642 -156 LINE SMOOTH",
"704 -272 OFFCURVE",
"782 -334 OFFCURVE",
"890 -334 CURVE SMOOTH"
);
},
{
closed = 1;
nodes = (
"382 122 OFFCURVE",
"266 296 OFFCURVE",
"298 628 CURVE SMOOTH",
"330 954 OFFCURVE",
"476 1138 OFFCURVE",
"688 1138 CURVE SMOOTH",
"898 1138 OFFCURVE",
"1016 954 OFFCURVE",
"984 628 CURVE SMOOTH",
"952 296 OFFCURVE",
"802 122 OFFCURVE",
"592 122 CURVE SMOOTH"
);
}
);
width = 1174;
},
{
background = {
paths = (
{
closed = 1;
nodes = (
"356 408 OFFCURVE",
"290 348 OFFCURVE",
"290 260 CURVE SMOOTH",
"290 222 OFFCURVE",
"302 192 OFFCURVE",
"326 162 CURVE",
"374 148 LINE",
"358 168 OFFCURVE",
"348 194 OFFCURVE",
"348 226 CURVE SMOOTH",
"348 282 OFFCURVE",
"390 322 OFFCURVE",
"442 322 CURVE SMOOTH",
"488 322 OFFCURVE",
"528 286 OFFCURVE",
"558 228 CURVE SMOOTH",
"720 -94 LINE SMOOTH",
"774 -200 OFFCURVE",
"864 -246 OFFCURVE",
"960 -228 CURVE SMOOTH",
"1002 -222 OFFCURVE",
"1038 -206 OFFCURVE",
"1074 -184 CURVE",
"1074 -20 LINE",
"1018 -58 OFFCURVE",
"970 -78 OFFCURVE",
"916 -86 CURVE SMOOTH",
"854 -94 OFFCURVE",
"814 -64 OFFCURVE",
"786 -10 CURVE SMOOTH",
"644 264 LINE SMOOTH",
"598 356 OFFCURVE",
"530 408 OFFCURVE",
"442 408 CURVE SMOOTH"
);
},
{
closed = 1;
nodes = (
"290 1048 OFFCURVE",
"82 872 OFFCURVE",
"82 516 CURVE SMOOTH",
"82 152 OFFCURVE",
"290 -14 OFFCURVE",
"546 -14 CURVE SMOOTH",
"806 -14 OFFCURVE",
"1012 156 OFFCURVE",
"1012 516 CURVE SMOOTH",
"1012 876 OFFCURVE",
"806 1048 OFFCURVE",
"546 1048 CURVE SMOOTH"
);
},
{
closed = 1;
nodes = (
"740 932 OFFCURVE",
"876 788 OFFCURVE",
"876 516 CURVE SMOOTH",
"876 246 OFFCURVE",
"740 104 OFFCURVE",
"546 104 CURVE SMOOTH",
"354 104 OFFCURVE",
"218 246 OFFCURVE",
"218 516 CURVE SMOOTH",
"218 788 OFFCURVE",
"354 932 OFFCURVE",
"546 932 CURVE SMOOTH"
);
}
);
};
layerId = UUID1;
paths = (
{
closed = 1;
nodes = (
"990 -360 OFFCURVE",
"1040 -350 OFFCURVE",
"1098 -324 CURVE",
"1122 -80 LINE",
"1058 -108 OFFCURVE",
"1002 -126 OFFCURVE",
"944 -126 CURVE",
"896 -124 OFFCURVE",
"852 -104 OFFCURVE",
"822 -48 CURVE",
"798 2 LINE",
"1016 76 OFFCURVE",
"1170 292 OFFCURVE",
"1206 650 CURVE",
"1248 1096 OFFCURVE",
"1052 1324 OFFCURVE",
"738 1324 CURVE SMOOTH",
"426 1324 OFFCURVE",
"188 1106 OFFCURVE",
"146 650 CURVE",
"102 208 OFFCURVE",
"292 -20 OFFCURVE",
"594 -28 CURVE",
"658 -158 LINE SMOOTH",
"722 -286 OFFCURVE",
"820 -360 OFFCURVE",
"938 -360 CURVE SMOOTH"
);
},
{
closed = 1;
nodes = (
"442 186 OFFCURVE",
"336 350 OFFCURVE",
"366 650 CURVE SMOOTH",
"392 942 OFFCURVE",
"530 1112 OFFCURVE",
"718 1112 CURVE SMOOTH",
"908 1112 OFFCURVE",
"1014 942 OFFCURVE",
"986 652 CURVE SMOOTH",
"958 350 OFFCURVE",
"820 186 OFFCURVE",
"630 186 CURVE SMOOTH"
);
}
);
width = 1234;
}
);
unicode = 0051;
},
{
glyphname = R;
lastChange = "2019-05-13 18:39:24 +0000";
layers = (
{
background = {
paths = (
{
closed = 1;
nodes = (
"434 470 LINE",
"706 0 LINE",
"872 0 LINE",
"576 470 LINE"
);
},
{
closed = 1;
nodes = (
"852 910 OFFCURVE",
"726 1036 OFFCURVE",
"492 1036 CURVE SMOOTH",
"166 1036 LINE",
"166 0 LINE",
"296 0 LINE",
"296 424 LINE",
"492 424 LINE SMOOTH",
"726 424 OFFCURVE",
"852 548 OFFCURVE",
"852 728 CURVE SMOOTH"
);
},
{
closed = 1;
nodes = (
"296 514 LINE",
"296 924 LINE",
"492 924 LINE SMOOTH",
"638 924 OFFCURVE",
"718 844 OFFCURVE",
"718 718 CURVE SMOOTH",
"718 598 OFFCURVE",
"634 514 OFFCURVE",
"482 514 CURVE SMOOTH"
);
}
);
};
layerId = UUID0;
paths = (
{
closed = 1;
nodes = (
"324 0 LINE",
"372 514 LINE",
"570 514 LINE",
"816 0 LINE",
"998 0 LINE",
"722 522 LINE",
"920 556 OFFCURVE",
"1034 694 OFFCURVE",
"1052 884 CURVE SMOOTH",
"1074 1106 OFFCURVE",
"954 1258 OFFCURVE",
"694 1258 CURVE SMOOTH",
"300 1258 LINE",
"182 0 LINE"
);
},
{
closed = 1;
nodes = (
"428 1122 LINE",
"680 1122 LINE SMOOTH",
"840 1122 OFFCURVE",
"920 1026 OFFCURVE",
"906 874 CURVE SMOOTH",
"892 726 OFFCURVE",
"792 624 OFFCURVE",
"622 624 CURVE SMOOTH",
"382 624 LINE"
);
}
);
width = 1104;
},
{
background = {
paths = (
{
closed = 1;
nodes = (
"434 470 LINE",
"706 0 LINE",
"872 0 LINE",
"576 470 LINE"
);
},
{
closed = 1;
nodes = (
"852 910 OFFCURVE",
"726 1036 OFFCURVE",
"492 1036 CURVE SMOOTH",
"166 1036 LINE",
"166 0 LINE",
"296 0 LINE",
"296 424 LINE",
"492 424 LINE SMOOTH",
"726 424 OFFCURVE",
"852 548 OFFCURVE",
"852 728 CURVE SMOOTH"
);
},
{
closed = 1;
nodes = (
"296 514 LINE",
"296 924 LINE",
"492 924 LINE SMOOTH",
"638 924 OFFCURVE",
"718 844 OFFCURVE",
"718 718 CURVE SMOOTH",
"718 598 OFFCURVE",
"634 514 OFFCURVE",
"482 514 CURVE SMOOTH"
);
}
);
};
layerId = UUID1;
paths = (
{
closed = 1;
nodes = (
"380 0 LINE",
"426 506 LINE",
"588 506 LINE",
"800 0 LINE",
"1076 0 LINE",
"812 526 LINE",
"992 578 OFFCURVE",
"1100 714 OFFCURVE",
"1120 900 CURVE SMOOTH",
"1142 1140 OFFCURVE",
"1000 1298 OFFCURVE",
"722 1298 CURVE SMOOTH",
"290 1298 LINE",
"168 0 LINE"
);
},
{
closed = 1;
nodes = (
"482 1094 LINE",
"702 1094 LINE SMOOTH",
"844 1094 OFFCURVE",
"908 1008 OFFCURVE",
"898 878 CURVE SMOOTH",
"886 752 OFFCURVE",
"796 664 OFFCURVE",
"640 664 CURVE SMOOTH",
"440 664 LINE"
);
}
);
width = 1160;
}
);
unicode = 0052;
},
{
glyphname = S;
lastChange = "2019-05-13 18:39:24 +0000";
layers = (
{
background = {
paths = (
{
closed = 1;
nodes = (
"472 444 OFFCURVE",
"530 386 OFFCURVE",
"606 386 CURVE SMOOTH",
"682 386 OFFCURVE",
"742 444 OFFCURVE",
"742 520 CURVE SMOOTH",
"742 596 OFFCURVE",
"682 656 OFFCURVE",
"606 656 CURVE SMOOTH",
"530 656 OFFCURVE",
"472 596 OFFCURVE",
"472 520 CURVE SMOOTH"
);
}
);
};
layerId = UUID0;
paths = (
{
closed = 1;
nodes = (
"814 -22 OFFCURVE",
"978 134 OFFCURVE",
"996 334 CURVE SMOOTH",
"1012 508 OFFCURVE",
"920 610 OFFCURVE",
"764 672 CURVE SMOOTH",
"538 762 LINE SMOOTH",
"430 802 OFFCURVE",
"386 850 OFFCURVE",
"394 942 CURVE SMOOTH",
"404 1054 OFFCURVE",
"498 1136 OFFCURVE",
"648 1136 CURVE SMOOTH",
"792 1136 OFFCURVE",
"868 1068 OFFCURVE",
"874 952 CURVE",
"1014 952 LINE",
"1012 1152 OFFCURVE",
"892 1280 OFFCURVE",
"662 1280 CURVE SMOOTH",
"412 1280 OFFCURVE",
"260 1142 OFFCURVE",
"240 948 CURVE SMOOTH",
"224 772 OFFCURVE",
"314 690 OFFCURVE",
"494 620 CURVE SMOOTH",
"686 538 LINE SMOOTH",
"798 496 OFFCURVE",
"850 436 OFFCURVE",
"840 330 CURVE SMOOTH",
"830 216 OFFCURVE",
"716 122 OFFCURVE",
"552 122 CURVE SMOOTH",
"402 122 OFFCURVE",
"280 202 OFFCURVE",
"296 378 CURVE",
"158 378 LINE",
"140 116 OFFCURVE",
"314 -22 OFFCURVE",
"540 -22 CURVE SMOOTH"
);
}
);
width = 1088;
},
{
background = {
paths = (
{
closed = 1;
nodes = (
"472 444 OFFCURVE",
"530 386 OFFCURVE",
"606 386 CURVE SMOOTH",
"682 386 OFFCURVE",
"742 444 OFFCURVE",
"742 520 CURVE SMOOTH",
"742 596 OFFCURVE",
"682 656 OFFCURVE",
"606 656 CURVE SMOOTH",
"530 656 OFFCURVE",
"472 596 OFFCURVE",
"472 520 CURVE SMOOTH"
);
}
);
};
layerId = UUID1;
paths = (
{
closed = 1;
nodes = (
"862 -28 OFFCURVE",
"1042 120 OFFCURVE",
"1064 354 CURVE SMOOTH",
"1080 524 OFFCURVE",
"994 634 OFFCURVE",
"828 708 CURVE SMOOTH",
"584 818 LINE SMOOTH",
"494 856 OFFCURVE",
"454 894 OFFCURVE",
"460 964 CURVE SMOOTH",
"470 1048 OFFCURVE",
"548 1110 OFFCURVE",
"670 1110 CURVE SMOOTH",
"804 1110 OFFCURVE",
"862 1042 OFFCURVE",
"870 940 CURVE",
"1080 940 LINE",
"1082 1180 OFFCURVE",
"950 1324 OFFCURVE",
"690 1324 CURVE SMOOTH",
"422 1324 OFFCURVE",
"250 1180 OFFCURVE",
"228 970 CURVE SMOOTH",
"212 786 OFFCURVE",
"302 696 OFFCURVE",
"476 618 CURVE SMOOTH",
"698 516 LINE SMOOTH",
"796 474 OFFCURVE",
"836 432 OFFCURVE",
"828 346 CURVE SMOOTH",
"818 248 OFFCURVE",
"718 190 OFFCURVE",
"588 190 CURVE SMOOTH",
"454 190 OFFCURVE",
"350 256 OFFCURVE",
"366 406 CURVE",
"154 406 LINE",
"134 110 OFFCURVE",
"328 -28 OFFCURVE",
"570 -28 CURVE SMOOTH"
);
}
);
width = 1148;
}
);
unicode = 0053;
},
{
glyphname = T;
lastChange = "2019-05-13 18:39:24 +0000";
layers = (
{
background = {
paths = (
{
closed = 1;
nodes = (
"48 876 LINE",
"332 876 LINE",
"332 0 LINE",
"450 0 LINE",
"450 876 LINE",
"734 876 LINE",
"734 984 LINE",
"48 984 LINE"
);
}
);
};
layerId = UUID0;
paths = (
{
closed = 1;
nodes = (
"522 0 LINE",
"626 1122 LINE",
"996 1122 LINE",
"1010 1258 LINE",
"130 1258 LINE",
"116 1122 LINE",
"484 1122 LINE",
"380 0 LINE"
);
}
);
width = 902;
},
{
background = {
paths = (
{
closed = 1;
nodes = (
"48 876 LINE",
"332 876 LINE",
"332 0 LINE",
"450 0 LINE",
"450 876 LINE",
"734 876 LINE",
"734 984 LINE",
"48 984 LINE"
);
}
);
};
layerId = UUID1;
paths = (
{
closed = 1;
nodes = (
"584 0 LINE",
"688 1094 LINE",
"1050 1094 LINE",
"1070 1298 LINE",
"134 1298 LINE",
"114 1094 LINE",
"476 1094 LINE",
"372 0 LINE"
);
}
);
width = 958;
}
);
unicode = 0054;
},
{
glyphname = U;
lastChange = "2019-05-13 18:39:24 +0000";
layers = (
{
anchors = (
{
name = above;
position = "{586, 1270}";
}
);
layerId = UUID0;
paths = (
{
closed = 1;
nodes = (
"844 -22 OFFCURVE",
"1030 140 OFFCURVE",
"1058 454 CURVE",
"1136 1258 LINE",
"994 1258 LINE",
"916 454 LINE SMOOTH",
"894 220 OFFCURVE",
"770 122 OFFCURVE",
"598 122 CURVE SMOOTH",
"424 122 OFFCURVE",
"318 220 OFFCURVE",
"340 454 CURVE SMOOTH",
"418 1258 LINE",
"276 1258 LINE",
"198 454 LINE",
"170 140 OFFCURVE",
"320 -22 OFFCURVE",
"584 -22 CURVE SMOOTH"
);
}
);
width = 1178;
},
{
anchors = (
{
name = above;
position = "{586, 1270}";
}
);
layerId = UUID1;
paths = (
{
closed = 1;
nodes = (
"916 -28 OFFCURVE",
"1110 162 OFFCURVE",
"1142 490 CURVE",
"1218 1298 LINE",
"1006 1298 LINE",
"928 490 LINE SMOOTH",
"908 276 OFFCURVE",
"792 190 OFFCURVE",
"638 190 CURVE SMOOTH",
"486 190 OFFCURVE",
"386 276 OFFCURVE",
"406 490 CURVE SMOOTH",
"484 1298 LINE",
"272 1298 LINE",
"194 490 LINE",
"164 162 OFFCURVE",
"322 -28 OFFCURVE",
"620 -28 CURVE SMOOTH"
);
}
);
width = 1242;
}
);
unicode = 0055;
},
{
glyphname = V;
lastChange = "2019-05-13 18:39:24 +0000";
layers = (
{
background = {
paths = (
{
closed = 1;
nodes = (
"426 114 LINE",
"450 114 LINE",
"162 984 LINE",
"32 984 LINE",
"378 0 LINE",
"496 0 LINE",
"846 984 LINE",
"716 984 LINE"
);
},
{
closed = 1;
nodes = (
"384 68 OFFCURVE",
"398 54 OFFCURVE",
"414 54 CURVE SMOOTH",
"430 54 OFFCURVE",
"444 68 OFFCURVE",
"444 84 CURVE SMOOTH",
"444 100 OFFCURVE",
"430 114 OFFCURVE",
"414 114 CURVE SMOOTH",
"398 114 OFFCURVE",
"384 100 OFFCURVE",
"384 84 CURVE SMOOTH"
);
},
{
closed = 1;
nodes = (
"422 68 OFFCURVE",
"436 54 OFFCURVE",
"452 54 CURVE SMOOTH",
"468 54 OFFCURVE",
"482 68 OFFCURVE",
"482 84 CURVE SMOOTH",
"482 100 OFFCURVE",
"468 114 OFFCURVE",
"452 114 CURVE SMOOTH",
"436 114 OFFCURVE",
"422 100 OFFCURVE",
"422 84 CURVE SMOOTH"
);
},
{
closed = 1;
nodes = (
"638 688 OFFCURVE",
"652 674 OFFCURVE",
"668 674 CURVE SMOOTH",
"684 674 OFFCURVE",
"698 688 OFFCURVE",
"698 704 CURVE SMOOTH",
"698 720 OFFCURVE",
"684 734 OFFCURVE",
"668 734 CURVE SMOOTH",
"652 734 OFFCURVE",
"638 720 OFFCURVE",
"638 704 CURVE SMOOTH"
);
},
{
closed = 1;
nodes = (
"168 688 OFFCURVE",
"182 674 OFFCURVE",
"198 674 CURVE SMOOTH",
"214 674 OFFCURVE",
"228 688 OFFCURVE",
"228 704 CURVE SMOOTH",
"228 720 OFFCURVE",
"214 734 OFFCURVE",
"198 734 CURVE SMOOTH",
"182 734 OFFCURVE",
"168 720 OFFCURVE",
"168 704 CURVE SMOOTH"
);
},
{
closed = 1;
nodes = (
"32 952 OFFCURVE",
"82 902 OFFCURVE",
"146 902 CURVE SMOOTH",
"210 902 OFFCURVE",
"262 952 OFFCURVE",
"262 1016 CURVE SMOOTH",
"262 1080 OFFCURVE",
"210 1132 OFFCURVE",
"146 1132 CURVE SMOOTH",
"82 1132 OFFCURVE",
"32 1080 OFFCURVE",
"32 1016 CURVE SMOOTH"
);
},
{
closed = 1;
nodes = (
"254 952 OFFCURVE",
"304 902 OFFCURVE",
"368 902 CURVE SMOOTH",
"432 902 OFFCURVE",
"484 952 OFFCURVE",
"484 1016 CURVE SMOOTH",
"484 1080 OFFCURVE",
"432 1132 OFFCURVE",
"368 1132 CURVE SMOOTH",
"304 1132 OFFCURVE",
"254 1080 OFFCURVE",
"254 1016 CURVE SMOOTH"
);
},
{
closed = 1;
nodes = (
"172 694 OFFCURVE",
"222 644 OFFCURVE",
"286 644 CURVE SMOOTH",
"350 644 OFFCURVE",
"402 694 OFFCURVE",
"402 758 CURVE SMOOTH",
"402 822 OFFCURVE",
"350 874 OFFCURVE",
"286 874 CURVE SMOOTH",
"222 874 OFFCURVE",
"172 822 OFFCURVE",
"172 758 CURVE SMOOTH"
);
},
{
closed = 1;
nodes = (
"114 694 OFFCURVE",
"164 644 OFFCURVE",
"228 644 CURVE SMOOTH",
"292 644 OFFCURVE",
"344 694 OFFCURVE",
"344 758 CURVE SMOOTH",
"344 822 OFFCURVE",
"292 874 OFFCURVE",
"228 874 CURVE SMOOTH",
"164 874 OFFCURVE",
"114 822 OFFCURVE",
"114 758 CURVE SMOOTH"
);
}
);
};
layerId = UUID0;
paths = (
{
closed = 1;
nodes = (
"432 0 LINE",
"580 0 LINE",
"1100 1258 LINE",
"950 1258 LINE",
"524 196 LINE",
"300 1258 LINE",
"152 1258 LINE"
);
}
);
width = 1014;
},
{
background = {
paths = (
{
closed = 1;
nodes = (
"426 114 LINE",
"450 114 LINE",
"162 984 LINE",
"32 984 LINE",
"378 0 LINE",
"496 0 LINE",
"846 984 LINE",
"716 984 LINE"
);
},
{
closed = 1;
nodes = (
"384 68 OFFCURVE",
"398 54 OFFCURVE",
"414 54 CURVE SMOOTH",
"430 54 OFFCURVE",
"444 68 OFFCURVE",
"444 84 CURVE SMOOTH",
"444 100 OFFCURVE",
"430 114 OFFCURVE",
"414 114 CURVE SMOOTH",
"398 114 OFFCURVE",
"384 100 OFFCURVE",
"384 84 CURVE SMOOTH"
);
},
{
closed = 1;
nodes = (
"422 68 OFFCURVE",
"436 54 OFFCURVE",
"452 54 CURVE SMOOTH",
"468 54 OFFCURVE",
"482 68 OFFCURVE",
"482 84 CURVE SMOOTH",
"482 100 OFFCURVE",
"468 114 OFFCURVE",
"452 114 CURVE SMOOTH",
"436 114 OFFCURVE",
"422 100 OFFCURVE",
"422 84 CURVE SMOOTH"
);
},
{
closed = 1;
nodes = (
"638 688 OFFCURVE",
"652 674 OFFCURVE",
"668 674 CURVE SMOOTH",
"684 674 OFFCURVE",
"698 688 OFFCURVE",
"698 704 CURVE SMOOTH",
"698 720 OFFCURVE",
"684 734 OFFCURVE",
"668 734 CURVE SMOOTH",
"652 734 OFFCURVE",
"638 720 OFFCURVE",
"638 704 CURVE SMOOTH"
);
},
{
closed = 1;
nodes = (
"168 688 OFFCURVE",
"182 674 OFFCURVE",
"198 674 CURVE SMOOTH",
"214 674 OFFCURVE",
"228 688 OFFCURVE",
"228 704 CURVE SMOOTH",
"228 720 OFFCURVE",
"214 734 OFFCURVE",
"198 734 CURVE SMOOTH",
"182 734 OFFCURVE",
"168 720 OFFCURVE",
"168 704 CURVE SMOOTH"
);
},
{
closed = 1;
nodes = (
"32 952 OFFCURVE",
"82 902 OFFCURVE",
"146 902 CURVE SMOOTH",
"210 902 OFFCURVE",
"262 952 OFFCURVE",
"262 1016 CURVE SMOOTH",
"262 1080 OFFCURVE",
"210 1132 OFFCURVE",
"146 1132 CURVE SMOOTH",
"82 1132 OFFCURVE",
"32 1080 OFFCURVE",
"32 1016 CURVE SMOOTH"
);
},
{
closed = 1;
nodes = (
"254 952 OFFCURVE",
"304 902 OFFCURVE",
"368 902 CURVE SMOOTH",
"432 902 OFFCURVE",
"484 952 OFFCURVE",
"484 1016 CURVE SMOOTH",
"484 1080 OFFCURVE",
"432 1132 OFFCURVE",
"368 1132 CURVE SMOOTH",
"304 1132 OFFCURVE",
"254 1080 OFFCURVE",
"254 1016 CURVE SMOOTH"
);
},
{
closed = 1;
nodes = (
"172 694 OFFCURVE",
"222 644 OFFCURVE",
"286 644 CURVE SMOOTH",
"350 644 OFFCURVE",
"402 694 OFFCURVE",
"402 758 CURVE SMOOTH",
"402 822 OFFCURVE",
"350 874 OFFCURVE",
"286 874 CURVE SMOOTH",
"222 874 OFFCURVE",
"172 822 OFFCURVE",
"172 758 CURVE SMOOTH"
);
},
{
closed = 1;
nodes = (
"114 694 OFFCURVE",
"164 644 OFFCURVE",
"228 644 CURVE SMOOTH",
"292 644 OFFCURVE",
"344 694 OFFCURVE",
"344 758 CURVE SMOOTH",
"344 822 OFFCURVE",
"292 874 OFFCURVE",
"228 874 CURVE SMOOTH",
"164 874 OFFCURVE",
"114 822 OFFCURVE",
"114 758 CURVE SMOOTH"
);
}
);
};
layerId = UUID1;
paths = (
{
closed = 1;
nodes = (
"432 0 LINE",
"656 0 LINE",
"1178 1298 LINE",
"956 1298 LINE",
"572 296 LINE",
"384 1298 LINE",
"158 1298 LINE"
);
}
);
width = 1092;
}
);
unicode = 0056;
},
{
glyphname = W;
lastChange = "2019-05-13 18:39:24 +0000";
layers = (
{
background = {
paths = (
{
closed = 1;
nodes = (
"56 984 LINE",
"364 0 LINE",
"482 0 LINE",
"726 678 LINE",
"700 678 LINE",
"932 0 LINE",
"1048 0 LINE",
"1398 984 LINE",
"1268 984 LINE",
"982 132 LINE",
"1008 132 LINE",
"762 892 LINE",
"670 892 LINE",
"416 126 LINE",
"440 126 LINE",
"194 984 LINE"
);
}
);
};
layerId = UUID0;
paths = (
{
closed = 1;
nodes = (
"384 0 LINE",
"532 0 LINE",
"864 804 LINE",
"1034 0 LINE",
"1184 0 LINE",
"1702 1258 LINE",
"1546 1258 LINE",
"1128 210 LINE",
"940 1128 LINE",
"844 1128 LINE",
"478 214 LINE",
"302 1258 LINE",
"144 1258 LINE"
);
}
);
width = 1610;
},
{
background = {
paths = (
{
closed = 1;
nodes = (
"56 984 LINE",
"364 0 LINE",
"482 0 LINE",
"726 678 LINE",
"700 678 LINE",
"932 0 LINE",
"1048 0 LINE",
"1398 984 LINE",
"1268 984 LINE",
"982 132 LINE",
"1008 132 LINE",
"762 892 LINE",
"670 892 LINE",
"416 126 LINE",
"440 126 LINE",
"194 984 LINE"
);
}
);
};
layerId = UUID1;
paths = (
{
closed = 1;
nodes = (
"418 0 LINE",
"640 0 LINE",
"928 732 LINE",
"1078 0 LINE",
"1302 0 LINE",
"1826 1298 LINE",
"1586 1298 LINE",
"1216 308 LINE",
"1038 1212 LINE",
"894 1212 LINE",
"558 312 LINE",
"396 1298 LINE",
"158 1298 LINE"
);
}
);
width = 1738;
}
);
unicode = 0057;
},
{
glyphname = X;
lastChange = "2019-05-13 18:39:24 +0000";
layers = (
{
background = {
paths = (
{
closed = 1;
nodes = (
"938 0 LINE",
"790 0 LINE",
"514 384 LINE",
"250 0 LINE",
"94 0 LINE",
"440 486 LINE",
"94 984 LINE",
"238 984 LINE",
"514 588 LINE",
"780 984 LINE",
"926 984 LINE",
"584 482 LINE"
);
}
);
};
layerId = UUID0;
paths = (
{
closed = 1;
nodes = (
"260 0 LINE",
"610 502 LINE",
"890 0 LINE",
"1068 0 LINE",
"716 626 LINE",
"1168 1258 LINE",
"998 1258 LINE",
"650 744 LINE",
"374 1258 LINE",
"204 1258 LINE",
"544 624 LINE",
"86 0 LINE"
);
}
);
width = 1156;
},
{
background = {
paths = (
{
closed = 1;
nodes = (
"938 0 LINE",
"790 0 LINE",
"514 384 LINE",
"250 0 LINE",
"94 0 LINE",
"440 486 LINE",
"94 984 LINE",
"238 984 LINE",
"514 588 LINE",
"780 984 LINE",
"926 984 LINE",
"584 482 LINE"
);
}
);
};
layerId = UUID1;
paths = (
{
closed = 1;
nodes = (
"320 0 LINE",
"638 460 LINE",
"902 0 LINE",
"1168 0 LINE",
"796 650 LINE",
"1250 1298 LINE",
"994 1298 LINE",
"692 830 LINE",
"442 1298 LINE",
"182 1298 LINE",
"532 646 LINE",
"62 0 LINE"
);
}
);
width = 1232;
}
);
unicode = 0058;
},
{
glyphname = Y;
lastChange = "2019-05-13 18:39:24 +0000";
layers = (
{
layerId = UUID0;
paths = (
{
closed = 1;
nodes = (
"564 0 LINE",
"612 516 LINE",
"1088 1258 LINE",
"922 1258 LINE",
"556 680 LINE",
"306 1258 LINE",
"136 1258 LINE",
"468 516 LINE",
"420 0 LINE"
);
}
);
width = 988;
},
{
layerId = UUID1;
paths = (
{
closed = 1;
nodes = (
"642 0 LINE",
"692 536 LINE",
"1180 1298 LINE",
"930 1298 LINE",
"610 780 LINE",
"404 1298 LINE",
"152 1298 LINE",
"480 536 LINE",
"430 0 LINE"
);
}
);
width = 1088;
}
);
unicode = 0059;
},
{
glyphname = Z;
lastChange = "2019-05-13 18:39:24 +0000";
layers = (
{
background = {
paths = (
{
closed = 1;
nodes = (
"116 106 LINE",
"654 872 LINE",
"116 882 LINE",
"116 984 LINE",
"796 984 LINE",
"796 878 LINE",
"258 108 LINE",
"796 98 LINE",
"796 0 LINE",
"116 0 LINE"
);
},
{
closed = 1;
nodes = (
"254 294 OFFCURVE",
"304 244 OFFCURVE",
"368 244 CURVE SMOOTH",
"432 244 OFFCURVE",
"484 294 OFFCURVE",
"484 358 CURVE SMOOTH",
"484 422 OFFCURVE",
"432 474 OFFCURVE",
"368 474 CURVE SMOOTH",
"304 474 OFFCURVE",
"254 422 OFFCURVE",
"254 358 CURVE SMOOTH"
);
},
{
closed = 1;
nodes = (
"378 462 OFFCURVE",
"428 412 OFFCURVE",
"492 412 CURVE SMOOTH",
"556 412 OFFCURVE",
"608 462 OFFCURVE",
"608 526 CURVE SMOOTH",
"608 590 OFFCURVE",
"556 642 OFFCURVE",
"492 642 CURVE SMOOTH",
"428 642 OFFCURVE",
"378 590 OFFCURVE",
"378 526 CURVE SMOOTH"
);
},
{
closed = 1;
nodes = (
"242 192 OFFCURVE",
"256 178 OFFCURVE",
"272 178 CURVE SMOOTH",
"288 178 OFFCURVE",
"302 192 OFFCURVE",
"302 208 CURVE SMOOTH",
"302 224 OFFCURVE",
"288 238 OFFCURVE",
"272 238 CURVE SMOOTH",
"256 238 OFFCURVE",
"242 224 OFFCURVE",
"242 208 CURVE SMOOTH"
);
},
{
closed = 1;
nodes = (
"564 686 OFFCURVE",
"578 672 OFFCURVE",
"594 672 CURVE SMOOTH",
"610 672 OFFCURVE",
"624 686 OFFCURVE",
"624 702 CURVE SMOOTH",
"624 718 OFFCURVE",
"610 732 OFFCURVE",
"594 732 CURVE SMOOTH",
"578 732 OFFCURVE",
"564 718 OFFCURVE",
"564 702 CURVE SMOOTH"
);
}
);
};
layerId = UUID0;
paths = (
{
closed = 1;
nodes = (
"962 0 LINE",
"976 144 LINE",
"322 150 LINE",
"1068 1116 LINE",
"1082 1258 LINE",
"250 1258 LINE",
"236 1114 LINE",
"890 1108 LINE",
"144 142 LINE",
"132 0 LINE"
);
}
);
width = 1066;
},
{
background = {
paths = (
{
closed = 1;
nodes = (
"116 106 LINE",
"654 872 LINE",
"116 882 LINE",
"116 984 LINE",
"796 984 LINE",
"796 878 LINE",
"258 108 LINE",
"796 98 LINE",
"796 0 LINE",
"116 0 LINE"
);
},
{
closed = 1;
nodes = (
"254 294 OFFCURVE",
"304 244 OFFCURVE",
"368 244 CURVE SMOOTH",
"432 244 OFFCURVE",
"484 294 OFFCURVE",
"484 358 CURVE SMOOTH",
"484 422 OFFCURVE",
"432 474 OFFCURVE",
"368 474 CURVE SMOOTH",
"304 474 OFFCURVE",
"254 422 OFFCURVE",
"254 358 CURVE SMOOTH"
);
},
{
closed = 1;
nodes = (
"378 462 OFFCURVE",
"428 412 OFFCURVE",
"492 412 CURVE SMOOTH",
"556 412 OFFCURVE",
"608 462 OFFCURVE",
"608 526 CURVE SMOOTH",
"608 590 OFFCURVE",
"556 642 OFFCURVE",
"492 642 CURVE SMOOTH",
"428 642 OFFCURVE",
"378 590 OFFCURVE",
"378 526 CURVE SMOOTH"
);
},
{
closed = 1;
nodes = (
"242 192 OFFCURVE",
"256 178 OFFCURVE",
"272 178 CURVE SMOOTH",
"288 178 OFFCURVE",
"302 192 OFFCURVE",
"302 208 CURVE SMOOTH",
"302 224 OFFCURVE",
"288 238 OFFCURVE",
"272 238 CURVE SMOOTH",
"256 238 OFFCURVE",
"242 224 OFFCURVE",
"242 208 CURVE SMOOTH"
);
},
{
closed = 1;
nodes = (
"564 686 OFFCURVE",
"578 672 OFFCURVE",
"594 672 CURVE SMOOTH",
"610 672 OFFCURVE",
"624 686 OFFCURVE",
"624 702 CURVE SMOOTH",
"624 718 OFFCURVE",
"610 732 OFFCURVE",
"594 732 CURVE SMOOTH",
"578 732 OFFCURVE",
"564 718 OFFCURVE",
"564 702 CURVE SMOOTH"
);
}
);
};
layerId = UUID1;
paths = (
{
closed = 1;
nodes = (
"1016 0 LINE",
"1034 216 LINE",
"420 218 LINE",
"1118 1096 LINE",
"1138 1298 LINE",
"254 1298 LINE",
"232 1082 LINE",
"850 1080 LINE",
"150 204 LINE",
"132 0 LINE"
);
}
);
width = 1132;
}
);
unicode = 005A;
},
{
glyphname = quotesingle;
lastChange = "2019-05-13 18:39:24 +0000";
layers = (
{
background = {
paths = (
{
closed = 1;
nodes = (
"46 1172 LINE",
"64 798 LINE",
"152 798 LINE",
"170 1172 LINE"
);
}
);
};
layerId = UUID0;
paths = (
{
closed = 1;
nodes = (
"262 914 LINE",
"324 1354 LINE",
"176 1354 LINE",
"154 914 LINE"
);
}
);
width = 244;
},
{
background = {
paths = (
{
closed = 1;
nodes = (
"46 1172 LINE",
"64 798 LINE",
"152 798 LINE",
"170 1172 LINE"
);
}
);
};
layerId = UUID1;
paths = (
{
closed = 1;
nodes = (
"322 878 LINE",
"396 1354 LINE",
"184 1354 LINE",
"166 878 LINE"
);
}
);
width = 324;
}
);
unicode = 0027;
},
{
glyphname = apostrophe;
lastChange = "2019-05-13 18:39:24 +0000";
layers = (
{
background = {
paths = (
{
closed = 1;
nodes = (
"94 884 OFFCURVE",
"130 854 OFFCURVE",
"178 850 CURVE",
"166 794 OFFCURVE",
"120 756 OFFCURVE",
"60 724 CURVE",
"148 676 LINE",
"242 726 OFFCURVE",
"288 814 OFFCURVE",
"288 888 CURVE SMOOTH",
"288 962 OFFCURVE",
"244 1016 OFFCURVE",
"182 1016 CURVE SMOOTH",
"130 1016 OFFCURVE",
"94 978 OFFCURVE",
"94 932 CURVE SMOOTH"
);
}
);
};
layerId = UUID0;
paths = (
{
closed = 1;
nodes = (
"360 896 OFFCURVE",
"424 1002 OFFCURVE",
"432 1094 CURVE",
"442 1182 OFFCURVE",
"398 1250 OFFCURVE",
"324 1250 CURVE SMOOTH",
"262 1250 OFFCURVE",
"216 1204 OFFCURVE",
"210 1148 CURVE SMOOTH",
"206 1088 OFFCURVE",
"244 1052 OFFCURVE",
"298 1046 CURVE",
"276 980 OFFCURVE",
"220 932 OFFCURVE",
"148 896 CURVE",
"248 838 LINE"
);
}
);
width = 332;
},
{
background = {
paths = (
{
closed = 1;
nodes = (
"94 884 OFFCURVE",
"130 854 OFFCURVE",
"178 850 CURVE",
"166 794 OFFCURVE",
"120 756 OFFCURVE",
"60 724 CURVE",
"148 676 LINE",
"242 726 OFFCURVE",
"288 814 OFFCURVE",
"288 888 CURVE SMOOTH",
"288 962 OFFCURVE",
"244 1016 OFFCURVE",
"182 1016 CURVE SMOOTH",
"130 1016 OFFCURVE",
"94 978 OFFCURVE",
"94 932 CURVE SMOOTH"
);
}
);
};
layerId = UUID1;
paths = (
{
closed = 1;
nodes = (
"426 838 OFFCURVE",
"516 974 OFFCURVE",
"528 1098 CURVE",
"540 1216 OFFCURVE",
"484 1312 OFFCURVE",
"378 1312 CURVE SMOOTH",
"292 1312 OFFCURVE",
"224 1248 OFFCURVE",
"216 1168 CURVE SMOOTH",
"210 1092 OFFCURVE",
"260 1044 OFFCURVE",
"324 1030 CURVE",
"298 956 OFFCURVE",
"226 900 OFFCURVE",
"144 856 CURVE",
"292 768 LINE"
);
}
);
width = 426;
}
);
unicode = 02BC;
},
{
glyphname = quoteleft;
lastChange = "2019-05-13 18:39:24 +0000";
layers = (
{
background = {
paths = (
{
closed = 1;
nodes = (
"218 738 OFFCURVE",
"252 776 OFFCURVE",
"252 822 CURVE SMOOTH",
"252 870 OFFCURVE",
"216 900 OFFCURVE",
"170 904 CURVE",
"182 958 OFFCURVE",
"226 998 OFFCURVE",
"288 1030 CURVE",
"202 1078 LINE",
"110 1028 OFFCURVE",
"60 942 OFFCURVE",
"60 866 CURVE SMOOTH",
"60 792 OFFCURVE",
"102 738 OFFCURVE",
"166 738 CURVE"
);
}
);
};
layerId = UUID0;
paths = (
{
closed = 1;
nodes = (
"328 836 OFFCURVE",
"374 884 OFFCURVE",
"380 942 CURVE SMOOTH",
"386 1000 OFFCURVE",
"348 1036 OFFCURVE",
"294 1042 CURVE",
"316 1106 OFFCURVE",
"370 1154 OFFCURVE",
"442 1194 CURVE",
"348 1252 LINE",
"236 1194 OFFCURVE",
"168 1090 OFFCURVE",
"158 994 CURVE SMOOTH",
"150 906 OFFCURVE",
"194 836 OFFCURVE",
"266 836 CURVE SMOOTH"
);
}
);
width = 386;
},
{
background = {
paths = (
{
closed = 1;
nodes = (
"218 738 OFFCURVE",
"252 776 OFFCURVE",
"252 822 CURVE SMOOTH",
"252 870 OFFCURVE",
"216 900 OFFCURVE",
"170 904 CURVE",
"182 958 OFFCURVE",
"226 998 OFFCURVE",
"288 1030 CURVE",
"202 1078 LINE",
"110 1028 OFFCURVE",
"60 942 OFFCURVE",
"60 866 CURVE SMOOTH",
"60 792 OFFCURVE",
"102 738 OFFCURVE",
"166 738 CURVE"
);
}
);
};
layerId = UUID1;
paths = (
{
closed = 1;
nodes = (
"392 758 OFFCURVE",
"458 822 OFFCURVE",
"466 904 CURVE SMOOTH",
"474 978 OFFCURVE",
"422 1026 OFFCURVE",
"358 1038 CURVE",
"386 1114 OFFCURVE",
"458 1170 OFFCURVE",
"542 1212 CURVE",
"402 1304 LINE",
"266 1232 OFFCURVE",
"168 1100 OFFCURVE",
"156 974 CURVE SMOOTH",
"144 854 OFFCURVE",
"202 758 OFFCURVE",
"306 758 CURVE SMOOTH"
);
}
);
width = 488;
}
);
unicode = 2018;
},
{
glyphname = quoteright;
lastChange = "2019-05-13 18:39:24 +0000";
layers = (
{
background = {
paths = (
{
closed = 1;
nodes = (
"90 1078 OFFCURVE",
"56 1040 OFFCURVE",
"56 992 CURVE SMOOTH",
"56 946 OFFCURVE",
"92 916 OFFCURVE",
"138 912 CURVE",
"126 858 OFFCURVE",
"82 816 OFFCURVE",
"20 784 CURVE",
"106 738 LINE",
"198 786 OFFCURVE",
"248 872 OFFCURVE",
"248 950 CURVE SMOOTH",
"248 1022 OFFCURVE",
"204 1078 OFFCURVE",
"142 1078 CURVE"
);
}
);
};
layerId = UUID0;
paths = (
{
closed = 1;
nodes = (
"316 898 OFFCURVE",
"386 1000 OFFCURVE",
"394 1094 CURVE",
"404 1186 OFFCURVE",
"360 1252 OFFCURVE",
"286 1252 CURVE SMOOTH",
"224 1252 OFFCURVE",
"178 1206 OFFCURVE",
"172 1148 CURVE SMOOTH",
"168 1090 OFFCURVE",
"206 1054 OFFCURVE",
"260 1048 CURVE",
"238 984 OFFCURVE",
"184 936 OFFCURVE",
"112 896 CURVE",
"206 836 LINE"
);
}
);
width = 386;
},
{
background = {
paths = (
{
closed = 1;
nodes = (
"90 1078 OFFCURVE",
"56 1040 OFFCURVE",
"56 992 CURVE SMOOTH",
"56 946 OFFCURVE",
"92 916 OFFCURVE",
"138 912 CURVE",
"126 858 OFFCURVE",
"82 816 OFFCURVE",
"20 784 CURVE",
"106 738 LINE",
"198 786 OFFCURVE",
"248 872 OFFCURVE",
"248 950 CURVE SMOOTH",
"248 1022 OFFCURVE",
"204 1078 OFFCURVE",
"142 1078 CURVE"
);
}
);
};
layerId = UUID1;
paths = (
{
closed = 1;
nodes = (
"404 830 OFFCURVE",
"504 960 OFFCURVE",
"516 1088 CURVE",
"528 1208 OFFCURVE",
"470 1304 OFFCURVE",
"368 1304 CURVE SMOOTH",
"280 1304 OFFCURVE",
"214 1242 OFFCURVE",
"206 1160 CURVE SMOOTH",
"198 1084 OFFCURVE",
"246 1036 OFFCURVE",
"314 1024 CURVE",
"286 950 OFFCURVE",
"216 892 OFFCURVE",
"132 848 CURVE",
"270 758 LINE"
);
}
);
width = 488;
}
);
unicode = 2019;
},
{
glyphname = parenleft;
lastChange = "2019-05-13 18:39:24 +0000";
layers = (
{
background = {
paths = (
{
closed = 1;
nodes = (
"120 506 LINE",
"120 566 OFFCURVE",
"230 648 OFFCURVE",
"444 692 CURVE",
"540 722 LINE",
"352 672 OFFCURVE",
"256 574 OFFCURVE",
"256 506 CURVE"
);
}
);
};
layerId = UUID0;
paths = (
{
closed = 1;
nodes = (
"368 1218 OFFCURVE",
"218 922 OFFCURVE",
"188 614 CURVE SMOOTH",
"160 308 OFFCURVE",
"254 10 OFFCURVE",
"466 -226 CURVE",
"576 -146 LINE",
"392 84 OFFCURVE",
"312 344 OFFCURVE",
"336 614 CURVE SMOOTH",
"362 886 OFFCURVE",
"494 1144 OFFCURVE",
"720 1374 CURVE",
"624 1456 LINE"
);
}
);
width = 640;
},
{
background = {
paths = (
{
closed = 1;
nodes = (
"120 506 LINE",
"120 566 OFFCURVE",
"230 648 OFFCURVE",
"444 692 CURVE",
"540 722 LINE",
"352 672 OFFCURVE",
"256 574 OFFCURVE",
"256 506 CURVE"
);
}
);
};
layerId = UUID1;
paths = (
{
closed = 1;
nodes = (
"368 1256 OFFCURVE",
"222 962 OFFCURVE",
"190 636 CURVE SMOOTH",
"160 312 OFFCURVE",
"250 18 OFFCURVE",
"484 -236 CURVE",
"650 -108 LINE",
"466 130 OFFCURVE",
"386 364 OFFCURVE",
"410 636 CURVE SMOOTH",
"436 910 OFFCURVE",
"564 1144 OFFCURVE",
"790 1384 CURVE",
"650 1508 LINE"
);
}
);
width = 720;
}
);
unicode = 0028;
},
{
glyphname = parenright;
lastChange = "2019-05-13 18:39:24 +0000";
layers = (
{
layerId = UUID0;
paths = (
{
closed = 1;
nodes = (
"386 10 OFFCURVE",
"538 308 OFFCURVE",
"566 614 CURVE SMOOTH",
"596 922 OFFCURVE",
"502 1218 OFFCURVE",
"290 1456 CURVE",
"180 1374 LINE",
"364 1144 OFFCURVE",
"444 886 OFFCURVE",
"420 614 CURVE",
"394 344 OFFCURVE",
"262 84 OFFCURVE",
"36 -146 CURVE",
"132 -226 LINE"
);
}
);
width = 640;
},
{
layerId = UUID1;
paths = (
{
closed = 1;
nodes = (
"468 18 OFFCURVE",
"618 312 OFFCURVE",
"648 636 CURVE SMOOTH",
"678 962 OFFCURVE",
"586 1256 OFFCURVE",
"354 1508 CURVE",
"188 1384 LINE",
"372 1144 OFFCURVE",
"454 910 OFFCURVE",
"428 636 CURVE",
"404 364 OFFCURVE",
"276 130 OFFCURVE",
"46 -108 CURVE",
"188 -236 LINE"
);
}
);
width = 720;
}
);
unicode = 0029;
},
{
glyphname = plus;
lastChange = "2019-05-13 18:39:24 +0000";
layers = (
{
background = {
paths = (
{
closed = 1;
nodes = (
"372 850 LINE",
"372 478 LINE",
"30 478 LINE",
"30 372 LINE",
"372 372 LINE",
"372 0 LINE",
"490 0 LINE",
"490 372 LINE",
"834 372 LINE",
"834 478 LINE",
"490 478 LINE",
"490 850 LINE"
);
}
);
};
layerId = UUID0;
paths = (
{
closed = 1;
nodes = (
"456 558 LINE",
"84 558 LINE",
"72 424 LINE",
"442 424 LINE",
"404 0 LINE",
"546 0 LINE",
"584 424 LINE",
"956 424 LINE",
"968 558 LINE",
"598 558 LINE",
"638 982 LINE",
"494 982 LINE"
);
}
);
width = 948;
},
{
background = {
paths = (
{
closed = 1;
nodes = (
"372 850 LINE",
"372 478 LINE",
"30 478 LINE",
"30 372 LINE",
"372 372 LINE",
"372 0 LINE",
"490 0 LINE",
"490 372 LINE",
"834 372 LINE",
"834 478 LINE",
"490 478 LINE",
"490 850 LINE"
);
}
);
};
layerId = UUID1;
paths = (
{
closed = 1;
nodes = (
"440 594 LINE",
"88 594 LINE",
"68 388 LINE",
"420 388 LINE",
"384 0 LINE",
"596 0 LINE",
"632 388 LINE",
"982 388 LINE",
"1002 594 LINE",
"652 594 LINE",
"688 982 LINE",
"476 982 LINE"
);
}
);
width = 980;
}
);
unicode = 002B;
},
{
glyphname = minus;
lastChange = "2019-05-13 18:39:24 +0000";
layers = (
{
background = {
paths = (
{
closed = 1;
nodes = (
"130 474 LINE",
"130 368 LINE",
"668 368 LINE",
"668 474 LINE"
);
}
);
};
layerId = UUID0;
paths = (
{
closed = 1;
nodes = (
"46 420 LINE",
"922 420 LINE",
"942 554 LINE",
"66 554 LINE"
);
}
);
width = 948;
},
{
background = {
paths = (
{
closed = 1;
nodes = (
"130 474 LINE",
"130 368 LINE",
"668 368 LINE",
"668 474 LINE"
);
}
);
};
layerId = UUID1;
paths = (
{
closed = 1;
nodes = (
"36 382 LINE",
"940 382 LINE",
"970 588 LINE",
"64 588 LINE"
);
}
);
width = 980;
}
);
unicode = 2212;
},
{
glyphname = equal;
lastChange = "2019-05-13 18:39:24 +0000";
layers = (
{
background = {
paths = (
{
closed = 1;
nodes = (
"130 316 LINE",
"130 208 LINE",
"668 208 LINE",
"668 316 LINE"
);
},
{
closed = 1;
nodes = (
"130 642 LINE",
"130 536 LINE",
"668 536 LINE",
"668 642 LINE"
);
}
);
};
layerId = UUID0;
paths = (
{
closed = 1;
nodes = (
"164 234 LINE",
"758 234 LINE",
"770 370 LINE",
"176 370 LINE"
);
},
{
closed = 1;
nodes = (
"200 616 LINE",
"794 616 LINE",
"806 754 LINE",
"212 754 LINE"
);
}
);
width = 878;
},
{
background = {
paths = (
{
closed = 1;
nodes = (
"130 316 LINE",
"130 208 LINE",
"668 208 LINE",
"668 316 LINE"
);
},
{
closed = 1;
nodes = (
"130 642 LINE",
"130 536 LINE",
"668 536 LINE",
"668 642 LINE"
);
}
);
};
layerId = UUID1;
paths = (
{
closed = 1;
nodes = (
"158 190 LINE",
"784 190 LINE",
"804 396 LINE",
"178 396 LINE"
);
},
{
closed = 1;
nodes = (
"200 612 LINE",
"826 612 LINE",
"844 816 LINE",
"218 816 LINE"
);
}
);
width = 910;
}
);
unicode = 003D;
},
{
glyphname = zero;
lastChange = "2019-05-13 18:39:24 +0000";
layers = (
{
layerId = UUID0;
paths = (
{
closed = 1;
nodes = (
"798 -22 OFFCURVE",
"998 194 OFFCURVE",
"1038 630 CURVE SMOOTH",
"1078 1064 OFFCURVE",
"922 1280 OFFCURVE",
"656 1280 CURVE SMOOTH",
"388 1280 OFFCURVE",
"190 1064 OFFCURVE",
"152 630 CURVE",
"110 194 OFFCURVE",
"264 -22 OFFCURVE",
"530 -22 CURVE SMOOTH"
);
},
{
closed = 1;
nodes = (
"354 122 OFFCURVE",
"266 304 OFFCURVE",
"298 630 CURVE SMOOTH",
"330 954 OFFCURVE",
"450 1136 OFFCURVE",
"640 1136 CURVE SMOOTH",
"836 1136 OFFCURVE",
"922 954 OFFCURVE",
"890 630 CURVE SMOOTH",
"858 304 OFFCURVE",
"740 122 OFFCURVE",
"546 122 CURVE SMOOTH"
);
}
);
width = 1070;
},
{
layerId = UUID1;
paths = (
{
closed = 1;
nodes = (
"852 -28 OFFCURVE",
"1072 192 OFFCURVE",
"1116 648 CURVE SMOOTH",
"1160 1106 OFFCURVE",
"980 1324 OFFCURVE",
"694 1324 CURVE SMOOTH",
"406 1324 OFFCURVE",
"188 1106 OFFCURVE",
"146 648 CURVE",
"102 192 OFFCURVE",
"278 -28 OFFCURVE",
"566 -28 CURVE SMOOTH"
);
},
{
closed = 1;
nodes = (
"418 190 OFFCURVE",
"336 352 OFFCURVE",
"366 648 CURVE SMOOTH",
"392 946 OFFCURVE",
"506 1110 OFFCURVE",
"674 1110 CURVE SMOOTH",
"842 1110 OFFCURVE",
"924 946 OFFCURVE",
"896 648 CURVE SMOOTH",
"868 352 OFFCURVE",
"754 190 OFFCURVE",
"586 190 CURVE SMOOTH"
);
}
);
width = 1140;
}
);
unicode = 0030;
},
{
glyphname = one;
lastChange = "2019-05-13 18:39:24 +0000";
layers = (
{
layerId = UUID0;
paths = (
{
closed = 1;
nodes = (
"348 1200 OFFCURVE",
"272 1170 OFFCURVE",
"196 1160 CURVE",
"182 1004 LINE",
"242 1008 OFFCURVE",
"312 1032 OFFCURVE",
"374 1074 CURVE",
"274 0 LINE",
"414 0 LINE",
"532 1262 LINE",
"418 1262 LINE"
);
}
);
width = 596;
},
{
layerId = UUID1;
paths = (
{
closed = 1;
nodes = (
"350 1240 OFFCURVE",
"270 1212 OFFCURVE",
"188 1200 CURVE",
"168 974 LINE",
"228 974 OFFCURVE",
"292 990 OFFCURVE",
"356 1024 CURVE",
"260 0 LINE",
"474 0 LINE",
"596 1306 LINE",
"436 1306 LINE"
);
}
);
width = 642;
}
);
unicode = 0031;
},
{
glyphname = two;
lastChange = "2019-05-13 18:39:24 +0000";
layers = (
{
layerId = UUID0;
paths = (
{
closed = 1;
nodes = (
"286 314 OFFCURVE",
"348 378 OFFCURVE",
"468 430 CURVE SMOOTH",
"706 532 LINE SMOOTH",
"878 604 OFFCURVE",
"990 718 OFFCURVE",
"1010 914 CURVE SMOOTH",
"1030 1126 OFFCURVE",
"882 1280 OFFCURVE",
"662 1280 CURVE SMOOTH",
"424 1280 OFFCURVE",
"256 1158 OFFCURVE",
"224 940 CURVE",
"380 940 LINE",
"406 1072 OFFCURVE",
"510 1140 OFFCURVE",
"650 1140 CURVE SMOOTH",
"792 1140 OFFCURVE",
"870 1050 OFFCURVE",
"856 922 CURVE",
"846 800 OFFCURVE",
"778 722 OFFCURVE",
"660 672 CURVE SMOOTH",
"428 572 LINE SMOOTH",
"262 502 OFFCURVE",
"152 404 OFFCURVE",
"132 186 CURVE SMOOTH",
"116 0 LINE",
"914 0 LINE",
"926 146 LINE",
"270 146 LINE",
"276 206 LINE"
);
}
);
width = 1044;
},
{
layerId = UUID1;
paths = (
{
closed = 1;
nodes = (
"350 332 OFFCURVE",
"394 376 OFFCURVE",
"492 416 CURVE SMOOTH",
"746 520 LINE SMOOTH",
"954 608 OFFCURVE",
"1064 730 OFFCURVE",
"1082 930 CURVE SMOOTH",
"1106 1166 OFFCURVE",
"934 1324 OFFCURVE",
"698 1324 CURVE SMOOTH",
"448 1324 OFFCURVE",
"244 1194 OFFCURVE",
"214 928 CURVE",
"450 928 LINE",
"476 1052 OFFCURVE",
"566 1118 OFFCURVE",
"682 1118 CURVE SMOOTH",
"804 1118 OFFCURVE",
"864 1040 OFFCURVE",
"854 940 CURVE",
"846 840 OFFCURVE",
"790 774 OFFCURVE",
"682 728 CURVE SMOOTH",
"432 626 LINE SMOOTH",
"246 550 OFFCURVE",
"150 440 OFFCURVE",
"128 222 CURVE SMOOTH",
"108 0 LINE",
"988 0 LINE",
"1008 216 LINE",
"340 216 LINE",
"344 254 LINE"
);
}
);
width = 1088;
}
);
unicode = 0032;
},
{
glyphname = three;
lastChange = "2019-05-13 18:39:24 +0000";
layers = (
{
layerId = UUID0;
paths = (
{
closed = 1;
nodes = (
"790 -22 OFFCURVE",
"962 128 OFFCURVE",
"984 346 CURVE",
"998 508 OFFCURVE",
"910 612 OFFCURVE",
"772 658 CURVE",
"906 708 OFFCURVE",
"984 804 OFFCURVE",
"998 936 CURVE",
"1016 1136 OFFCURVE",
"862 1280 OFFCURVE",
"638 1280 CURVE SMOOTH",
"436 1280 OFFCURVE",
"266 1186 OFFCURVE",
"216 952 CURVE",
"364 952 LINE",
"406 1092 OFFCURVE",
"510 1136 OFFCURVE",
"626 1136 CURVE SMOOTH",
"778 1136 OFFCURVE",
"854 1042 OFFCURVE",
"842 920 CURVE SMOOTH",
"830 788 OFFCURVE",
"714 706 OFFCURVE",
"542 706 CURVE SMOOTH",
"454 706 LINE",
"440 580 LINE",
"570 580 LINE SMOOTH",
"770 580 OFFCURVE",
"844 486 OFFCURVE",
"832 358 CURVE SMOOTH",
"818 224 OFFCURVE",
"712 122 OFFCURVE",
"548 122 CURVE SMOOTH",
"382 122 OFFCURVE",
"264 214 OFFCURVE",
"278 386 CURVE",
"130 386 LINE",
"104 118 OFFCURVE",
"304 -22 OFFCURVE",
"532 -22 CURVE SMOOTH"
);
}
);
width = 1064;
},
{
layerId = UUID1;
paths = (
{
closed = 1;
nodes = (
"838 -28 OFFCURVE",
"1040 134 OFFCURVE",
"1062 364 CURVE",
"1076 520 OFFCURVE",
"992 626 OFFCURVE",
"856 680 CURVE",
"988 728 OFFCURVE",
"1064 830 OFFCURVE",
"1076 962 CURVE",
"1096 1178 OFFCURVE",
"926 1324 OFFCURVE",
"672 1324 CURVE SMOOTH",
"432 1324 OFFCURVE",
"242 1210 OFFCURVE",
"192 944 CURVE",
"416 944 LINE",
"452 1066 OFFCURVE",
"550 1110 OFFCURVE",
"660 1110 CURVE SMOOTH",
"796 1110 OFFCURVE",
"854 1034 OFFCURVE",
"846 934 CURVE SMOOTH",
"836 822 OFFCURVE",
"746 752 OFFCURVE",
"610 752 CURVE SMOOTH",
"476 752 LINE",
"458 566 LINE",
"614 566 LINE SMOOTH",
"776 566 OFFCURVE",
"844 498 OFFCURVE",
"834 386 CURVE SMOOTH",
"822 272 OFFCURVE",
"726 190 OFFCURVE",
"580 190 CURVE SMOOTH",
"430 190 OFFCURVE",
"338 272 OFFCURVE",
"344 408 CURVE",
"116 408 LINE",
"90 122 OFFCURVE",
"314 -28 OFFCURVE",
"560 -28 CURVE SMOOTH"
);
}
);
width = 1120;
}
);
unicode = 0033;
},
{
glyphname = four;
lastChange = "2019-05-13 18:39:24 +0000";
layers = (
{
background = {
paths = (
{
closed = 1;
nodes = (
"106 326 OFFCURVE",
"120 312 OFFCURVE",
"136 312 CURVE SMOOTH",
"152 312 OFFCURVE",
"166 326 OFFCURVE",
"166 342 CURVE SMOOTH",
"166 358 OFFCURVE",
"152 372 OFFCURVE",
"136 372 CURVE SMOOTH",
"120 372 OFFCURVE",
"106 358 OFFCURVE",
"106 342 CURVE SMOOTH"
);
},
{
closed = 1;
nodes = (
"382 682 OFFCURVE",
"396 668 OFFCURVE",
"412 668 CURVE SMOOTH",
"428 668 OFFCURVE",
"442 682 OFFCURVE",
"442 698 CURVE SMOOTH",
"442 714 OFFCURVE",
"428 728 OFFCURVE",
"412 728 CURVE SMOOTH",
"396 728 OFFCURVE",
"382 714 OFFCURVE",
"382 698 CURVE SMOOTH"
);
}
);
};
layerId = UUID0;
paths = (
{
closed = 1;
nodes = (
"770 0 LINE",
"798 304 LINE",
"994 304 LINE",
"1008 440 LINE",
"812 440 LINE",
"890 1276 LINE",
"760 1276 LINE",
"86 426 LINE",
"74 304 LINE",
"658 304 LINE",
"632 0 LINE"
);
},
{
closed = 1;
nodes = (
"730 1026 LINE",
"674 426 LINE",
"256 426 LINE"
);
}
);
width = 1006;
},
{
background = {
paths = (
{
closed = 1;
nodes = (
"106 326 OFFCURVE",
"120 312 OFFCURVE",
"136 312 CURVE SMOOTH",
"152 312 OFFCURVE",
"166 326 OFFCURVE",
"166 342 CURVE SMOOTH",
"166 358 OFFCURVE",
"152 372 OFFCURVE",
"136 372 CURVE SMOOTH",
"120 372 OFFCURVE",
"106 358 OFFCURVE",
"106 342 CURVE SMOOTH"
);
},
{
closed = 1;
nodes = (
"382 682 OFFCURVE",
"396 668 OFFCURVE",
"412 668 CURVE SMOOTH",
"428 668 OFFCURVE",
"442 682 OFFCURVE",
"442 698 CURVE SMOOTH",
"442 714 OFFCURVE",
"428 728 OFFCURVE",
"412 728 CURVE SMOOTH",
"396 728 OFFCURVE",
"382 714 OFFCURVE",
"382 698 CURVE SMOOTH"
);
}
);
};
layerId = UUID1;
paths = (
{
closed = 1;
nodes = (
"842 0 LINE",
"870 288 LINE",
"1072 288 LINE",
"1090 490 LINE",
"888 490 LINE",
"964 1312 LINE",
"760 1312 LINE",
"82 466 LINE",
"66 288 LINE",
"658 288 LINE",
"632 0 LINE"
);
},
{
closed = 1;
nodes = (
"732 962 LINE",
"686 466 LINE",
"334 466 LINE"
);
}
);
width = 1070;
}
);
unicode = 0034;
},
{
glyphname = five;
lastChange = "2019-05-13 18:39:24 +0000";
layers = (
{
background = {
paths = (
{
closed = 1;
nodes = (
"214 1036 LINE",
"168 532 LINE",
"432 532 LINE SMOOTH",
"604 532 OFFCURVE",
"692 464 OFFCURVE",
"692 332 CURVE SMOOTH",
"692 198 OFFCURVE",
"606 100 OFFCURVE",
"458 100 CURVE SMOOTH",
"332 100 OFFCURVE",
"238 164 OFFCURVE",
"238 288 CURVE",
"106 288 LINE",
"106 86 OFFCURVE",
"272 -18 OFFCURVE",
"458 -18 CURVE SMOOTH",
"688 -18 OFFCURVE",
"826 132 OFFCURVE",
"826 334 CURVE SMOOTH",
"826 520 OFFCURVE",
"694 634 OFFCURVE",
"466 634 CURVE SMOOTH",
"414 634 OFFCURVE",
"346 628 OFFCURVE",
"294 616 CURVE",
"310 602 LINE",
"344 962 LINE",
"318 916 LINE",
"788 916 LINE",
"788 1036 LINE"
);
},
{
closed = 1;
nodes = (
"214 1036 LINE",
"168 532 LINE",
"432 532 LINE SMOOTH",
"604 532 OFFCURVE",
"692 464 OFFCURVE",
"692 332 CURVE SMOOTH",
"692 198 OFFCURVE",
"606 100 OFFCURVE",
"458 100 CURVE SMOOTH",
"332 100 OFFCURVE",
"238 164 OFFCURVE",
"238 288 CURVE",
"106 288 LINE",
"106 86 OFFCURVE",
"272 -18 OFFCURVE",
"458 -18 CURVE SMOOTH",
"688 -18 OFFCURVE",
"826 132 OFFCURVE",
"826 334 CURVE SMOOTH",
"826 520 OFFCURVE",
"694 634 OFFCURVE",
"466 634 CURVE SMOOTH",
"414 634 OFFCURVE",
"346 628 OFFCURVE",
"294 616 CURVE",
"310 602 LINE",
"344 962 LINE",
"318 916 LINE",
"788 916 LINE",
"788 1036 LINE"
);
}
);
};
layerId = UUID0;
paths = (
{
closed = 1;
nodes = (
"756 -22 OFFCURVE",
"930 162 OFFCURVE",
"954 408 CURVE SMOOTH",
"976 646 OFFCURVE",
"836 770 OFFCURVE",
"590 770 CURVE SMOOTH",
"538 770 OFFCURVE",
"468 762 OFFCURVE",
"410 752 CURVE",
"476 1114 LINE",
"966 1114 LINE",
"980 1258 LINE",
"352 1258 LINE",
"244 646 LINE",
"548 646 LINE SMOOTH",
"730 646 OFFCURVE",
"820 564 OFFCURVE",
"806 408 CURVE SMOOTH",
"790 244 OFFCURVE",
"680 122 OFFCURVE",
"520 122 CURVE SMOOTH",
"380 122 OFFCURVE",
"278 200 OFFCURVE",
"292 350 CURVE",
"150 350 LINE",
"128 108 OFFCURVE",
"292 -22 OFFCURVE",
"506 -22 CURVE SMOOTH"
);
}
);
width = 1016;
},
{
background = {
paths = (
{
closed = 1;
nodes = (
"214 1036 LINE",
"168 532 LINE",
"432 532 LINE SMOOTH",
"604 532 OFFCURVE",
"692 464 OFFCURVE",
"692 332 CURVE SMOOTH",
"692 198 OFFCURVE",
"606 100 OFFCURVE",
"458 100 CURVE SMOOTH",
"332 100 OFFCURVE",
"238 164 OFFCURVE",
"238 288 CURVE",
"106 288 LINE",
"106 86 OFFCURVE",
"272 -18 OFFCURVE",
"458 -18 CURVE SMOOTH",
"688 -18 OFFCURVE",
"826 132 OFFCURVE",
"826 334 CURVE SMOOTH",
"826 520 OFFCURVE",
"694 634 OFFCURVE",
"466 634 CURVE SMOOTH",
"414 634 OFFCURVE",
"346 628 OFFCURVE",
"294 616 CURVE",
"310 602 LINE",
"344 962 LINE",
"318 916 LINE",
"788 916 LINE",
"788 1036 LINE"
);
},
{
closed = 1;
nodes = (
"214 1036 LINE",
"168 532 LINE",
"432 532 LINE SMOOTH",
"604 532 OFFCURVE",
"692 464 OFFCURVE",
"692 332 CURVE SMOOTH",
"692 198 OFFCURVE",
"606 100 OFFCURVE",
"458 100 CURVE SMOOTH",
"332 100 OFFCURVE",
"238 164 OFFCURVE",
"238 288 CURVE",
"106 288 LINE",
"106 86 OFFCURVE",
"272 -18 OFFCURVE",
"458 -18 CURVE SMOOTH",
"688 -18 OFFCURVE",
"826 132 OFFCURVE",
"826 334 CURVE SMOOTH",
"826 520 OFFCURVE",
"694 634 OFFCURVE",
"466 634 CURVE SMOOTH",
"414 634 OFFCURVE",
"346 628 OFFCURVE",
"294 616 CURVE",
"310 602 LINE",
"344 962 LINE",
"318 916 LINE",
"788 916 LINE",
"788 1036 LINE"
);
}
);
};
layerId = UUID1;
paths = (
{
closed = 1;
nodes = (
"798 -28 OFFCURVE",
"994 174 OFFCURVE",
"1016 432 CURVE SMOOTH",
"1040 674 OFFCURVE",
"896 808 OFFCURVE",
"656 808 CURVE SMOOTH",
"604 808 OFFCURVE",
"528 800 OFFCURVE",
"468 790 CURVE",
"522 1082 LINE",
"1016 1082 LINE",
"1036 1298 LINE",
"336 1298 LINE",
"220 630 LINE",
"576 630 LINE SMOOTH",
"736 630 OFFCURVE",
"810 562 OFFCURVE",
"798 432 CURVE SMOOTH",
"784 294 OFFCURVE",
"682 190 OFFCURVE",
"550 190 CURVE SMOOTH",
"428 190 OFFCURVE",
"344 254 OFFCURVE",
"356 388 CURVE",
"138 388 LINE",
"118 122 OFFCURVE",
"278 -28 OFFCURVE",
"530 -28 CURVE SMOOTH"
);
}
);
width = 1048;
}
);
unicode = 0035;
},
{
glyphname = six;
lastChange = "2019-05-13 18:39:24 +0000";
layers = (
{
layerId = UUID0;
paths = (
{
closed = 1;
nodes = (
"768 -24 OFFCURVE",
"938 132 OFFCURVE",
"962 364 CURVE SMOOTH",
"982 594 OFFCURVE",
"842 758 OFFCURVE",
"638 758 CURVE SMOOTH",
"480 758 OFFCURVE",
"324 672 OFFCURVE",
"282 408 CURVE",
"266 848 OFFCURVE",
"440 1136 OFFCURVE",
"672 1136 CURVE SMOOTH",
"792 1136 OFFCURVE",
"846 1060 OFFCURVE",
"854 940 CURVE",
"1006 940 LINE",
"1008 1142 OFFCURVE",
"886 1280 OFFCURVE",
"682 1280 CURVE SMOOTH",
"392 1280 OFFCURVE",
"188 1028 OFFCURVE",
"148 606 CURVE SMOOTH",
"116 248 OFFCURVE",
"266 -24 OFFCURVE",
"538 -24 CURVE SMOOTH"
);
},
{
closed = 1;
nodes = (
"420 122 OFFCURVE",
"326 216 OFFCURVE",
"340 370 CURVE SMOOTH",
"352 510 OFFCURVE",
"466 618 OFFCURVE",
"600 618 CURVE SMOOTH",
"736 618 OFFCURVE",
"828 524 OFFCURVE",
"814 370 CURVE SMOOTH",
"800 216 OFFCURVE",
"690 122 OFFCURVE",
"552 122 CURVE SMOOTH"
);
}
);
width = 1032;
},
{
layerId = UUID1;
paths = (
{
closed = 1;
nodes = (
"828 -28 OFFCURVE",
"1016 138 OFFCURVE",
"1040 384 CURVE SMOOTH",
"1062 624 OFFCURVE",
"926 796 OFFCURVE",
"706 796 CURVE SMOOTH",
"552 796 OFFCURVE",
"400 720 OFFCURVE",
"350 476 CURVE",
"350 860 OFFCURVE",
"492 1110 OFFCURVE",
"702 1110 CURVE SMOOTH",
"802 1110 OFFCURVE",
"850 1046 OFFCURVE",
"854 942 CURVE",
"1080 942 LINE",
"1092 1172 OFFCURVE",
"946 1324 OFFCURVE",
"714 1324 CURVE SMOOTH",
"412 1324 OFFCURVE",
"184 1074 OFFCURVE",
"142 626 CURVE SMOOTH",
"106 248 OFFCURVE",
"284 -28 OFFCURVE",
"578 -28 CURVE SMOOTH"
);
},
{
closed = 1;
nodes = (
"484 190 OFFCURVE",
"402 270 OFFCURVE",
"414 394 CURVE SMOOTH",
"424 518 OFFCURVE",
"524 602 OFFCURVE",
"636 602 CURVE SMOOTH",
"750 602 OFFCURVE",
"832 524 OFFCURVE",
"820 394 CURVE SMOOTH",
"808 270 OFFCURVE",
"712 190 OFFCURVE",
"598 190 CURVE SMOOTH"
);
}
);
width = 1092;
}
);
unicode = 0036;
},
{
glyphname = seven;
lastChange = "2019-05-13 18:39:24 +0000";
layers = (
{
layerId = UUID0;
paths = (
{
closed = 1;
nodes = (
"296 0 LINE",
"918 1112 LINE",
"932 1258 LINE",
"162 1258 LINE",
"148 1106 LINE",
"752 1106 LINE",
"104 0 LINE"
);
}
);
width = 846;
},
{
layerId = UUID1;
paths = (
{
closed = 1;
nodes = (
"366 0 LINE",
"964 1072 LINE",
"986 1298 LINE",
"166 1298 LINE",
"144 1070 LINE",
"714 1070 LINE",
"80 0 LINE"
);
}
);
width = 896;
}
);
unicode = 0037;
},
{
glyphname = eight;
lastChange = "2019-05-13 18:39:24 +0000";
layers = (
{
background = {
paths = (
{
closed = 1;
nodes = (
"266 1054 OFFCURVE",
"126 938 OFFCURVE",
"126 780 CURVE SMOOTH",
"126 636 OFFCURVE",
"252 554 OFFCURVE",
"354 514 CURVE SMOOTH",
"640 404 LINE SMOOTH",
"730 372 OFFCURVE",
"788 326 OFFCURVE",
"788 254 CURVE SMOOTH",
"788 162 OFFCURVE",
"684 100 OFFCURVE",
"506 100 CURVE SMOOTH",
"346 100 OFFCURVE",
"226 168 OFFCURVE",
"226 286 CURVE SMOOTH",
"226 386 OFFCURVE",
"336 476 OFFCURVE",
"500 476 CURVE",
"500 518 LINE",
"464 526 OFFCURVE",
"438 530 OFFCURVE",
"404 530 CURVE SMOOTH",
"224 530 OFFCURVE",
"90 434 OFFCURVE",
"90 276 CURVE SMOOTH",
"90 106 OFFCURVE",
"262 -18 OFFCURVE",
"506 -18 CURVE SMOOTH",
"770 -18 OFFCURVE",
"924 94 OFFCURVE",
"924 260 CURVE SMOOTH",
"924 392 OFFCURVE",
"840 462 OFFCURVE",
"688 520 CURVE SMOOTH",
"402 630 LINE SMOOTH",
"312 664 OFFCURVE",
"260 700 OFFCURVE",
"260 774 CURVE SMOOTH",
"260 864 OFFCURVE",
"366 934 OFFCURVE",
"506 934 CURVE SMOOTH",
"650 934 OFFCURVE",
"748 862 OFFCURVE",
"748 758 CURVE SMOOTH",
"748 652 OFFCURVE",
"644 580 OFFCURVE",
"512 580 CURVE",
"512 538 LINE",
"546 528 OFFCURVE",
"570 526 OFFCURVE",
"600 526 CURVE SMOOTH",
"786 526 OFFCURVE",
"884 638 OFFCURVE",
"884 766 CURVE SMOOTH",
"884 930 OFFCURVE",
"724 1054 OFFCURVE",
"506 1054 CURVE SMOOTH"
);
}
);
};
layerId = UUID0;
paths = (
{
closed = 1;
nodes = (
"836 -22 OFFCURVE",
"1018 114 OFFCURVE",
"1038 314 CURVE SMOOTH",
"1054 476 OFFCURVE",
"970 560 OFFCURVE",
"812 630 CURVE SMOOTH",
"782 642 LINE",
"944 670 OFFCURVE",
"1040 794 OFFCURVE",
"1052 930 CURVE SMOOTH",
"1072 1130 OFFCURVE",
"912 1280 OFFCURVE",
"674 1280 CURVE SMOOTH",
"410 1280 OFFCURVE",
"242 1140 OFFCURVE",
"224 946 CURVE SMOOTH",
"208 786 OFFCURVE",
"320 688 OFFCURVE",
"420 636 CURVE",
"262 610 OFFCURVE",
"144 500 OFFCURVE",
"130 336 CURVE SMOOTH",
"110 130 OFFCURVE",
"282 -22 OFFCURVE",
"548 -22 CURVE SMOOTH"
);
},
{
closed = 1;
nodes = (
"390 122 OFFCURVE",
"264 204 OFFCURVE",
"278 350 CURVE SMOOTH",
"288 460 OFFCURVE",
"398 560 OFFCURVE",
"550 578 CURVE",
"746 494 LINE",
"840 454 OFFCURVE",
"898 396 OFFCURVE",
"890 310 CURVE SMOOTH",
"880 198 OFFCURVE",
"758 122 OFFCURVE",
"564 122 CURVE SMOOTH"
);
},
{
closed = 1;
nodes = (
"512 762 LINE SMOOTH",
"418 804 OFFCURVE",
"366 850 OFFCURVE",
"374 940 CURVE SMOOTH",
"386 1048 OFFCURVE",
"506 1136 OFFCURVE",
"658 1136 CURVE SMOOTH",
"818 1136 OFFCURVE",
"918 1048 OFFCURVE",
"906 922 CURVE SMOOTH",
"892 796 OFFCURVE",
"778 710 OFFCURVE",
"638 706 CURVE"
);
}
);
width = 1106;
},
{
background = {
paths = (
{
closed = 1;
nodes = (
"266 1054 OFFCURVE",
"126 938 OFFCURVE",
"126 780 CURVE SMOOTH",
"126 636 OFFCURVE",
"252 554 OFFCURVE",
"354 514 CURVE SMOOTH",
"640 404 LINE SMOOTH",
"730 372 OFFCURVE",
"788 326 OFFCURVE",
"788 254 CURVE SMOOTH",
"788 162 OFFCURVE",
"684 100 OFFCURVE",
"506 100 CURVE SMOOTH",
"346 100 OFFCURVE",
"226 168 OFFCURVE",
"226 286 CURVE SMOOTH",
"226 386 OFFCURVE",
"336 476 OFFCURVE",
"500 476 CURVE",
"500 518 LINE",
"464 526 OFFCURVE",
"438 530 OFFCURVE",
"404 530 CURVE SMOOTH",
"224 530 OFFCURVE",
"90 434 OFFCURVE",
"90 276 CURVE SMOOTH",
"90 106 OFFCURVE",
"262 -18 OFFCURVE",
"506 -18 CURVE SMOOTH",
"770 -18 OFFCURVE",
"924 94 OFFCURVE",
"924 260 CURVE SMOOTH",
"924 392 OFFCURVE",
"840 462 OFFCURVE",
"688 520 CURVE SMOOTH",
"402 630 LINE SMOOTH",
"312 664 OFFCURVE",
"260 700 OFFCURVE",
"260 774 CURVE SMOOTH",
"260 864 OFFCURVE",
"366 934 OFFCURVE",
"506 934 CURVE SMOOTH",
"650 934 OFFCURVE",
"748 862 OFFCURVE",
"748 758 CURVE SMOOTH",
"748 652 OFFCURVE",
"644 580 OFFCURVE",
"512 580 CURVE",
"512 538 LINE",
"546 528 OFFCURVE",
"570 526 OFFCURVE",
"600 526 CURVE SMOOTH",
"786 526 OFFCURVE",
"884 638 OFFCURVE",
"884 766 CURVE SMOOTH",
"884 930 OFFCURVE",
"724 1054 OFFCURVE",
"506 1054 CURVE SMOOTH"
);
}
);
};
layerId = UUID1;
paths = (
{
closed = 1;
nodes = (
"892 -28 OFFCURVE",
"1088 128 OFFCURVE",
"1108 344 CURVE SMOOTH",
"1124 516 OFFCURVE",
"1036 600 OFFCURVE",
"872 674 CURVE SMOOTH",
"864 678 LINE",
"1016 708 OFFCURVE",
"1112 822 OFFCURVE",
"1124 952 CURVE SMOOTH",
"1144 1168 OFFCURVE",
"962 1324 OFFCURVE",
"706 1324 CURVE SMOOTH",
"418 1324 OFFCURVE",
"240 1188 OFFCURVE",
"218 970 CURVE SMOOTH",
"204 802 OFFCURVE",
"314 696 OFFCURVE",
"420 638 CURVE",
"260 616 OFFCURVE",
"136 512 OFFCURVE",
"120 350 CURVE SMOOTH",
"100 134 OFFCURVE",
"278 -28 OFFCURVE",
"578 -28 CURVE SMOOTH"
);
},
{
closed = 1;
nodes = (
"446 190 OFFCURVE",
"332 258 OFFCURVE",
"342 374 CURVE SMOOTH",
"350 468 OFFCURVE",
"458 548 OFFCURVE",
"598 556 CURVE",
"778 478 LINE",
"852 444 OFFCURVE",
"892 398 OFFCURVE",
"888 332 CURVE SMOOTH",
"880 248 OFFCURVE",
"784 190 OFFCURVE",
"598 190 CURVE SMOOTH"
);
},
{
closed = 1;
nodes = (
"544 822 LINE SMOOTH",
"468 856 OFFCURVE",
"430 894 OFFCURVE",
"438 960 CURVE SMOOTH",
"444 1046 OFFCURVE",
"554 1110 OFFCURVE",
"686 1110 CURVE SMOOTH",
"824 1110 OFFCURVE",
"912 1042 OFFCURVE",
"904 936 CURVE SMOOTH",
"892 834 OFFCURVE",
"788 766 OFFCURVE",
"672 764 CURVE"
);
}
);
width = 1164;
}
);
unicode = 0038;
},
{
glyphname = nine;
lastChange = "2019-05-13 18:39:24 +0000";
layers = (
{
background = {
paths = (
{
closed = 1;
nodes = (
"608 620 LINE",
"596 672 OFFCURVE",
"570 706 OFFCURVE",
"510 706 CURVE SMOOTH",
"422 706 OFFCURVE",
"376 628 OFFCURVE",
"376 502 CURVE SMOOTH",
"376 476 OFFCURVE",
"376 434 OFFCURVE",
"380 406 CURVE",
"368 498 OFFCURVE",
"416 530 OFFCURVE",
"472 530 CURVE SMOOTH",
"512 530 OFFCURVE",
"560 496 OFFCURVE",
"560 448 CURVE SMOOTH",
"560 402 OFFCURVE",
"536 374 OFFCURVE",
"496 374 CURVE SMOOTH",
"444 374 OFFCURVE",
"422 442 OFFCURVE",
"422 510 CURVE SMOOTH",
"422 596 OFFCURVE",
"444 660 OFFCURVE",
"514 660 CURVE SMOOTH",
"536 660 OFFCURVE",
"544 644 OFFCURVE",
"560 620 CURVE"
);
},
{
closed = 1;
nodes = (
"426 558 OFFCURVE",
"384 502 OFFCURVE",
"384 442 CURVE SMOOTH",
"384 370 OFFCURVE",
"426 330 OFFCURVE",
"496 330 CURVE SMOOTH",
"566 330 OFFCURVE",
"608 370 OFFCURVE",
"608 442 CURVE SMOOTH",
"608 512 OFFCURVE",
"566 558 OFFCURVE",
"496 558 CURVE"
);
}
);
};
layerId = UUID0;
paths = (
{
closed = 1;
nodes = (
"810 -22 OFFCURVE",
"976 236 OFFCURVE",
"1016 652 CURVE SMOOTH",
"1052 1034 OFFCURVE",
"882 1280 OFFCURVE",
"622 1280 CURVE SMOOTH",
"396 1280 OFFCURVE",
"224 1126 OFFCURVE",
"202 894 CURVE SMOOTH",
"180 664 OFFCURVE",
"320 500 OFFCURVE",
"524 500 CURVE SMOOTH",
"694 500 OFFCURVE",
"832 606 OFFCURVE",
"876 822 CURVE",
"878 768 OFFCURVE",
"876 726 OFFCURVE",
"872 674 CURVE SMOOTH",
"838 338 OFFCURVE",
"730 122 OFFCURVE",
"518 122 CURVE SMOOTH",
"376 122 OFFCURVE",
"296 220 OFFCURVE",
"308 372 CURVE",
"158 372 LINE",
"136 144 OFFCURVE",
"282 -22 OFFCURVE",
"508 -22 CURVE SMOOTH"
);
},
{
closed = 1;
nodes = (
"426 638 OFFCURVE",
"334 732 OFFCURVE",
"350 886 CURVE SMOOTH",
"364 1040 OFFCURVE",
"474 1134 OFFCURVE",
"608 1134 CURVE SMOOTH",
"744 1134 OFFCURVE",
"836 1040 OFFCURVE",
"822 886 CURVE SMOOTH",
"810 746 OFFCURVE",
"696 638 OFFCURVE",
"564 638 CURVE SMOOTH"
);
}
);
width = 1046;
},
{
background = {
paths = (
{
closed = 1;
nodes = (
"608 620 LINE",
"596 672 OFFCURVE",
"570 706 OFFCURVE",
"510 706 CURVE SMOOTH",
"422 706 OFFCURVE",
"376 628 OFFCURVE",
"376 502 CURVE SMOOTH",
"376 476 OFFCURVE",
"376 434 OFFCURVE",
"380 406 CURVE",
"368 498 OFFCURVE",
"416 530 OFFCURVE",
"472 530 CURVE SMOOTH",
"512 530 OFFCURVE",
"560 496 OFFCURVE",
"560 448 CURVE SMOOTH",
"560 402 OFFCURVE",
"536 374 OFFCURVE",
"496 374 CURVE SMOOTH",
"444 374 OFFCURVE",
"422 442 OFFCURVE",
"422 510 CURVE SMOOTH",
"422 596 OFFCURVE",
"444 660 OFFCURVE",
"514 660 CURVE SMOOTH",
"536 660 OFFCURVE",
"544 644 OFFCURVE",
"560 620 CURVE"
);
},
{
closed = 1;
nodes = (
"426 558 OFFCURVE",
"384 502 OFFCURVE",
"384 442 CURVE SMOOTH",
"384 370 OFFCURVE",
"426 330 OFFCURVE",
"496 330 CURVE SMOOTH",
"566 330 OFFCURVE",
"608 370 OFFCURVE",
"608 442 CURVE SMOOTH",
"608 512 OFFCURVE",
"566 558 OFFCURVE",
"496 558 CURVE"
);
}
);
};
layerId = UUID1;
paths = (
{
closed = 1;
nodes = (
"852 -28 OFFCURVE",
"1036 244 OFFCURVE",
"1078 670 CURVE SMOOTH",
"1114 1062 OFFCURVE",
"920 1324 OFFCURVE",
"640 1324 CURVE SMOOTH",
"392 1324 OFFCURVE",
"204 1160 OFFCURVE",
"180 912 CURVE SMOOTH",
"158 672 OFFCURVE",
"296 502 OFFCURVE",
"512 502 CURVE SMOOTH",
"672 502 OFFCURVE",
"814 588 OFFCURVE",
"870 808 CURVE",
"872 766 OFFCURVE",
"870 730 OFFCURVE",
"866 690 CURVE SMOOTH",
"836 388 OFFCURVE",
"740 190 OFFCURVE",
"544 190 CURVE SMOOTH",
"432 190 OFFCURVE",
"358 264 OFFCURVE",
"366 384 CURVE",
"144 384 LINE",
"120 140 OFFCURVE",
"290 -28 OFFCURVE",
"530 -28 CURVE SMOOTH"
);
},
{
closed = 1;
nodes = (
"470 696 OFFCURVE",
"386 772 OFFCURVE",
"400 902 CURVE SMOOTH",
"412 1028 OFFCURVE",
"510 1108 OFFCURVE",
"620 1108 CURVE SMOOTH",
"732 1108 OFFCURVE",
"818 1028 OFFCURVE",
"806 902 CURVE SMOOTH",
"794 780 OFFCURVE",
"692 696 OFFCURVE",
"584 696 CURVE SMOOTH"
);
}
);
width = 1098;
}
);
unicode = 0039;
},
{
glyphname = zero.propold;
lastChange = "2019-05-13 18:39:24 +0000";
layers = (
{
layerId = UUID0;
paths = (
{
closed = 1;
nodes = (
"702 -22 OFFCURVE",
"880 166 OFFCURVE",
"916 540 CURVE SMOOTH",
"952 914 OFFCURVE",
"808 1102 OFFCURVE",
"582 1102 CURVE SMOOTH",
"352 1102 OFFCURVE",
"178 914 OFFCURVE",
"142 540 CURVE SMOOTH",
"106 166 OFFCURVE",
"246 -22 OFFCURVE",
"476 -22 CURVE SMOOTH"
);
},
{
closed = 1;
nodes = (
"324 118 OFFCURVE",
"260 264 OFFCURVE",
"288 540 CURVE SMOOTH",
"314 816 OFFCURVE",
"404 964 OFFCURVE",
"568 964 CURVE SMOOTH",
"734 964 OFFCURVE",
"796 816 OFFCURVE",
"770 540 CURVE SMOOTH",
"744 264 OFFCURVE",
"656 118 OFFCURVE",
"490 118 CURVE SMOOTH"
);
}
);
width = 956;
},
{
layerId = UUID1;
paths = (
{
closed = 1;
nodes = (
"760 -28 OFFCURVE",
"956 184 OFFCURVE",
"992 570 CURVE SMOOTH",
"1030 956 OFFCURVE",
"872 1166 OFFCURVE",
"622 1166 CURVE SMOOTH",
"374 1166 OFFCURVE",
"174 956 OFFCURVE",
"136 570 CURVE SMOOTH",
"100 184 OFFCURVE",
"260 -28 OFFCURVE",
"510 -28 CURVE SMOOTH"
);
},
{
closed = 1;
nodes = (
"386 186 OFFCURVE",
"328 312 OFFCURVE",
"350 570 CURVE SMOOTH",
"376 830 OFFCURVE",
"460 954 OFFCURVE",
"602 954 CURVE SMOOTH",
"746 954 OFFCURVE",
"806 830 OFFCURVE",
"782 570 CURVE SMOOTH",
"758 312 OFFCURVE",
"674 186 OFFCURVE",
"530 186 CURVE SMOOTH"
);
}
);
width = 1026;
}
);
},
{
glyphname = one.propold;
lastChange = "2019-05-13 18:39:24 +0000";
layers = (
{
layerId = UUID0;
paths = (
{
closed = 1;
nodes = (
"414 0 LINE",
"514 1082 LINE",
"400 1082 LINE",
"330 1020 OFFCURVE",
"256 990 OFFCURVE",
"180 978 CURVE",
"166 824 LINE",
"226 826 OFFCURVE",
"294 850 OFFCURVE",
"356 892 CURVE",
"274 0 LINE"
);
}
);
width = 596;
},
{
layerId = UUID1;
paths = (
{
closed = 1;
nodes = (
"474 0 LINE",
"582 1142 LINE",
"422 1142 LINE",
"332 1074 OFFCURVE",
"254 1046 OFFCURVE",
"172 1036 CURVE",
"152 808 LINE",
"212 810 OFFCURVE",
"276 826 OFFCURVE",
"342 860 CURVE",
"260 0 LINE"
);
}
);
width = 642;
}
);
},
{
glyphname = two.propold;
lastChange = "2019-05-13 18:39:24 +0000";
layers = (
{
background = {
paths = (
{
closed = 1;
nodes = (
"344 312 OFFCURVE",
"358 298 OFFCURVE",
"374 298 CURVE SMOOTH",
"390 298 OFFCURVE",
"404 312 OFFCURVE",
"404 328 CURVE SMOOTH",
"404 344 OFFCURVE",
"390 358 OFFCURVE",
"374 358 CURVE SMOOTH",
"358 358 OFFCURVE",
"344 344 OFFCURVE",
"344 328 CURVE SMOOTH"
);
},
{
closed = 1;
nodes = (
"474 354 OFFCURVE",
"488 340 OFFCURVE",
"504 340 CURVE SMOOTH",
"520 340 OFFCURVE",
"534 354 OFFCURVE",
"534 370 CURVE SMOOTH",
"534 386 OFFCURVE",
"520 400 OFFCURVE",
"504 400 CURVE SMOOTH",
"488 400 OFFCURVE",
"474 386 OFFCURVE",
"474 370 CURVE SMOOTH"
);
}
);
};
layerId = UUID0;
paths = (
{
closed = 1;
nodes = (
"900 0 LINE",
"912 146 LINE",
"270 146 LINE",
"278 210 LINE SMOOTH",
"284 304 OFFCURVE",
"340 376 OFFCURVE",
"470 408 CURVE SMOOTH",
"674 462 LINE SMOOTH",
"860 510 OFFCURVE",
"958 602 OFFCURVE",
"974 772 CURVE SMOOTH",
"990 948 OFFCURVE",
"854 1102 OFFCURVE",
"634 1102 CURVE SMOOTH",
"398 1102 OFFCURVE",
"240 984 OFFCURVE",
"206 776 CURVE",
"364 776 LINE",
"390 900 OFFCURVE",
"490 962 OFFCURVE",
"626 962 CURVE SMOOTH",
"766 962 OFFCURVE",
"840 878 OFFCURVE",
"830 780 CURVE SMOOTH",
"820 672 OFFCURVE",
"754 610 OFFCURVE",
"624 578 CURVE SMOOTH",
"434 528 LINE SMOOTH",
"248 482 OFFCURVE",
"152 382 OFFCURVE",
"130 168 CURVE SMOOTH",
"116 0 LINE"
);
}
);
width = 1034;
},
{
background = {
paths = (
{
closed = 1;
nodes = (
"344 312 OFFCURVE",
"358 298 OFFCURVE",
"374 298 CURVE SMOOTH",
"390 298 OFFCURVE",
"404 312 OFFCURVE",
"404 328 CURVE SMOOTH",
"404 344 OFFCURVE",
"390 358 OFFCURVE",
"374 358 CURVE SMOOTH",
"358 358 OFFCURVE",
"344 344 OFFCURVE",
"344 328 CURVE SMOOTH"
);
},
{
closed = 1;
nodes = (
"474 354 OFFCURVE",
"488 340 OFFCURVE",
"504 340 CURVE SMOOTH",
"520 340 OFFCURVE",
"534 354 OFFCURVE",
"534 370 CURVE SMOOTH",
"534 386 OFFCURVE",
"520 400 OFFCURVE",
"504 400 CURVE SMOOTH",
"488 400 OFFCURVE",
"474 386 OFFCURVE",
"474 370 CURVE SMOOTH"
);
}
);
};
layerId = UUID1;
paths = (
{
closed = 1;
nodes = (
"960 0 LINE",
"980 216 LINE",
"340 216 LINE",
"344 264 LINE SMOOTH",
"350 332 OFFCURVE",
"396 380 OFFCURVE",
"500 408 CURVE SMOOTH",
"694 460 LINE SMOOTH",
"910 518 OFFCURVE",
"1010 620 OFFCURVE",
"1028 808 CURVE SMOOTH",
"1048 1010 OFFCURVE",
"904 1166 OFFCURVE",
"662 1166 CURVE SMOOTH",
"416 1166 OFFCURVE",
"230 1046 OFFCURVE",
"204 800 CURVE",
"440 800 LINE",
"460 910 OFFCURVE",
"542 960 OFFCURVE",
"654 960 CURVE SMOOTH",
"764 960 OFFCURVE",
"822 892 OFFCURVE",
"816 810 CURVE SMOOTH",
"806 716 OFFCURVE",
"752 658 OFFCURVE",
"618 622 CURVE SMOOTH",
"442 576 LINE SMOOTH",
"246 524 OFFCURVE",
"148 422 OFFCURVE",
"126 196 CURVE SMOOTH",
"108 0 LINE"
);
}
);
width = 1070;
}
);
},
{
glyphname = three.propold;
lastChange = "2019-05-13 18:39:24 +0000";
layers = (
{
layerId = UUID0;
paths = (
{
closed = 1;
nodes = (
"696 -228 OFFCURVE",
"880 -70 OFFCURVE",
"900 148 CURVE SMOOTH",
"916 314 OFFCURVE",
"836 452 OFFCURVE",
"694 504 CURVE",
"822 554 OFFCURVE",
"902 634 OFFCURVE",
"914 768 CURVE SMOOTH",
"932 962 OFFCURVE",
"794 1102 OFFCURVE",
"568 1102 CURVE SMOOTH",
"368 1102 OFFCURVE",
"206 1014 OFFCURVE",
"154 780 CURVE",
"304 780 LINE",
"342 910 OFFCURVE",
"440 966 OFFCURVE",
"558 966 CURVE SMOOTH",
"702 966 OFFCURVE",
"782 878 OFFCURVE",
"768 756 CURVE SMOOTH",
"756 618 OFFCURVE",
"642 548 OFFCURVE",
"470 548 CURVE SMOOTH",
"392 548 LINE",
"382 422 LINE",
"492 422 LINE SMOOTH",
"692 422 OFFCURVE",
"768 298 OFFCURVE",
"756 158 CURVE SMOOTH",
"742 14 OFFCURVE",
"618 -92 OFFCURVE",
"456 -92 CURVE SMOOTH",
"300 -92 OFFCURVE",
"196 -8 OFFCURVE",
"210 176 CURVE",
"66 176 LINE",
"40 -96 OFFCURVE",
"218 -228 OFFCURVE",
"442 -228 CURVE SMOOTH"
);
}
);
width = 1012;
},
{
layerId = UUID1;
paths = (
{
closed = 1;
nodes = (
"738 -238 OFFCURVE",
"934 -64 OFFCURVE",
"956 168 CURVE SMOOTH",
"972 334 OFFCURVE",
"902 470 OFFCURVE",
"762 532 CURVE",
"888 586 OFFCURVE",
"964 676 OFFCURVE",
"978 814 CURVE SMOOTH",
"998 1014 OFFCURVE",
"854 1166 OFFCURVE",
"600 1166 CURVE SMOOTH",
"360 1166 OFFCURVE",
"186 1064 OFFCURVE",
"134 796 CURVE",
"360 796 LINE",
"386 904 OFFCURVE",
"474 968 OFFCURVE",
"584 968 CURVE SMOOTH",
"704 968 OFFCURVE",
"772 892 OFFCURVE",
"764 788 CURVE SMOOTH",
"752 670 OFFCURVE",
"660 600 OFFCURVE",
"524 600 CURVE SMOOTH",
"414 600 LINE",
"396 414 LINE",
"516 414 LINE SMOOTH",
"674 414 OFFCURVE",
"756 316 OFFCURVE",
"744 188 CURVE SMOOTH",
"732 58 OFFCURVE",
"626 -38 OFFCURVE",
"488 -38 CURVE SMOOTH",
"356 -38 OFFCURVE",
"262 30 OFFCURVE",
"268 190 CURVE",
"52 190 LINE",
"26 -104 OFFCURVE",
"228 -238 OFFCURVE",
"468 -238 CURVE SMOOTH"
);
}
);
width = 1058;
}
);
},
{
glyphname = four.propold;
lastChange = "2019-05-13 18:39:24 +0000";
layers = (
{
layerId = UUID0;
paths = (
{
closed = 1;
nodes = (
"746 -210 LINE",
"778 108 LINE",
"974 108 LINE",
"986 242 LINE",
"790 242 LINE",
"872 1092 LINE",
"738 1092 LINE",
"64 230 LINE",
"52 108 LINE",
"638 108 LINE",
"606 -210 LINE"
);
},
{
closed = 1;
nodes = (
"710 844 LINE",
"654 230 LINE",
"224 230 LINE"
);
}
);
width = 1008;
},
{
layerId = UUID1;
paths = (
{
closed = 1;
nodes = (
"818 -216 LINE",
"848 98 LINE",
"1050 98 LINE",
"1068 302 LINE",
"866 302 LINE",
"946 1148 LINE",
"738 1148 LINE",
"58 276 LINE",
"42 98 LINE",
"634 98 LINE",
"602 -216 LINE"
);
},
{
closed = 1;
nodes = (
"710 802 LINE",
"660 276 LINE",
"292 276 LINE"
);
}
);
width = 1072;
}
);
},
{
glyphname = five.propold;
lastChange = "2019-05-13 18:39:24 +0000";
layers = (
{
background = {
paths = (
{
closed = 1;
nodes = (
"220 520 OFFCURVE",
"280 460 OFFCURVE",
"352 460 CURVE SMOOTH",
"424 460 OFFCURVE",
"484 520 OFFCURVE",
"484 592 CURVE SMOOTH",
"484 664 OFFCURVE",
"424 724 OFFCURVE",
"352 724 CURVE SMOOTH",
"280 724 OFFCURVE",
"220 664 OFFCURVE",
"220 592 CURVE SMOOTH"
);
}
);
};
layerId = UUID0;
paths = (
{
closed = 1;
nodes = (
"710 -228 OFFCURVE",
"906 -42 OFFCURVE",
"930 212 CURVE SMOOTH",
"954 460 OFFCURVE",
"814 612 OFFCURVE",
"564 612 CURVE SMOOTH",
"508 612 OFFCURVE",
"450 606 OFFCURVE",
"392 592 CURVE",
"458 948 LINE",
"946 948 LINE",
"962 1090 LINE",
"340 1090 LINE",
"232 482 LINE",
"524 482 LINE SMOOTH",
"712 482 OFFCURVE",
"800 378 OFFCURVE",
"786 212 CURVE SMOOTH",
"770 42 OFFCURVE",
"640 -84 OFFCURVE",
"476 -84 CURVE SMOOTH",
"338 -84 OFFCURVE",
"254 -2 OFFCURVE",
"268 150 CURVE",
"130 150 LINE",
"106 -96 OFFCURVE",
"266 -228 OFFCURVE",
"462 -228 CURVE SMOOTH"
);
}
);
width = 1024;
},
{
background = {
paths = (
{
closed = 1;
nodes = (
"220 520 OFFCURVE",
"280 460 OFFCURVE",
"352 460 CURVE SMOOTH",
"424 460 OFFCURVE",
"484 520 OFFCURVE",
"484 592 CURVE SMOOTH",
"484 664 OFFCURVE",
"424 724 OFFCURVE",
"352 724 CURVE SMOOTH",
"280 724 OFFCURVE",
"220 664 OFFCURVE",
"220 592 CURVE SMOOTH"
);
}
);
};
layerId = UUID1;
paths = (
{
closed = 1;
nodes = (
"746 -238 OFFCURVE",
"962 -42 OFFCURVE",
"988 230 CURVE SMOOTH",
"1012 488 OFFCURVE",
"868 658 OFFCURVE",
"618 658 CURVE SMOOTH",
"554 658 OFFCURVE",
"502 648 OFFCURVE",
"444 632 CURVE",
"502 946 LINE",
"994 946 LINE",
"1016 1162 LINE",
"330 1162 LINE",
"206 466 LINE",
"538 466 LINE SMOOTH",
"712 466 OFFCURVE",
"788 378 OFFCURVE",
"776 230 CURVE SMOOTH",
"762 80 OFFCURVE",
"648 -22 OFFCURVE",
"512 -22 CURVE SMOOTH",
"390 -22 OFFCURVE",
"316 48 OFFCURVE",
"330 184 CURVE",
"118 184 LINE",
"94 -90 OFFCURVE",
"274 -238 OFFCURVE",
"488 -238 CURVE SMOOTH"
);
}
);
width = 1060;
}
);
},
{
glyphname = six.propold;
lastChange = "2019-05-13 18:39:24 +0000";
layers = (
{
background = {
paths = (
{
closed = 1;
nodes = (
"704 804 LINE",
"686 908 OFFCURVE",
"640 958 OFFCURVE",
"542 958 CURVE SMOOTH",
"342 958 OFFCURVE",
"214 756 OFFCURVE",
"214 480 CURVE SMOOTH",
"214 438 OFFCURVE",
"216 380 OFFCURVE",
"222 336 CURVE",
"234 554 OFFCURVE",
"368 632 OFFCURVE",
"518 632 CURVE SMOOTH",
"704 632 OFFCURVE",
"848 496 OFFCURVE",
"848 306 CURVE SMOOTH",
"848 112 OFFCURVE",
"706 -18 OFFCURVE",
"496 -18 CURVE SMOOTH",
"246 -18 OFFCURVE",
"84 204 OFFCURVE",
"84 508 CURVE SMOOTH",
"84 848 OFFCURVE",
"264 1076 OFFCURVE",
"540 1076 CURVE SMOOTH",
"716 1076 OFFCURVE",
"828 974 OFFCURVE",
"844 804 CURVE"
);
},
{
closed = 1;
nodes = (
"374 518 OFFCURVE",
"280 420 OFFCURVE",
"280 304 CURVE SMOOTH",
"280 178 OFFCURVE",
"374 98 OFFCURVE",
"496 98 CURVE SMOOTH",
"620 98 OFFCURVE",
"712 178 OFFCURVE",
"712 304 CURVE SMOOTH",
"712 432 OFFCURVE",
"620 518 OFFCURVE",
"496 518 CURVE SMOOTH"
);
}
);
};
layerId = UUID0;
paths = (
{
closed = 1;
nodes = (
"768 -24 OFFCURVE",
"938 132 OFFCURVE",
"962 364 CURVE SMOOTH",
"982 594 OFFCURVE",
"842 758 OFFCURVE",
"638 758 CURVE SMOOTH",
"480 758 OFFCURVE",
"324 672 OFFCURVE",
"282 408 CURVE",
"266 848 OFFCURVE",
"440 1136 OFFCURVE",
"672 1136 CURVE SMOOTH",
"792 1136 OFFCURVE",
"846 1060 OFFCURVE",
"854 940 CURVE",
"1006 940 LINE",
"1008 1142 OFFCURVE",
"886 1280 OFFCURVE",
"682 1280 CURVE SMOOTH",
"392 1280 OFFCURVE",
"188 1028 OFFCURVE",
"148 606 CURVE SMOOTH",
"116 248 OFFCURVE",
"266 -24 OFFCURVE",
"538 -24 CURVE SMOOTH"
);
},
{
closed = 1;
nodes = (
"420 122 OFFCURVE",
"326 216 OFFCURVE",
"340 370 CURVE SMOOTH",
"352 510 OFFCURVE",
"466 618 OFFCURVE",
"600 618 CURVE SMOOTH",
"736 618 OFFCURVE",
"828 524 OFFCURVE",
"814 370 CURVE SMOOTH",
"800 216 OFFCURVE",
"690 122 OFFCURVE",
"552 122 CURVE SMOOTH"
);
}
);
width = 1032;
},
{
background = {
paths = (
{
closed = 1;
nodes = (
"704 804 LINE",
"686 908 OFFCURVE",
"640 958 OFFCURVE",
"542 958 CURVE SMOOTH",
"342 958 OFFCURVE",
"214 756 OFFCURVE",
"214 480 CURVE SMOOTH",
"214 438 OFFCURVE",
"216 380 OFFCURVE",
"222 336 CURVE",
"234 554 OFFCURVE",
"368 632 OFFCURVE",
"518 632 CURVE SMOOTH",
"704 632 OFFCURVE",
"848 496 OFFCURVE",
"848 306 CURVE SMOOTH",
"848 112 OFFCURVE",
"706 -18 OFFCURVE",
"496 -18 CURVE SMOOTH",
"246 -18 OFFCURVE",
"84 204 OFFCURVE",
"84 508 CURVE SMOOTH",
"84 848 OFFCURVE",
"264 1076 OFFCURVE",
"540 1076 CURVE SMOOTH",
"716 1076 OFFCURVE",
"828 974 OFFCURVE",
"844 804 CURVE"
);
},
{
closed = 1;
nodes = (
"374 518 OFFCURVE",
"280 420 OFFCURVE",
"280 304 CURVE SMOOTH",
"280 178 OFFCURVE",
"374 98 OFFCURVE",
"496 98 CURVE SMOOTH",
"620 98 OFFCURVE",
"712 178 OFFCURVE",
"712 304 CURVE SMOOTH",
"712 432 OFFCURVE",
"620 518 OFFCURVE",
"496 518 CURVE SMOOTH"
);
}
);
};
layerId = UUID1;
paths = (
{
closed = 1;
nodes = (
"828 -28 OFFCURVE",
"1016 138 OFFCURVE",
"1040 384 CURVE SMOOTH",
"1062 624 OFFCURVE",
"926 796 OFFCURVE",
"706 796 CURVE SMOOTH",
"552 796 OFFCURVE",
"400 720 OFFCURVE",
"350 476 CURVE",
"350 860 OFFCURVE",
"492 1110 OFFCURVE",
"702 1110 CURVE SMOOTH",
"802 1110 OFFCURVE",
"850 1046 OFFCURVE",
"854 942 CURVE",
"1080 942 LINE",
"1092 1172 OFFCURVE",
"946 1324 OFFCURVE",
"714 1324 CURVE SMOOTH",
"412 1324 OFFCURVE",
"184 1074 OFFCURVE",
"142 626 CURVE SMOOTH",
"106 248 OFFCURVE",
"284 -28 OFFCURVE",
"578 -28 CURVE SMOOTH"
);
},
{
closed = 1;
nodes = (
"484 190 OFFCURVE",
"402 270 OFFCURVE",
"414 394 CURVE SMOOTH",
"424 518 OFFCURVE",
"524 602 OFFCURVE",
"636 602 CURVE SMOOTH",
"750 602 OFFCURVE",
"832 524 OFFCURVE",
"820 394 CURVE SMOOTH",
"808 270 OFFCURVE",
"712 190 OFFCURVE",
"598 190 CURVE SMOOTH"
);
}
);
width = 1092;
}
);
},
{
glyphname = seven.propold;
lastChange = "2019-05-13 18:39:24 +0000";
layers = (
{
layerId = UUID0;
paths = (
{
closed = 1;
nodes = (
"134 962 LINE",
"754 962 LINE",
"80 -196 LINE",
"254 -196 LINE",
"904 968 LINE",
"916 1102 LINE",
"146 1102 LINE"
);
}
);
width = 846;
},
{
layerId = UUID1;
paths = (
{
closed = 1;
nodes = (
"134 960 LINE",
"736 960 LINE",
"44 -208 LINE",
"304 -208 LINE",
"954 962 LINE",
"974 1166 LINE",
"152 1166 LINE"
);
}
);
width = 896;
}
);
},
{
glyphname = eight.propold;
lastChange = "2019-05-13 18:39:24 +0000";
layers = (
{
layerId = UUID0;
paths = (
{
closed = 1;
nodes = (
"836 -22 OFFCURVE",
"1018 114 OFFCURVE",
"1038 314 CURVE SMOOTH",
"1054 476 OFFCURVE",
"970 560 OFFCURVE",
"812 630 CURVE SMOOTH",
"782 642 LINE",
"944 670 OFFCURVE",
"1040 794 OFFCURVE",
"1052 930 CURVE SMOOTH",
"1072 1130 OFFCURVE",
"912 1280 OFFCURVE",
"674 1280 CURVE SMOOTH",
"410 1280 OFFCURVE",
"242 1140 OFFCURVE",
"224 946 CURVE SMOOTH",
"208 786 OFFCURVE",
"320 688 OFFCURVE",
"420 636 CURVE",
"262 610 OFFCURVE",
"144 500 OFFCURVE",
"130 336 CURVE SMOOTH",
"110 130 OFFCURVE",
"282 -22 OFFCURVE",
"548 -22 CURVE SMOOTH"
);
},
{
closed = 1;
nodes = (
"390 122 OFFCURVE",
"264 204 OFFCURVE",
"278 350 CURVE SMOOTH",
"288 460 OFFCURVE",
"398 560 OFFCURVE",
"550 578 CURVE",
"746 494 LINE",
"840 454 OFFCURVE",
"898 396 OFFCURVE",
"890 310 CURVE SMOOTH",
"880 198 OFFCURVE",
"758 122 OFFCURVE",
"564 122 CURVE SMOOTH"
);
},
{
closed = 1;
nodes = (
"512 762 LINE SMOOTH",
"418 804 OFFCURVE",
"366 850 OFFCURVE",
"374 940 CURVE SMOOTH",
"386 1048 OFFCURVE",
"506 1136 OFFCURVE",
"658 1136 CURVE SMOOTH",
"818 1136 OFFCURVE",
"918 1048 OFFCURVE",
"906 922 CURVE SMOOTH",
"892 796 OFFCURVE",
"778 710 OFFCURVE",
"638 706 CURVE"
);
}
);
width = 1106;
},
{
layerId = UUID1;
paths = (
{
closed = 1;
nodes = (
"892 -28 OFFCURVE",
"1088 128 OFFCURVE",
"1108 344 CURVE SMOOTH",
"1124 516 OFFCURVE",
"1036 600 OFFCURVE",
"872 674 CURVE SMOOTH",
"864 678 LINE",
"1016 708 OFFCURVE",
"1112 822 OFFCURVE",
"1124 952 CURVE SMOOTH",
"1144 1168 OFFCURVE",
"962 1324 OFFCURVE",
"706 1324 CURVE SMOOTH",
"418 1324 OFFCURVE",
"240 1188 OFFCURVE",
"218 970 CURVE SMOOTH",
"204 802 OFFCURVE",
"314 696 OFFCURVE",
"420 638 CURVE",
"260 616 OFFCURVE",
"136 512 OFFCURVE",
"120 350 CURVE SMOOTH",
"100 134 OFFCURVE",
"278 -28 OFFCURVE",
"578 -28 CURVE SMOOTH"
);
},
{
closed = 1;
nodes = (
"446 190 OFFCURVE",
"332 258 OFFCURVE",
"342 374 CURVE SMOOTH",
"350 468 OFFCURVE",
"458 548 OFFCURVE",
"598 556 CURVE",
"778 478 LINE",
"852 444 OFFCURVE",
"892 398 OFFCURVE",
"888 332 CURVE SMOOTH",
"880 248 OFFCURVE",
"784 190 OFFCURVE",
"598 190 CURVE SMOOTH"
);
},
{
closed = 1;
nodes = (
"544 822 LINE SMOOTH",
"468 856 OFFCURVE",
"430 894 OFFCURVE",
"438 960 CURVE SMOOTH",
"444 1046 OFFCURVE",
"554 1110 OFFCURVE",
"686 1110 CURVE SMOOTH",
"824 1110 OFFCURVE",
"912 1042 OFFCURVE",
"904 936 CURVE SMOOTH",
"892 834 OFFCURVE",
"788 766 OFFCURVE",
"672 764 CURVE"
);
}
);
width = 1164;
}
);
},
{
glyphname = nine.propold;
lastChange = "2019-05-13 18:39:24 +0000";
layers = (
{
layerId = UUID0;
paths = (
{
closed = 1;
nodes = (
"774 -228 OFFCURVE",
"956 30 OFFCURVE",
"996 454 CURVE SMOOTH",
"1030 814 OFFCURVE",
"890 1102 OFFCURVE",
"604 1102 CURVE SMOOTH",
"378 1102 OFFCURVE",
"206 940 OFFCURVE",
"186 708 CURVE SMOOTH",
"164 478 OFFCURVE",
"312 312 OFFCURVE",
"514 312 CURVE SMOOTH",
"686 312 OFFCURVE",
"820 432 OFFCURVE",
"858 636 CURVE",
"860 580 OFFCURVE",
"856 530 OFFCURVE",
"854 476 CURVE",
"818 130 OFFCURVE",
"708 -84 OFFCURVE",
"496 -84 CURVE SMOOTH",
"350 -84 OFFCURVE",
"278 14 OFFCURVE",
"290 166 CURVE",
"140 166 LINE",
"118 -62 OFFCURVE",
"262 -228 OFFCURVE",
"484 -228 CURVE SMOOTH"
);
},
{
closed = 1;
nodes = (
"402 452 OFFCURVE",
"318 552 OFFCURVE",
"332 708 CURVE SMOOTH",
"348 862 OFFCURVE",
"450 962 OFFCURVE",
"592 962 CURVE SMOOTH",
"734 962 OFFCURVE",
"820 862 OFFCURVE",
"806 708 CURVE SMOOTH",
"792 568 OFFCURVE",
"686 452 OFFCURVE",
"546 452 CURVE SMOOTH"
);
}
);
width = 1044;
},
{
layerId = UUID1;
paths = (
{
closed = 1;
nodes = (
"796 -238 OFFCURVE",
"1016 26 OFFCURVE",
"1056 474 CURVE SMOOTH",
"1090 824 OFFCURVE",
"956 1166 OFFCURVE",
"626 1166 CURVE SMOOTH",
"378 1166 OFFCURVE",
"188 988 OFFCURVE",
"164 742 CURVE SMOOTH",
"142 500 OFFCURVE",
"298 326 OFFCURVE",
"516 326 CURVE SMOOTH",
"674 326 OFFCURVE",
"810 434 OFFCURVE",
"854 634 CURVE",
"854 590 OFFCURVE",
"852 542 OFFCURVE",
"846 492 CURVE",
"818 178 OFFCURVE",
"712 -22 OFFCURVE",
"522 -22 CURVE SMOOTH",
"404 -22 OFFCURVE",
"346 50 OFFCURVE",
"350 172 CURVE",
"128 172 LINE",
"104 -72 OFFCURVE",
"266 -238 OFFCURVE",
"502 -238 CURVE SMOOTH"
);
},
{
closed = 1;
nodes = (
"440 520 OFFCURVE",
"372 612 OFFCURVE",
"384 742 CURVE SMOOTH",
"396 866 OFFCURVE",
"480 960 OFFCURVE",
"606 960 CURVE SMOOTH",
"732 960 OFFCURVE",
"802 866 OFFCURVE",
"790 742 CURVE SMOOTH",
"780 618 OFFCURVE",
"692 520 OFFCURVE",
"566 520 CURVE SMOOTH"
);
}
);
width = 1096;
}
);
},
{
glyphname = dollar;
lastChange = "2019-05-13 18:39:24 +0000";
layers = (
{
layerId = UUID0;
paths = (
{
closed = 1;
nodes = (
"606 -182 LINE",
"620 -20 LINE",
"884 -2 OFFCURVE",
"1026 162 OFFCURVE",
"1044 330 CURVE SMOOTH",
"1060 502 OFFCURVE",
"970 600 OFFCURVE",
"812 660 CURVE SMOOTH",
"690 706 LINE",
"730 1136 LINE",
"846 1118 OFFCURVE",
"910 1052 OFFCURVE",
"920 952 CURVE",
"1060 952 LINE",
"1050 1134 OFFCURVE",
"948 1256 OFFCURVE",
"744 1274 CURVE",
"758 1426 LINE",
"646 1426 LINE",
"632 1276 LINE",
"394 1258 OFFCURVE",
"258 1128 OFFCURVE",
"242 948 CURVE SMOOTH",
"224 772 OFFCURVE",
"322 690 OFFCURVE",
"512 620 CURVE SMOOTH",
"568 598 LINE",
"522 126 LINE",
"374 142 OFFCURVE",
"282 220 OFFCURVE",
"296 378 CURVE",
"158 378 LINE",
"136 136 OFFCURVE",
"296 2 OFFCURVE",
"508 -18 CURVE",
"494 -182 LINE"
);
},
{
closed = 1;
nodes = (
"676 564 LINE",
"740 540 LINE SMOOTH",
"840 502 OFFCURVE",
"894 434 OFFCURVE",
"886 334 CURVE SMOOTH",
"874 232 OFFCURVE",
"788 138 OFFCURVE",
"634 124 CURVE"
);
},
{
closed = 1;
nodes = (
"530 762 LINE SMOOTH",
"428 800 OFFCURVE",
"386 850 OFFCURVE",
"394 942 CURVE SMOOTH",
"402 1044 OFFCURVE",
"482 1122 OFFCURVE",
"618 1136 CURVE",
"582 742 LINE"
);
}
);
width = 1138;
},
{
layerId = UUID1;
paths = (
{
closed = 1;
nodes = (
"676 -202 LINE",
"692 -26 LINE",
"988 -6 OFFCURVE",
"1138 168 OFFCURVE",
"1156 346 CURVE SMOOTH",
"1172 518 OFFCURVE",
"1092 616 OFFCURVE",
"920 686 CURVE SMOOTH",
"766 748 LINE",
"802 1112 LINE",
"898 1086 OFFCURVE",
"952 1020 OFFCURVE",
"958 940 CURVE",
"1168 940 LINE",
"1154 1152 OFFCURVE",
"1048 1292 OFFCURVE",
"820 1320 CURVE",
"836 1474 LINE",
"684 1474 LINE",
"668 1322 LINE",
"402 1302 OFFCURVE",
"248 1164 OFFCURVE",
"228 970 CURVE SMOOTH",
"212 786 OFFCURVE",
"318 694 OFFCURVE",
"512 618 CURVE SMOOTH",
"600 584 LINE",
"564 196 LINE",
"424 214 OFFCURVE",
"352 278 OFFCURVE",
"366 406 CURVE",
"154 406 LINE",
"128 140 OFFCURVE",
"306 4 OFFCURVE",
"542 -22 CURVE",
"526 -202 LINE"
);
},
{
closed = 1;
nodes = (
"746 542 LINE",
"802 518 LINE SMOOTH",
"882 484 OFFCURVE",
"924 428 OFFCURVE",
"916 352 CURVE SMOOTH",
"908 272 OFFCURVE",
"844 204 OFFCURVE",
"714 192 CURVE"
);
},
{
closed = 1;
nodes = (
"568 820 LINE SMOOTH",
"488 852 OFFCURVE",
"454 894 OFFCURVE",
"460 962 CURVE SMOOTH",
"468 1042 OFFCURVE",
"532 1102 OFFCURVE",
"650 1118 CURVE",
"620 794 LINE"
);
}
);
width = 1240;
}
);
unicode = 0024;
},
{
glyphname = question;
lastChange = "2019-05-13 18:39:24 +0000";
layers = (
{
layerId = UUID0;
paths = (
{
closed = 1;
nodes = (
"488 322 LINE",
"496 400 LINE SMOOTH",
"508 532 OFFCURVE",
"550 572 OFFCURVE",
"676 644 CURVE SMOOTH",
"824 728 OFFCURVE",
"890 812 OFFCURVE",
"904 950 CURVE SMOOTH",
"922 1130 OFFCURVE",
"794 1280 OFFCURVE",
"564 1280 CURVE SMOOTH",
"322 1280 OFFCURVE",
"178 1148 OFFCURVE",
"144 952 CURVE",
"296 952 LINE",
"326 1068 OFFCURVE",
"406 1136 OFFCURVE",
"552 1136 CURVE SMOOTH",
"686 1136 OFFCURVE",
"760 1060 OFFCURVE",
"750 954 CURVE SMOOTH",
"740 852 OFFCURVE",
"692 806 OFFCURVE",
"566 732 CURVE SMOOTH",
"422 652 OFFCURVE",
"372 584 OFFCURVE",
"356 412 CURVE SMOOTH",
"348 322 LINE"
);
},
{
closed = 1;
nodes = (
"448 -22 OFFCURVE",
"500 26 OFFCURVE",
"506 88 CURVE SMOOTH",
"512 152 OFFCURVE",
"470 204 OFFCURVE",
"408 204 CURVE SMOOTH",
"348 204 OFFCURVE",
"298 152 OFFCURVE",
"294 88 CURVE SMOOTH",
"288 26 OFFCURVE",
"326 -22 OFFCURVE",
"386 -22 CURVE SMOOTH"
);
}
);
width = 898;
},
{
layerId = UUID1;
paths = (
{
closed = 1;
nodes = (
"564 388 LINE",
"568 446 LINE SMOOTH",
"578 550 OFFCURVE",
"620 592 OFFCURVE",
"740 658 CURVE SMOOTH",
"880 732 OFFCURVE",
"950 822 OFFCURVE",
"962 962 CURVE SMOOTH",
"982 1166 OFFCURVE",
"840 1324 OFFCURVE",
"584 1324 CURVE SMOOTH",
"324 1324 OFFCURVE",
"166 1172 OFFCURVE",
"132 940 CURVE",
"352 940 LINE",
"370 1042 OFFCURVE",
"446 1110 OFFCURVE",
"572 1110 CURVE SMOOTH",
"678 1110 OFFCURVE",
"738 1048 OFFCURVE",
"728 964 CURVE SMOOTH",
"722 886 OFFCURVE",
"688 844 OFFCURVE",
"566 780 CURVE SMOOTH",
"432 708 OFFCURVE",
"374 642 OFFCURVE",
"358 468 CURVE SMOOTH",
"350 388 LINE"
);
},
{
closed = 1;
nodes = (
"510 -28 OFFCURVE",
"582 40 OFFCURVE",
"588 130 CURVE SMOOTH",
"598 220 OFFCURVE",
"540 286 OFFCURVE",
"454 286 CURVE SMOOTH",
"366 286 OFFCURVE",
"298 220 OFFCURVE",
"290 130 CURVE SMOOTH",
"282 40 OFFCURVE",
"334 -28 OFFCURVE",
"422 -28 CURVE SMOOTH"
);
}
);
width = 930;
}
);
unicode = 003F;
},
{
glyphname = sterling;
lastChange = "2019-05-13 18:39:24 +0000";
layers = (
{
layerId = UUID0;
paths = (
{
closed = 1;
nodes = (
"620 0 LINE SMOOTH",
"856 0 OFFCURVE",
"950 118 OFFCURVE",
"980 308 CURVE",
"830 308 LINE",
"804 192 OFFCURVE",
"750 138 OFFCURVE",
"634 138 CURVE SMOOTH",
"302 138 LINE",
"356 174 OFFCURVE",
"378 236 OFFCURVE",
"388 326 CURVE SMOOTH",
"408 534 LINE",
"736 534 LINE",
"746 646 LINE",
"418 646 LINE",
"440 864 LINE SMOOTH",
"458 1054 OFFCURVE",
"538 1136 OFFCURVE",
"656 1136 CURVE SMOOTH",
"740 1136 OFFCURVE",
"802 1084 OFFCURVE",
"812 980 CURVE",
"950 980 LINE",
"942 1176 OFFCURVE",
"838 1280 OFFCURVE",
"670 1280 CURVE SMOOTH",
"452 1280 OFFCURVE",
"324 1126 OFFCURVE",
"298 864 CURVE SMOOTH",
"278 646 LINE",
"114 646 LINE",
"104 534 LINE",
"266 534 LINE",
"246 318 LINE SMOOTH",
"236 196 OFFCURVE",
"190 138 OFFCURVE",
"98 138 CURVE SMOOTH",
"48 138 LINE",
"36 0 LINE"
);
}
);
width = 1016;
},
{
layerId = UUID1;
paths = (
{
closed = 1;
nodes = (
"612 0 LINE SMOOTH",
"904 0 OFFCURVE",
"1024 136 OFFCURVE",
"1052 368 CURVE",
"820 368 LINE",
"798 262 OFFCURVE",
"748 214 OFFCURVE",
"630 214 CURVE SMOOTH",
"384 214 LINE",
"434 256 OFFCURVE",
"458 318 OFFCURVE",
"468 404 CURVE SMOOTH",
"482 562 LINE",
"790 562 LINE",
"804 720 LINE",
"496 720 LINE",
"512 888 LINE SMOOTH",
"528 1040 OFFCURVE",
"598 1110 OFFCURVE",
"690 1110 CURVE SMOOTH",
"764 1110 OFFCURVE",
"810 1062 OFFCURVE",
"814 974 CURVE",
"1022 974 LINE",
"1016 1206 OFFCURVE",
"908 1324 OFFCURVE",
"710 1324 CURVE SMOOTH",
"488 1324 OFFCURVE",
"328 1176 OFFCURVE",
"300 888 CURVE SMOOTH",
"284 720 LINE",
"134 720 LINE",
"120 562 LINE",
"270 562 LINE",
"254 388 LINE SMOOTH",
"242 270 OFFCURVE",
"206 214 OFFCURVE",
"116 214 CURVE SMOOTH",
"60 214 LINE",
"40 0 LINE"
);
}
);
width = 1084;
}
);
unicode = 00A3;
},
{
glyphname = grave;
lastChange = "2019-05-13 18:39:24 +0000";
layers = (
{
anchors = (
{
name = _above;
position = "{282, 1270}";
}
);
layerId = UUID0;
paths = (
{
closed = 1;
nodes = (
"612 1354 LINE",
"662 1454 LINE",
"264 1720 LINE",
"192 1580 LINE"
);
}
);
width = 566;
},
{
anchors = (
{
name = _above;
position = "{282, 1270}";
}
);
layerId = UUID1;
paths = (
{
closed = 1;
nodes = (
"674 1388 LINE",
"744 1536 LINE",
"288 1800 LINE",
"192 1596 LINE"
);
}
);
width = 640;
}
);
unicode = 0060;
},
{
glyphname = acute;
lastChange = "2019-05-13 18:39:24 +0000";
layers = (
{
anchors = (
{
name = _above;
position = "{282, 1270}";
}
);
layerId = UUID0;
paths = (
{
closed = 1;
nodes = (
"672 1580 LINE",
"626 1720 LINE",
"178 1454 LINE",
"210 1354 LINE"
);
}
);
width = 566;
},
{
anchors = (
{
name = _above;
position = "{282, 1270}";
}
);
layerId = UUID1;
paths = (
{
closed = 1;
nodes = (
"746 1596 LINE",
"692 1800 LINE",
"186 1536 LINE",
"224 1388 LINE"
);
}
);
width = 640;
}
);
unicode = 00B4;
},
{
glyphname = agrave;
lastChange = "2019-05-13 18:39:24 +0000";
layers = (
{
layerId = UUID0;
paths = (
{
closed = 1;
nodes = (
"546 -22 OFFCURVE",
"652 40 OFFCURVE",
"716 160 CURVE",
"716 106 OFFCURVE",
"714 54 OFFCURVE",
"714 0 CURVE",
"836 0 LINE",
"894 616 LINE SMOOTH",
"918 874 OFFCURVE",
"790 980 OFFCURVE",
"590 980 CURVE SMOOTH",
"386 980 OFFCURVE",
"228 900 OFFCURVE",
"208 692 CURVE",
"366 692 LINE",
"376 810 OFFCURVE",
"468 862 OFFCURVE",
"580 862 CURVE SMOOTH",
"714 862 OFFCURVE",
"770 790 OFFCURVE",
"754 620 CURVE",
"742 498 LINE",
"664 532 OFFCURVE",
"580 550 OFFCURVE",
"492 550 CURVE SMOOTH",
"306 550 OFFCURVE",
"152 458 OFFCURVE",
"134 268 CURVE",
"118 120 OFFCURVE",
"218 -22 OFFCURVE",
"410 -22 CURVE SMOOTH"
);
},
{
closed = 1;
nodes = (
"318 100 OFFCURVE",
"276 174 OFFCURVE",
"284 268 CURVE SMOOTH",
"296 394 OFFCURVE",
"390 438 OFFCURVE",
"506 438 CURVE SMOOTH",
"576 438 OFFCURVE",
"658 422 OFFCURVE",
"732 398 CURVE",
"732 216 OFFCURVE",
"578 100 OFFCURVE",
"452 100 CURVE SMOOTH"
);
},
{
closed = 1;
nodes = (
"862 1196 LINE",
"464 1462 LINE",
"392 1322 LINE",
"812 1096 LINE"
);
}
);
width = 992;
},
{
layerId = UUID1;
paths = (
{
closed = 1;
nodes = (
"570 -28 OFFCURVE",
"660 36 OFFCURVE",
"720 132 CURVE",
"722 88 OFFCURVE",
"722 44 OFFCURVE",
"724 0 CURVE",
"908 0 LINE",
"966 618 LINE SMOOTH",
"990 880 OFFCURVE",
"854 998 OFFCURVE",
"626 998 CURVE SMOOTH",
"376 998 OFFCURVE",
"218 904 OFFCURVE",
"196 684 CURVE",
"428 684 LINE",
"438 774 OFFCURVE",
"508 826 OFFCURVE",
"610 826 CURVE SMOOTH",
"728 826 OFFCURVE",
"768 762 OFFCURVE",
"754 626 CURVE",
"744 530 LINE",
"670 552 OFFCURVE",
"594 568 OFFCURVE",
"508 568 CURVE SMOOTH",
"288 568 OFFCURVE",
"140 468 OFFCURVE",
"124 284 CURVE",
"108 118 OFFCURVE",
"210 -28 OFFCURVE",
"444 -28 CURVE SMOOTH"
);
},
{
closed = 1;
nodes = (
"392 152 OFFCURVE",
"344 212 OFFCURVE",
"350 284 CURVE SMOOTH",
"358 376 OFFCURVE",
"438 412 OFFCURVE",
"536 412 CURVE SMOOTH",
"596 412 OFFCURVE",
"672 398 OFFCURVE",
"730 380 CURVE",
"718 250 OFFCURVE",
"616 152 OFFCURVE",
"504 152 CURVE SMOOTH"
);
},
{
closed = 1;
nodes = (
"932 1264 LINE",
"476 1528 LINE",
"380 1324 LINE",
"862 1116 LINE"
);
}
);
width = 1052;
}
);
unicode = 00E0;
},
{
glyphname = egrave;
lastChange = "2019-05-13 18:39:24 +0000";
layers = (
{
layerId = UUID0;
paths = (
{
closed = 1;
nodes = (
"664 -22 OFFCURVE",
"810 90 OFFCURVE",
"856 280 CURVE",
"710 280 LINE",
"682 164 OFFCURVE",
"602 106 OFFCURVE",
"490 106 CURVE SMOOTH",
"326 106 OFFCURVE",
"260 250 OFFCURVE",
"274 444 CURVE",
"864 444 LINE",
"874 490 OFFCURVE",
"880 538 OFFCURVE",
"882 582 CURVE SMOOTH",
"890 804 OFFCURVE",
"794 980 OFFCURVE",
"572 980 CURVE SMOOTH",
"348 980 OFFCURVE",
"166 790 OFFCURVE",
"136 476 CURVE SMOOTH",
"106 166 OFFCURVE",
"254 -22 OFFCURVE",
"478 -22 CURVE SMOOTH"
);
},
{
closed = 1;
nodes = (
"316 722 OFFCURVE",
"412 854 OFFCURVE",
"562 854 CURVE SMOOTH",
"724 854 OFFCURVE",
"762 714 OFFCURVE",
"748 564 CURVE",
"288 564 LINE"
);
},
{
closed = 1;
nodes = (
"820 1206 LINE",
"422 1472 LINE",
"350 1332 LINE",
"770 1106 LINE"
);
}
);
width = 926;
},
{
layerId = UUID1;
paths = (
{
closed = 1;
nodes = (
"692 -28 OFFCURVE",
"848 102 OFFCURVE",
"892 290 CURVE",
"678 290 LINE",
"654 204 OFFCURVE",
"590 162 OFFCURVE",
"510 162 CURVE SMOOTH",
"378 162 OFFCURVE",
"322 272 OFFCURVE",
"334 428 CURVE",
"900 428 LINE",
"908 464 OFFCURVE",
"914 498 OFFCURVE",
"918 534 CURVE SMOOTH",
"940 776 OFFCURVE",
"842 998 OFFCURVE",
"588 998 CURVE SMOOTH",
"362 998 OFFCURVE",
"160 806 OFFCURVE",
"130 486 CURVE SMOOTH",
"100 176 OFFCURVE",
"266 -28 OFFCURVE",
"492 -28 CURVE SMOOTH"
);
},
{
closed = 1;
nodes = (
"374 712 OFFCURVE",
"454 810 OFFCURVE",
"572 810 CURVE SMOOTH",
"704 810 OFFCURVE",
"734 696 OFFCURVE",
"724 578 CURVE",
"350 578 LINE"
);
},
{
closed = 1;
nodes = (
"878 1284 LINE",
"422 1548 LINE",
"326 1344 LINE",
"808 1136 LINE"
);
}
);
width = 954;
}
);
unicode = 00E8;
},
{
glyphname = ograve;
lastChange = "2019-05-13 18:39:24 +0000";
layers = (
{
layerId = UUID0;
paths = (
{
closed = 1;
nodes = (
"722 -22 OFFCURVE",
"908 150 OFFCURVE",
"940 478 CURVE",
"970 808 OFFCURVE",
"818 980 OFFCURVE",
"586 980 CURVE SMOOTH",
"352 980 OFFCURVE",
"168 808 OFFCURVE",
"136 478 CURVE SMOOTH",
"104 150 OFFCURVE",
"258 -22 OFFCURVE",
"490 -22 CURVE SMOOTH"
);
},
{
closed = 1;
nodes = (
"332 114 OFFCURVE",
"262 252 OFFCURVE",
"282 478 CURVE SMOOTH",
"304 706 OFFCURVE",
"408 844 OFFCURVE",
"576 844 CURVE SMOOTH",
"742 844 OFFCURVE",
"818 706 OFFCURVE",
"796 478 CURVE SMOOTH",
"774 252 OFFCURVE",
"664 114 OFFCURVE",
"498 114 CURVE SMOOTH"
);
},
{
closed = 1;
nodes = (
"848 1196 LINE",
"450 1462 LINE",
"378 1322 LINE",
"798 1096 LINE"
);
}
);
width = 984;
},
{
layerId = UUID1;
paths = (
{
closed = 1;
nodes = (
"742 -28 OFFCURVE",
"948 142 OFFCURVE",
"980 484 CURVE",
"1014 832 OFFCURVE",
"838 998 OFFCURVE",
"604 998 CURVE SMOOTH",
"366 998 OFFCURVE",
"162 832 OFFCURVE",
"130 484 CURVE SMOOTH",
"98 142 OFFCURVE",
"268 -28 OFFCURVE",
"508 -28 CURVE SMOOTH"
);
},
{
closed = 1;
nodes = (
"394 178 OFFCURVE",
"324 282 OFFCURVE",
"344 484 CURVE SMOOTH",
"364 690 OFFCURVE",
"464 794 OFFCURVE",
"592 794 CURVE SMOOTH",
"718 794 OFFCURVE",
"786 690 OFFCURVE",
"766 484 CURVE SMOOTH",
"746 282 OFFCURVE",
"646 178 OFFCURVE",
"520 178 CURVE SMOOTH"
);
},
{
closed = 1;
nodes = (
"908 1264 LINE",
"452 1528 LINE",
"356 1324 LINE",
"838 1116 LINE"
);
}
);
width = 1018;
}
);
unicode = 00F2;
},
{
glyphname = Agrave;
lastChange = "2019-05-13 18:39:24 +0000";
layers = (
{
layerId = UUID0;
paths = (
{
closed = 1;
nodes = (
"196 0 LINE",
"324 320 LINE",
"774 320 LINE",
"840 0 LINE",
"988 0 LINE",
"728 1258 LINE",
"554 1258 LINE",
"46 0 LINE"
);
},
{
closed = 1;
nodes = (
"620 1066 LINE",
"748 444 LINE",
"372 444 LINE"
);
},
{
closed = 1;
nodes = (
"902 1454 LINE",
"504 1720 LINE",
"432 1580 LINE",
"852 1354 LINE"
);
}
);
width = 1034;
},
{
layerId = UUID1;
paths = (
{
closed = 1;
nodes = (
"264 0 LINE",
"374 280 LINE",
"806 280 LINE",
"862 0 LINE",
"1088 0 LINE",
"826 1298 LINE",
"560 1298 LINE",
"40 0 LINE"
);
},
{
closed = 1;
nodes = (
"662 1018 LINE",
"772 458 LINE",
"444 458 LINE"
);
},
{
closed = 1;
nodes = (
"994 1536 LINE",
"538 1800 LINE",
"442 1596 LINE",
"924 1388 LINE"
);
}
);
width = 1126;
}
);
unicode = 00C0;
},
{
glyphname = Egrave;
lastChange = "2019-05-13 18:39:24 +0000";
layers = (
{
layerId = UUID0;
paths = (
{
closed = 1;
nodes = (
"876 0 LINE",
"890 138 LINE",
"334 138 LINE",
"374 566 LINE",
"896 566 LINE",
"908 700 LINE",
"386 700 LINE",
"426 1122 LINE",
"980 1122 LINE",
"996 1258 LINE",
"298 1258 LINE",
"180 0 LINE"
);
},
{
closed = 1;
nodes = (
"908 1454 LINE",
"510 1720 LINE",
"438 1580 LINE",
"858 1354 LINE"
);
}
);
width = 1016;
},
{
layerId = UUID1;
paths = (
{
closed = 1;
nodes = (
"918 0 LINE",
"936 206 LINE",
"396 206 LINE",
"428 548 LINE",
"934 548 LINE",
"954 752 LINE",
"448 752 LINE",
"480 1094 LINE",
"1020 1094 LINE",
"1040 1298 LINE",
"288 1298 LINE",
"166 0 LINE"
);
},
{
closed = 1;
nodes = (
"968 1536 LINE",
"512 1800 LINE",
"416 1596 LINE",
"898 1388 LINE"
);
}
);
width = 1058;
}
);
unicode = 00C8;
},
{
glyphname = ugrave;
lastChange = "2019-05-13 18:39:24 +0000";
layers = (
{
layerId = UUID0;
paths = (
{
closed = 1;
nodes = (
"606 -18 OFFCURVE",
"714 56 OFFCURVE",
"784 190 CURVE",
"766 0 LINE",
"908 0 LINE",
"998 958 LINE",
"856 958 LINE",
"812 492 LINE SMOOTH",
"792 276 OFFCURVE",
"672 120 OFFCURVE",
"512 120 CURVE SMOOTH",
"380 120 OFFCURVE",
"316 202 OFFCURVE",
"332 362 CURVE SMOOTH",
"388 958 LINE",
"246 958 LINE",
"188 350 LINE",
"166 100 OFFCURVE",
"284 -18 OFFCURVE",
"478 -18 CURVE SMOOTH"
);
},
{
closed = 1;
nodes = (
"902 1272 LINE",
"504 1538 LINE",
"432 1398 LINE",
"852 1172 LINE"
);
}
);
width = 1090;
},
{
layerId = UUID1;
paths = (
{
closed = 1;
nodes = (
"596 -18 OFFCURVE",
"696 44 OFFCURVE",
"764 174 CURVE",
"748 0 LINE",
"962 0 LINE",
"1052 974 LINE",
"840 974 LINE",
"796 510 LINE SMOOTH",
"776 298 OFFCURVE",
"662 188 OFFCURVE",
"536 188 CURVE SMOOTH",
"438 188 OFFCURVE",
"386 252 OFFCURVE",
"396 378 CURVE SMOOTH",
"454 974 LINE",
"242 974 LINE",
"182 354 LINE",
"156 86 OFFCURVE",
"294 -18 OFFCURVE",
"480 -18 CURVE SMOOTH"
);
},
{
closed = 1;
nodes = (
"964 1304 LINE",
"508 1568 LINE",
"412 1364 LINE",
"894 1156 LINE"
);
}
);
width = 1128;
}
);
unicode = 00F9;
},
{
glyphname = aacute;
lastChange = "2019-05-13 18:39:24 +0000";
layers = (
{
layerId = UUID0;
paths = (
{
closed = 1;
nodes = (
"546 -22 OFFCURVE",
"652 40 OFFCURVE",
"716 160 CURVE",
"716 106 OFFCURVE",
"714 54 OFFCURVE",
"714 0 CURVE",
"836 0 LINE",
"894 616 LINE SMOOTH",
"918 874 OFFCURVE",
"790 980 OFFCURVE",
"590 980 CURVE SMOOTH",
"386 980 OFFCURVE",
"228 900 OFFCURVE",
"208 692 CURVE",
"366 692 LINE",
"376 810 OFFCURVE",
"468 862 OFFCURVE",
"580 862 CURVE SMOOTH",
"714 862 OFFCURVE",
"770 790 OFFCURVE",
"754 620 CURVE",
"742 498 LINE",
"664 532 OFFCURVE",
"580 550 OFFCURVE",
"492 550 CURVE SMOOTH",
"306 550 OFFCURVE",
"152 458 OFFCURVE",
"134 268 CURVE",
"118 120 OFFCURVE",
"218 -22 OFFCURVE",
"410 -22 CURVE SMOOTH"
);
},
{
closed = 1;
nodes = (
"318 100 OFFCURVE",
"276 174 OFFCURVE",
"284 268 CURVE SMOOTH",
"296 394 OFFCURVE",
"390 438 OFFCURVE",
"506 438 CURVE SMOOTH",
"576 438 OFFCURVE",
"658 422 OFFCURVE",
"732 398 CURVE",
"732 216 OFFCURVE",
"578 100 OFFCURVE",
"452 100 CURVE SMOOTH"
);
},
{
closed = 1;
nodes = (
"872 1322 LINE",
"826 1462 LINE",
"378 1196 LINE",
"410 1096 LINE"
);
}
);
width = 992;
},
{
layerId = UUID1;
paths = (
{
closed = 1;
nodes = (
"570 -28 OFFCURVE",
"660 36 OFFCURVE",
"720 132 CURVE",
"722 88 OFFCURVE",
"722 44 OFFCURVE",
"724 0 CURVE",
"908 0 LINE",
"966 618 LINE SMOOTH",
"990 880 OFFCURVE",
"854 998 OFFCURVE",
"626 998 CURVE SMOOTH",
"376 998 OFFCURVE",
"218 904 OFFCURVE",
"196 684 CURVE",
"428 684 LINE",
"438 774 OFFCURVE",
"508 826 OFFCURVE",
"610 826 CURVE SMOOTH",
"728 826 OFFCURVE",
"768 762 OFFCURVE",
"754 626 CURVE",
"744 530 LINE",
"670 552 OFFCURVE",
"594 568 OFFCURVE",
"508 568 CURVE SMOOTH",
"288 568 OFFCURVE",
"140 468 OFFCURVE",
"124 284 CURVE",
"108 118 OFFCURVE",
"210 -28 OFFCURVE",
"444 -28 CURVE SMOOTH"
);
},
{
closed = 1;
nodes = (
"392 152 OFFCURVE",
"344 212 OFFCURVE",
"350 284 CURVE SMOOTH",
"358 376 OFFCURVE",
"438 412 OFFCURVE",
"536 412 CURVE SMOOTH",
"596 412 OFFCURVE",
"672 398 OFFCURVE",
"730 380 CURVE",
"718 250 OFFCURVE",
"616 152 OFFCURVE",
"504 152 CURVE SMOOTH"
);
},
{
closed = 1;
nodes = (
"934 1324 LINE",
"880 1528 LINE",
"374 1264 LINE",
"412 1116 LINE"
);
}
);
width = 1052;
}
);
unicode = 00E1;
},
{
glyphname = eacute;
lastChange = "2019-05-13 18:39:24 +0000";
layers = (
{
layerId = UUID0;
paths = (
{
closed = 1;
nodes = (
"664 -22 OFFCURVE",
"810 90 OFFCURVE",
"856 280 CURVE",
"710 280 LINE",
"682 164 OFFCURVE",
"602 106 OFFCURVE",
"490 106 CURVE SMOOTH",
"326 106 OFFCURVE",
"260 250 OFFCURVE",
"274 444 CURVE",
"864 444 LINE",
"874 490 OFFCURVE",
"880 538 OFFCURVE",
"882 582 CURVE SMOOTH",
"890 804 OFFCURVE",
"794 980 OFFCURVE",
"572 980 CURVE SMOOTH",
"348 980 OFFCURVE",
"166 790 OFFCURVE",
"136 476 CURVE SMOOTH",
"106 166 OFFCURVE",
"254 -22 OFFCURVE",
"478 -22 CURVE SMOOTH"
);
},
{
closed = 1;
nodes = (
"316 722 OFFCURVE",
"412 854 OFFCURVE",
"562 854 CURVE SMOOTH",
"724 854 OFFCURVE",
"762 714 OFFCURVE",
"748 564 CURVE",
"288 564 LINE"
);
},
{
closed = 1;
nodes = (
"830 1332 LINE",
"784 1472 LINE",
"336 1206 LINE",
"368 1106 LINE"
);
}
);
width = 926;
},
{
layerId = UUID1;
paths = (
{
closed = 1;
nodes = (
"692 -28 OFFCURVE",
"848 102 OFFCURVE",
"892 290 CURVE",
"678 290 LINE",
"654 204 OFFCURVE",
"590 162 OFFCURVE",
"510 162 CURVE SMOOTH",
"378 162 OFFCURVE",
"322 272 OFFCURVE",
"334 428 CURVE",
"900 428 LINE",
"908 464 OFFCURVE",
"914 498 OFFCURVE",
"918 534 CURVE SMOOTH",
"940 776 OFFCURVE",
"842 998 OFFCURVE",
"588 998 CURVE SMOOTH",
"362 998 OFFCURVE",
"160 806 OFFCURVE",
"130 486 CURVE SMOOTH",
"100 176 OFFCURVE",
"266 -28 OFFCURVE",
"492 -28 CURVE SMOOTH"
);
},
{
closed = 1;
nodes = (
"374 712 OFFCURVE",
"454 810 OFFCURVE",
"572 810 CURVE SMOOTH",
"704 810 OFFCURVE",
"734 696 OFFCURVE",
"724 578 CURVE",
"350 578 LINE"
);
},
{
closed = 1;
nodes = (
"880 1344 LINE",
"826 1548 LINE",
"320 1284 LINE",
"358 1136 LINE"
);
}
);
width = 954;
}
);
unicode = 00E9;
},
{
glyphname = oacute;
lastChange = "2019-05-13 18:39:24 +0000";
layers = (
{
layerId = UUID0;
paths = (
{
closed = 1;
nodes = (
"722 -22 OFFCURVE",
"908 150 OFFCURVE",
"940 478 CURVE",
"970 808 OFFCURVE",
"818 980 OFFCURVE",
"586 980 CURVE SMOOTH",
"352 980 OFFCURVE",
"168 808 OFFCURVE",
"136 478 CURVE SMOOTH",
"104 150 OFFCURVE",
"258 -22 OFFCURVE",
"490 -22 CURVE SMOOTH"
);
},
{
closed = 1;
nodes = (
"332 114 OFFCURVE",
"262 252 OFFCURVE",
"282 478 CURVE SMOOTH",
"304 706 OFFCURVE",
"408 844 OFFCURVE",
"576 844 CURVE SMOOTH",
"742 844 OFFCURVE",
"818 706 OFFCURVE",
"796 478 CURVE SMOOTH",
"774 252 OFFCURVE",
"664 114 OFFCURVE",
"498 114 CURVE SMOOTH"
);
},
{
closed = 1;
nodes = (
"858 1322 LINE",
"812 1462 LINE",
"364 1196 LINE",
"396 1096 LINE"
);
}
);
width = 984;
},
{
layerId = UUID1;
paths = (
{
closed = 1;
nodes = (
"742 -28 OFFCURVE",
"948 142 OFFCURVE",
"980 484 CURVE",
"1014 832 OFFCURVE",
"838 998 OFFCURVE",
"604 998 CURVE SMOOTH",
"366 998 OFFCURVE",
"162 832 OFFCURVE",
"130 484 CURVE SMOOTH",
"98 142 OFFCURVE",
"268 -28 OFFCURVE",
"508 -28 CURVE SMOOTH"
);
},
{
closed = 1;
nodes = (
"394 178 OFFCURVE",
"324 282 OFFCURVE",
"344 484 CURVE SMOOTH",
"364 690 OFFCURVE",
"464 794 OFFCURVE",
"592 794 CURVE SMOOTH",
"718 794 OFFCURVE",
"786 690 OFFCURVE",
"766 484 CURVE SMOOTH",
"746 282 OFFCURVE",
"646 178 OFFCURVE",
"520 178 CURVE SMOOTH"
);
},
{
closed = 1;
nodes = (
"910 1324 LINE",
"856 1528 LINE",
"350 1264 LINE",
"388 1116 LINE"
);
}
);
width = 1018;
}
);
unicode = 00F3;
},
{
glyphname = uacute;
lastChange = "2019-05-13 18:39:24 +0000";
layers = (
{
layerId = UUID0;
paths = (
{
closed = 1;
nodes = (
"188 350 LINE",
"166 100 OFFCURVE",
"284 -18 OFFCURVE",
"478 -18 CURVE SMOOTH",
"606 -18 OFFCURVE",
"714 56 OFFCURVE",
"784 190 CURVE",
"766 0 LINE",
"908 0 LINE",
"998 958 LINE",
"856 958 LINE",
"812 492 LINE SMOOTH",
"792 276 OFFCURVE",
"672 120 OFFCURVE",
"512 120 CURVE SMOOTH",
"380 120 OFFCURVE",
"316 202 OFFCURVE",
"332 362 CURVE SMOOTH",
"388 958 LINE",
"246 958 LINE"
);
},
{
closed = 1;
nodes = (
"450 1172 LINE",
"418 1272 LINE",
"866 1538 LINE",
"912 1398 LINE"
);
}
);
width = 1090;
},
{
layerId = UUID1;
paths = (
{
closed = 1;
nodes = (
"182 354 LINE",
"156 86 OFFCURVE",
"294 -18 OFFCURVE",
"480 -18 CURVE SMOOTH",
"596 -18 OFFCURVE",
"696 44 OFFCURVE",
"764 174 CURVE",
"748 0 LINE",
"962 0 LINE",
"1052 974 LINE",
"840 974 LINE",
"796 510 LINE SMOOTH",
"776 298 OFFCURVE",
"662 188 OFFCURVE",
"536 188 CURVE SMOOTH",
"438 188 OFFCURVE",
"386 252 OFFCURVE",
"396 378 CURVE SMOOTH",
"454 974 LINE",
"242 974 LINE"
);
},
{
closed = 1;
nodes = (
"444 1156 LINE",
"406 1304 LINE",
"912 1568 LINE",
"966 1364 LINE"
);
}
);
width = 1128;
}
);
unicode = 00FA;
},
{
glyphname = Aacute;
lastChange = "2019-05-13 18:39:24 +0000";
layers = (
{
layerId = UUID0;
paths = (
{
closed = 1;
nodes = (
"196 0 LINE",
"324 320 LINE",
"774 320 LINE",
"840 0 LINE",
"988 0 LINE",
"728 1258 LINE",
"554 1258 LINE",
"46 0 LINE"
);
},
{
closed = 1;
nodes = (
"620 1066 LINE",
"748 444 LINE",
"372 444 LINE"
);
},
{
closed = 1;
nodes = (
"912 1580 LINE",
"866 1720 LINE",
"418 1454 LINE",
"450 1354 LINE"
);
}
);
width = 1034;
},
{
layerId = UUID1;
paths = (
{
closed = 1;
nodes = (
"264 0 LINE",
"374 280 LINE",
"806 280 LINE",
"862 0 LINE",
"1088 0 LINE",
"826 1298 LINE",
"560 1298 LINE",
"40 0 LINE"
);
},
{
closed = 1;
nodes = (
"662 1018 LINE",
"772 458 LINE",
"444 458 LINE"
);
},
{
closed = 1;
nodes = (
"996 1596 LINE",
"942 1800 LINE",
"436 1536 LINE",
"474 1388 LINE"
);
}
);
width = 1126;
}
);
unicode = 00C1;
},
{
glyphname = Eacute;
lastChange = "2019-05-13 18:39:24 +0000";
layers = (
{
layerId = UUID0;
paths = (
{
closed = 1;
nodes = (
"876 0 LINE",
"890 138 LINE",
"334 138 LINE",
"374 566 LINE",
"896 566 LINE",
"908 700 LINE",
"386 700 LINE",
"426 1122 LINE",
"980 1122 LINE",
"996 1258 LINE",
"298 1258 LINE",
"180 0 LINE"
);
},
{
closed = 1;
nodes = (
"918 1580 LINE",
"872 1720 LINE",
"424 1454 LINE",
"456 1354 LINE"
);
}
);
width = 1016;
},
{
layerId = UUID1;
paths = (
{
closed = 1;
nodes = (
"918 0 LINE",
"936 206 LINE",
"396 206 LINE",
"428 548 LINE",
"934 548 LINE",
"954 752 LINE",
"448 752 LINE",
"480 1094 LINE",
"1020 1094 LINE",
"1040 1298 LINE",
"288 1298 LINE",
"166 0 LINE"
);
},
{
closed = 1;
nodes = (
"448 1388 LINE",
"410 1536 LINE",
"916 1800 LINE",
"970 1596 LINE"
);
}
);
width = 1058;
}
);
unicode = 00C9;
},
{
glyphname = Igrave;
lastChange = "2019-05-13 18:39:24 +0000";
layers = (
{
layerId = UUID0;
paths = (
{
closed = 1;
nodes = (
"324 0 LINE",
"442 1258 LINE",
"300 1258 LINE",
"182 0 LINE"
);
},
{
closed = 1;
nodes = (
"632 1454 LINE",
"234 1720 LINE",
"162 1580 LINE",
"582 1354 LINE"
);
}
);
width = 504;
},
{
layerId = UUID1;
paths = (
{
closed = 1;
nodes = (
"380 0 LINE",
"502 1298 LINE",
"290 1298 LINE",
"168 0 LINE"
);
},
{
closed = 1;
nodes = (
"628 1388 LINE",
"698 1536 LINE",
"242 1800 LINE",
"146 1596 LINE"
);
}
);
width = 548;
}
);
unicode = 00CC;
},
{
glyphname = Iacute;
lastChange = "2019-05-13 18:39:24 +0000";
layers = (
{
layerId = UUID0;
paths = (
{
closed = 1;
nodes = (
"324 0 LINE",
"442 1258 LINE",
"300 1258 LINE",
"182 0 LINE"
);
},
{
closed = 1;
nodes = (
"180 1354 LINE",
"148 1454 LINE",
"596 1720 LINE",
"642 1580 LINE"
);
}
);
width = 504;
},
{
layerId = UUID1;
paths = (
{
closed = 1;
nodes = (
"380 0 LINE",
"502 1298 LINE",
"290 1298 LINE",
"168 0 LINE"
);
},
{
closed = 1;
nodes = (
"178 1388 LINE",
"140 1536 LINE",
"646 1800 LINE",
"700 1596 LINE"
);
}
);
width = 548;
}
);
unicode = 00CD;
},
{
glyphname = Ograve;
lastChange = "2019-05-13 18:39:24 +0000";
layers = (
{
layerId = UUID0;
paths = (
{
closed = 1;
nodes = (
"420 1280 OFFCURVE",
"192 1066 OFFCURVE",
"152 628 CURVE",
"110 192 OFFCURVE",
"296 -22 OFFCURVE",
"578 -22 CURVE SMOOTH",
"860 -22 OFFCURVE",
"1088 188 OFFCURVE",
"1132 628 CURVE",
"1172 1062 OFFCURVE",
"984 1280 OFFCURVE",
"702 1280 CURVE SMOOTH",
"702 1280 LINE"
);
},
{
closed = 1;
nodes = (
"898 1138 OFFCURVE",
"1016 954 OFFCURVE",
"984 628 CURVE SMOOTH",
"952 296 OFFCURVE",
"802 122 OFFCURVE",
"592 122 CURVE SMOOTH",
"382 122 OFFCURVE",
"266 296 OFFCURVE",
"298 628 CURVE SMOOTH",
"330 954 OFFCURVE",
"476 1138 OFFCURVE",
"688 1138 CURVE SMOOTH",
"688 1138 LINE"
);
},
{
closed = 1;
nodes = (
"910 1354 LINE",
"960 1454 LINE",
"562 1720 LINE",
"490 1580 LINE"
);
}
);
width = 1162;
},
{
layerId = UUID1;
paths = (
{
closed = 1;
nodes = (
"426 1324 OFFCURVE",
"188 1106 OFFCURVE",
"146 650 CURVE",
"102 202 OFFCURVE",
"298 -28 OFFCURVE",
"610 -28 CURVE SMOOTH",
"926 -28 OFFCURVE",
"1162 196 OFFCURVE",
"1206 650 CURVE",
"1248 1096 OFFCURVE",
"1052 1324 OFFCURVE",
"738 1324 CURVE SMOOTH",
"738 1324 LINE"
);
},
{
closed = 1;
nodes = (
"908 1112 OFFCURVE",
"1014 942 OFFCURVE",
"986 652 CURVE SMOOTH",
"958 350 OFFCURVE",
"820 186 OFFCURVE",
"630 186 CURVE SMOOTH",
"442 186 OFFCURVE",
"336 350 OFFCURVE",
"366 650 CURVE SMOOTH",
"392 942 OFFCURVE",
"530 1112 OFFCURVE",
"718 1112 CURVE SMOOTH",
"718 1112 LINE"
);
},
{
closed = 1;
nodes = (
"966 1388 LINE",
"1036 1536 LINE",
"580 1800 LINE",
"484 1596 LINE"
);
}
);
width = 1230;
}
);
unicode = 00D2;
},
{
glyphname = Oacute;
lastChange = "2019-05-13 18:39:24 +0000";
layers = (
{
layerId = UUID0;
paths = (
{
closed = 1;
nodes = (
"420 1280 OFFCURVE",
"192 1066 OFFCURVE",
"152 628 CURVE",
"110 192 OFFCURVE",
"296 -22 OFFCURVE",
"578 -22 CURVE SMOOTH",
"860 -22 OFFCURVE",
"1088 188 OFFCURVE",
"1132 628 CURVE",
"1172 1062 OFFCURVE",
"984 1280 OFFCURVE",
"702 1280 CURVE SMOOTH",
"702 1280 LINE"
);
},
{
closed = 1;
nodes = (
"898 1138 OFFCURVE",
"1016 954 OFFCURVE",
"984 628 CURVE SMOOTH",
"952 296 OFFCURVE",
"802 122 OFFCURVE",
"592 122 CURVE SMOOTH",
"382 122 OFFCURVE",
"266 296 OFFCURVE",
"298 628 CURVE SMOOTH",
"330 954 OFFCURVE",
"476 1138 OFFCURVE",
"688 1138 CURVE SMOOTH",
"688 1138 LINE"
);
},
{
closed = 1;
nodes = (
"508 1354 LINE",
"476 1454 LINE",
"924 1720 LINE",
"970 1580 LINE"
);
}
);
width = 1162;
},
{
layerId = UUID1;
paths = (
{
closed = 1;
nodes = (
"426 1324 OFFCURVE",
"188 1106 OFFCURVE",
"146 650 CURVE",
"102 202 OFFCURVE",
"298 -28 OFFCURVE",
"610 -28 CURVE SMOOTH",
"926 -28 OFFCURVE",
"1162 196 OFFCURVE",
"1206 650 CURVE",
"1248 1096 OFFCURVE",
"1052 1324 OFFCURVE",
"738 1324 CURVE SMOOTH",
"738 1324 LINE"
);
},
{
closed = 1;
nodes = (
"908 1112 OFFCURVE",
"1014 942 OFFCURVE",
"986 652 CURVE SMOOTH",
"958 350 OFFCURVE",
"820 186 OFFCURVE",
"630 186 CURVE SMOOTH",
"442 186 OFFCURVE",
"336 350 OFFCURVE",
"366 650 CURVE SMOOTH",
"392 942 OFFCURVE",
"530 1112 OFFCURVE",
"718 1112 CURVE SMOOTH",
"718 1112 LINE"
);
},
{
closed = 1;
nodes = (
"516 1388 LINE",
"478 1536 LINE",
"984 1800 LINE",
"1038 1596 LINE"
);
}
);
width = 1230;
}
);
unicode = 00D3;
},
{
glyphname = Ugrave;
lastChange = "2019-05-13 18:39:24 +0000";
layers = (
{
layerId = UUID0;
paths = (
{
closed = 1;
nodes = (
"198 454 LINE",
"170 140 OFFCURVE",
"320 -22 OFFCURVE",
"584 -22 CURVE SMOOTH",
"844 -22 OFFCURVE",
"1030 140 OFFCURVE",
"1058 454 CURVE",
"1136 1258 LINE",
"994 1258 LINE",
"916 454 LINE SMOOTH",
"894 220 OFFCURVE",
"770 122 OFFCURVE",
"598 122 CURVE SMOOTH",
"424 122 OFFCURVE",
"318 220 OFFCURVE",
"340 454 CURVE SMOOTH",
"418 1258 LINE",
"276 1258 LINE"
);
},
{
closed = 1;
nodes = (
"916 1354 LINE",
"966 1454 LINE",
"568 1720 LINE",
"496 1580 LINE"
);
}
);
width = 1178;
},
{
layerId = UUID1;
paths = (
{
closed = 1;
nodes = (
"194 490 LINE",
"164 162 OFFCURVE",
"322 -28 OFFCURVE",
"620 -28 CURVE SMOOTH",
"916 -28 OFFCURVE",
"1110 162 OFFCURVE",
"1142 490 CURVE",
"1218 1298 LINE",
"1006 1298 LINE",
"928 490 LINE SMOOTH",
"908 276 OFFCURVE",
"792 190 OFFCURVE",
"638 190 CURVE SMOOTH",
"486 190 OFFCURVE",
"386 276 OFFCURVE",
"406 490 CURVE SMOOTH",
"484 1298 LINE",
"272 1298 LINE"
);
},
{
closed = 1;
nodes = (
"974 1388 LINE",
"1044 1536 LINE",
"588 1800 LINE",
"492 1596 LINE"
);
}
);
width = 1242;
}
);
unicode = 00D9;
},
{
glyphname = Uacute;
lastChange = "2019-05-13 18:39:24 +0000";
layers = (
{
layerId = UUID0;
paths = (
{
closed = 1;
nodes = (
"198 454 LINE",
"170 140 OFFCURVE",
"320 -22 OFFCURVE",
"584 -22 CURVE SMOOTH",
"844 -22 OFFCURVE",
"1030 140 OFFCURVE",
"1058 454 CURVE",
"1136 1258 LINE",
"994 1258 LINE",
"916 454 LINE SMOOTH",
"894 220 OFFCURVE",
"770 122 OFFCURVE",
"598 122 CURVE SMOOTH",
"424 122 OFFCURVE",
"318 220 OFFCURVE",
"340 454 CURVE SMOOTH",
"418 1258 LINE",
"276 1258 LINE"
);
},
{
closed = 1;
nodes = (
"514 1354 LINE",
"482 1454 LINE",
"930 1720 LINE",
"976 1580 LINE"
);
}
);
width = 1178;
},
{
layerId = UUID1;
paths = (
{
closed = 1;
nodes = (
"194 490 LINE",
"164 162 OFFCURVE",
"322 -28 OFFCURVE",
"620 -28 CURVE SMOOTH",
"916 -28 OFFCURVE",
"1110 162 OFFCURVE",
"1142 490 CURVE",
"1218 1298 LINE",
"1006 1298 LINE",
"928 490 LINE SMOOTH",
"908 276 OFFCURVE",
"792 190 OFFCURVE",
"638 190 CURVE SMOOTH",
"486 190 OFFCURVE",
"386 276 OFFCURVE",
"406 490 CURVE SMOOTH",
"484 1298 LINE",
"272 1298 LINE"
);
},
{
closed = 1;
nodes = (
"524 1388 LINE",
"486 1536 LINE",
"992 1800 LINE",
"1046 1596 LINE"
);
}
);
width = 1242;
}
);
unicode = 00DA;
},
{
glyphname = circumflex;
lastChange = "2019-05-13 18:39:24 +0000";
layers = (
{
anchors = (
{
name = _above;
position = "{368, 1270}";
}
);
background = {
paths = (
{
closed = 1;
nodes = (
"334 1292 LINE",
"394 1114 LINE",
"362 1178 LINE",
"334 1436 LINE"
);
}
);
};
layerId = UUID0;
paths = (
{
closed = 1;
nodes = (
"178 1432 LINE",
"260 1354 LINE",
"514 1570 LINE",
"728 1354 LINE",
"824 1432 LINE",
"530 1744 LINE"
);
}
);
width = 732;
},
{
anchors = (
{
name = _above;
position = "{368, 1270}";
}
);
background = {
paths = (
{
closed = 1;
nodes = (
"334 1292 LINE",
"394 1114 LINE",
"362 1178 LINE",
"334 1436 LINE"
);
}
);
};
layerId = UUID1;
paths = (
{
closed = 1;
nodes = (
"186 1504 LINE",
"308 1386 LINE",
"568 1588 LINE",
"788 1386 LINE",
"936 1504 LINE",
"590 1826 LINE"
);
}
);
width = 836;
}
);
unicode = 02C6;
},
{
glyphname = acircumflex;
lastChange = "2019-05-13 18:39:24 +0000";
layers = (
{
layerId = UUID0;
paths = (
{
closed = 1;
nodes = (
"770 790 OFFCURVE",
"714 862 OFFCURVE",
"580 862 CURVE SMOOTH",
"468 862 OFFCURVE",
"376 810 OFFCURVE",
"366 692 CURVE",
"208 692 LINE",
"228 900 OFFCURVE",
"386 980 OFFCURVE",
"590 980 CURVE SMOOTH",
"790 980 OFFCURVE",
"918 874 OFFCURVE",
"894 616 CURVE SMOOTH",
"836 0 LINE",
"714 0 LINE",
"714 54 OFFCURVE",
"716 106 OFFCURVE",
"716 160 CURVE",
"652 40 OFFCURVE",
"546 -22 OFFCURVE",
"410 -22 CURVE SMOOTH",
"218 -22 OFFCURVE",
"118 120 OFFCURVE",
"134 268 CURVE",
"152 458 OFFCURVE",
"306 550 OFFCURVE",
"492 550 CURVE SMOOTH",
"580 550 OFFCURVE",
"664 532 OFFCURVE",
"742 498 CURVE",
"754 620 LINE"
);
},
{
closed = 1;
nodes = (
"294 1174 LINE",
"376 1096 LINE",
"630 1312 LINE",
"844 1096 LINE",
"940 1174 LINE",
"646 1486 LINE"
);
},
{
closed = 1;
nodes = (
"390 438 OFFCURVE",
"296 394 OFFCURVE",
"284 268 CURVE SMOOTH",
"276 174 OFFCURVE",
"318 100 OFFCURVE",
"452 100 CURVE SMOOTH",
"576 100 OFFCURVE",
"732 218 OFFCURVE",
"732 398 CURVE",
"658 422 OFFCURVE",
"576 438 OFFCURVE",
"506 438 CURVE SMOOTH",
"506 438 LINE"
);
}
);
width = 992;
},
{
layerId = UUID1;
paths = (
{
closed = 1;
nodes = (
"768 762 OFFCURVE",
"728 826 OFFCURVE",
"610 826 CURVE SMOOTH",
"508 826 OFFCURVE",
"438 774 OFFCURVE",
"428 684 CURVE",
"196 684 LINE",
"218 904 OFFCURVE",
"376 998 OFFCURVE",
"626 998 CURVE SMOOTH",
"854 998 OFFCURVE",
"990 880 OFFCURVE",
"966 618 CURVE SMOOTH",
"908 0 LINE",
"724 0 LINE",
"722 44 OFFCURVE",
"722 88 OFFCURVE",
"720 132 CURVE",
"660 36 OFFCURVE",
"570 -28 OFFCURVE",
"444 -28 CURVE SMOOTH",
"210 -28 OFFCURVE",
"108 118 OFFCURVE",
"124 284 CURVE",
"140 468 OFFCURVE",
"288 568 OFFCURVE",
"508 568 CURVE SMOOTH",
"594 568 OFFCURVE",
"670 552 OFFCURVE",
"744 530 CURVE",
"754 626 LINE"
);
},
{
closed = 1;
nodes = (
"276 1232 LINE",
"398 1114 LINE",
"658 1316 LINE",
"878 1114 LINE",
"1026 1232 LINE",
"680 1554 LINE"
);
},
{
closed = 1;
nodes = (
"438 412 OFFCURVE",
"358 376 OFFCURVE",
"350 284 CURVE SMOOTH",
"344 212 OFFCURVE",
"392 152 OFFCURVE",
"504 152 CURVE SMOOTH",
"616 152 OFFCURVE",
"718 250 OFFCURVE",
"730 380 CURVE",
"672 398 OFFCURVE",
"596 412 OFFCURVE",
"536 412 CURVE SMOOTH",
"536 412 LINE"
);
}
);
width = 1052;
}
);
unicode = 00E2;
},
{
glyphname = ecircumflex;
lastChange = "2019-05-13 18:39:24 +0000";
layers = (
{
layerId = UUID0;
paths = (
{
closed = 1;
nodes = (
"880 490 OFFCURVE",
"886 538 OFFCURVE",
"888 582 CURVE SMOOTH",
"896 804 OFFCURVE",
"800 980 OFFCURVE",
"578 980 CURVE SMOOTH",
"354 980 OFFCURVE",
"172 790 OFFCURVE",
"142 476 CURVE SMOOTH",
"112 166 OFFCURVE",
"260 -22 OFFCURVE",
"484 -22 CURVE SMOOTH",
"670 -22 OFFCURVE",
"816 90 OFFCURVE",
"862 280 CURVE",
"716 280 LINE",
"688 164 OFFCURVE",
"608 106 OFFCURVE",
"496 106 CURVE SMOOTH",
"332 106 OFFCURVE",
"266 250 OFFCURVE",
"280 444 CURVE",
"870 444 LINE"
);
},
{
closed = 1;
nodes = (
"258 1184 LINE",
"340 1106 LINE",
"594 1322 LINE",
"808 1106 LINE",
"904 1184 LINE",
"610 1496 LINE"
);
},
{
closed = 1;
nodes = (
"730 854 OFFCURVE",
"768 714 OFFCURVE",
"754 564 CURVE",
"294 564 LINE",
"322 722 OFFCURVE",
"418 854 OFFCURVE",
"568 854 CURVE SMOOTH",
"568 854 LINE"
);
}
);
width = 926;
},
{
layerId = UUID1;
paths = (
{
closed = 1;
nodes = (
"920 464 OFFCURVE",
"926 498 OFFCURVE",
"930 534 CURVE SMOOTH",
"952 776 OFFCURVE",
"854 998 OFFCURVE",
"600 998 CURVE SMOOTH",
"374 998 OFFCURVE",
"172 806 OFFCURVE",
"142 486 CURVE SMOOTH",
"112 176 OFFCURVE",
"278 -28 OFFCURVE",
"504 -28 CURVE SMOOTH",
"704 -28 OFFCURVE",
"860 102 OFFCURVE",
"904 290 CURVE",
"690 290 LINE",
"666 204 OFFCURVE",
"602 162 OFFCURVE",
"522 162 CURVE SMOOTH",
"390 162 OFFCURVE",
"334 272 OFFCURVE",
"346 428 CURVE",
"912 428 LINE"
);
},
{
closed = 1;
nodes = (
"230 1252 LINE",
"352 1134 LINE",
"612 1336 LINE",
"832 1134 LINE",
"980 1252 LINE",
"634 1574 LINE"
);
},
{
closed = 1;
nodes = (
"716 810 OFFCURVE",
"746 696 OFFCURVE",
"736 578 CURVE",
"362 578 LINE",
"386 712 OFFCURVE",
"466 810 OFFCURVE",
"584 810 CURVE SMOOTH",
"584 810 LINE"
);
}
);
width = 954;
}
);
unicode = 00EA;
},
{
glyphname = ocircumflex;
lastChange = "2019-05-13 18:39:24 +0000";
layers = (
{
layerId = UUID0;
paths = (
{
closed = 1;
nodes = (
"352 980 OFFCURVE",
"168 808 OFFCURVE",
"136 478 CURVE SMOOTH",
"104 150 OFFCURVE",
"258 -22 OFFCURVE",
"490 -22 CURVE SMOOTH",
"722 -22 OFFCURVE",
"908 150 OFFCURVE",
"940 478 CURVE",
"970 808 OFFCURVE",
"818 980 OFFCURVE",
"586 980 CURVE SMOOTH",
"586 980 LINE"
);
},
{
closed = 1;
nodes = (
"742 844 OFFCURVE",
"818 706 OFFCURVE",
"796 478 CURVE SMOOTH",
"774 252 OFFCURVE",
"664 114 OFFCURVE",
"498 114 CURVE SMOOTH",
"332 114 OFFCURVE",
"262 252 OFFCURVE",
"282 478 CURVE SMOOTH",
"304 706 OFFCURVE",
"408 844 OFFCURVE",
"576 844 CURVE SMOOTH",
"576 844 LINE"
);
},
{
closed = 1;
nodes = (
"278 1174 LINE",
"360 1096 LINE",
"614 1312 LINE",
"828 1096 LINE",
"924 1174 LINE",
"630 1486 LINE"
);
}
);
width = 984;
},
{
layerId = UUID1;
paths = (
{
closed = 1;
nodes = (
"366 998 OFFCURVE",
"162 832 OFFCURVE",
"130 484 CURVE SMOOTH",
"98 142 OFFCURVE",
"268 -28 OFFCURVE",
"508 -28 CURVE SMOOTH",
"742 -28 OFFCURVE",
"948 142 OFFCURVE",
"980 484 CURVE",
"1014 832 OFFCURVE",
"838 998 OFFCURVE",
"604 998 CURVE SMOOTH",
"604 998 LINE"
);
},
{
closed = 1;
nodes = (
"718 794 OFFCURVE",
"786 690 OFFCURVE",
"766 484 CURVE SMOOTH",
"746 282 OFFCURVE",
"646 178 OFFCURVE",
"520 178 CURVE SMOOTH",
"394 178 OFFCURVE",
"324 282 OFFCURVE",
"344 484 CURVE SMOOTH",
"364 690 OFFCURVE",
"464 794 OFFCURVE",
"592 794 CURVE SMOOTH",
"592 794 LINE"
);
},
{
closed = 1;
nodes = (
"250 1232 LINE",
"372 1114 LINE",
"632 1316 LINE",
"852 1114 LINE",
"1000 1232 LINE",
"654 1554 LINE"
);
}
);
width = 1018;
}
);
unicode = 00F4;
},
{
glyphname = ucircumflex;
lastChange = "2019-05-13 18:39:24 +0000";
layers = (
{
layerId = UUID0;
paths = (
{
closed = 1;
nodes = (
"188 350 LINE",
"166 100 OFFCURVE",
"284 -18 OFFCURVE",
"478 -18 CURVE SMOOTH",
"606 -18 OFFCURVE",
"714 56 OFFCURVE",
"784 190 CURVE",
"766 0 LINE",
"908 0 LINE",
"998 958 LINE",
"856 958 LINE",
"812 492 LINE SMOOTH",
"792 276 OFFCURVE",
"672 120 OFFCURVE",
"512 120 CURVE SMOOTH",
"380 120 OFFCURVE",
"316 202 OFFCURVE",
"332 362 CURVE SMOOTH",
"388 958 LINE",
"246 958 LINE"
);
},
{
closed = 1;
nodes = (
"334 1250 LINE",
"416 1172 LINE",
"670 1388 LINE",
"884 1172 LINE",
"980 1250 LINE",
"686 1562 LINE"
);
}
);
width = 1090;
},
{
layerId = UUID1;
paths = (
{
closed = 1;
nodes = (
"182 354 LINE",
"156 86 OFFCURVE",
"294 -18 OFFCURVE",
"480 -18 CURVE SMOOTH",
"596 -18 OFFCURVE",
"696 44 OFFCURVE",
"764 174 CURVE",
"748 0 LINE",
"962 0 LINE",
"1052 974 LINE",
"840 974 LINE",
"796 510 LINE SMOOTH",
"776 298 OFFCURVE",
"662 188 OFFCURVE",
"536 188 CURVE SMOOTH",
"438 188 OFFCURVE",
"386 252 OFFCURVE",
"396 378 CURVE SMOOTH",
"454 974 LINE",
"242 974 LINE"
);
},
{
closed = 1;
nodes = (
"306 1272 LINE",
"428 1154 LINE",
"688 1356 LINE",
"908 1154 LINE",
"1056 1272 LINE",
"710 1594 LINE"
);
}
);
width = 1128;
}
);
unicode = 00FB;
},
